<svg xmlns="http://www.w3.org/2000/svg" width="54" height="76" viewBox="0 0 54 76"><path fill="#a5b1bc" fill-rule="evenodd" d="M1334.73,3560.4a7.71,7.71,0,1,0,0,15.42h0.04c3.27-.09,11.57.04,16.04,0a1.285,1.285,0,1,0,0-2.57h-0.02c-4.39.03-12.59-.1-16.06,0a5.135,5.135,0,1,1,0-10.27c13.42,0,29.04-.03,42.7,0a9.576,9.576,0,0,0,0,10.26c-0.85.02-.76,0.05-7.34,0.02a1.29,1.29,0,0,0-.05,2.58h0.03c8.65,0.04,8.56-.03,9.63-0.03a1.287,1.287,0,0,0,1.3-1.28,1.326,1.326,0,0,0-.33-0.87,8.2,8.2,0,0,1,.01-11.1,1.29,1.29,0,0,0-.96-2.15c-14.14-.03-30.85,0-44.99,0v-0.01Zm1.28-55.39a9.029,9.029,0,0,0-9,9.01v54.1h2.58v-54.1a6.412,6.412,0,0,1,6.42-6.44h39.85a2.561,2.561,0,0,1,2.58,2.58v51.52h2.57v-51.52a5.168,5.168,0,0,0-5.15-5.15h-39.85Zm16.58,60.53a1.292,1.292,0,0,0,.14,2.58h1.28v11.59a1.283,1.283,0,0,0,2.19.91l4.24-4.24,4.23,4.24a1.289,1.289,0,0,0,2.2-.91v-11.59h1.28a1.29,1.29,0,1,0,0-2.58h-15.56Zm3.99,2.58h7.71v8.48l-2.94-2.95a1.274,1.274,0,0,0-1.82,0l-2.95,2.95v-8.48Zm-20.57-57.96v47.65h2.57v-47.65h-2.57Z" transform="translate(-1327 -3505)"/></svg>
