<svg xmlns="http://www.w3.org/2000/svg" width="127.188" height="52.75"><path data-name="Forma 1"  d="M127.138 27.58a.181.181 0 0 0-.142-.03 1.218 1.218 0 0 1-.152.05l-.023.01a2.531 2.531 0 0 0-.318.1 7.815 7.815 0 0 0-3.8 3.33 6.576 6.576 0 0 0-.578 1.22 18.717 18.717 0 0 0 .344-3.47v-.19a2.22 2.22 0 0 1 .038-.51 2.78 2.78 0 0 1 .23-.54l.071-.14a.069.069 0 0 1 .04-.02 2.342 2.342 0 0 0 1.221-.6 3.939 3.939 0 0 0 .912-1.21 12.3 12.3 0 0 0 1.239-5.56 4.886 4.886 0 0 0-.047-.58 8.883 8.883 0 0 1-.032-.28.168.168 0 0 0-.085-.13.156.156 0 0 0-.148.01.4.4 0 0 1-.074.04c-.043.03-.075.05-.106.07a8.172 8.172 0 0 0-1.863 1.91 8.391 8.391 0 0 0-1.491 4.14l-.041-.51v-.06c-.053-.67-.107-1.36-.151-2.04a4.316 4.316 0 0 0-.076-.5 1.847 1.847 0 0 1-.026-.91c.021-.07.039-.14.056-.21a1.94 1.94 0 0 1 .576-.73l.012-.01a3.919 3.919 0 0 0 1.075-1.79 9.956 9.956 0 0 0 .306-3.19v-.02a10.17 10.17 0 0 0-.412-2.91 4.566 4.566 0 0 0-.116-.32c-.021-.06-.044-.11-.067-.18a.132.132 0 0 0-.117-.09l-.026-.01a.143.143 0 0 0-.118.06l-.252.31a7.807 7.807 0 0 0-1.765 5.2 10.251 10.251 0 0 0 .078 1.07 30.654 30.654 0 0 0-1.077-3.13.173.173 0 0 1-.015-.07v-.13c0-.2-.009-.41 0-.61a.324.324 0 0 1 .067-.15c.064-.09.134-.17.207-.26a3.144 3.144 0 0 0 .353-.46 3.971 3.971 0 0 0 .482-2.06 12.562 12.562 0 0 0-.481-3.32 8.667 8.667 0 0 0-.966-2.4l-.115-.16a.489.489 0 0 1-.057-.07.149.149 0 0 0-.134-.06.139.139 0 0 0-.123.08 7.932 7.932 0 0 0-.975 3.82 10.444 10.444 0 0 0 .393 2.97 30.6 30.6 0 0 0-1.908-3.07l-.016-.02c-.016-.02-.022-.03-.021-.02-.044-.32-.074-.57-.1-.79a.243.243 0 0 1 .037-.08c.046-.08.1-.16.149-.24a2.571 2.571 0 0 0 .289-.52 3.981 3.981 0 0 0 .146-2 8.994 8.994 0 0 0-2.26-4.68 5.32 5.32 0 0 0-.428-.42l-.042-.03a2.221 2.221 0 0 0-.183-.17.141.141 0 0 0-.15-.04.164.164 0 0 0-.1.11l-.028.13c-.019.08-.034.14-.044.21a10.4 10.4 0 0 0 .038 3.37 8.194 8.194 0 0 0 1.179 3.22 24.862 24.862 0 0 0-2.671-2.76.047.047 0 0 1-.01-.02 2.6 2.6 0 0 0-.462-1.78 4.614 4.614 0 0 0-2.069-1.73c-.521-.23-1.062-.44-1.591-.63-.254-.1-.507-.2-.769-.3a.453.453 0 0 0-.435-.06.2.2 0 0 0-.026.25l.012.04a7.352 7.352 0 0 0 1.3 2.63 4.77 4.77 0 0 0 3.634 1.96.142.142 0 0 1 .105.03 6.068 6.068 0 0 1 .48.39c.413.38.821.79 1.22 1.22a3.636 3.636 0 0 0-2.134-.5 11.378 11.378 0 0 0-1.318.16h-.016c-.127.02-.253.03-.379.05-.275.04-.553.09-.8.13a.645.645 0 0 0-.391.19.145.145 0 0 0 0 .13c.019.03.039.06.062.09a5.216 5.216 0 0 0 2.469 1.87 3.947 3.947 0 0 0 3.188-.1 1.09 1.09 0 0 1 .526-.12 1.375 1.375 0 0 1 .305.03.351.351 0 0 1 .15.06 27.931 27.931 0 0 1 1.691 2.54 3.723 3.723 0 0 0-1.823-.93 10.733 10.733 0 0 0-2.094-.24l-.23-.01a13.75 13.75 0 0 0-.654-.04l-.372-.03a.156.156 0 0 0-.122.07.143.143 0 0 0-.02.14 1.157 1.157 0 0 0 .056.14 6.423 6.423 0 0 0 2.6 2.6 4.008 4.008 0 0 0 2.824.42 1.327 1.327 0 0 1 .355-.04.889.889 0 0 1 .717.23 30.945 30.945 0 0 1 1.339 3.26 4.382 4.382 0 0 0-1.693-1.38c-.714-.34-1.458-.65-2.19-.96-.314-.13-.63-.26-.944-.4a.154.154 0 0 0-.146.02.148.148 0 0 0-.068.13c0 .1 1.044 3.03 2.559 4.18a3.954 3.954 0 0 0 2.34.98 1.025 1.025 0 0 1 .809.31.335.335 0 0 0 .129.09c.077.02.1.07.136.23a32.112 32.112 0 0 1 .677 4.07q-.063-.21-.147-.42a6.031 6.031 0 0 0-1.8-2.4c-.457-.4-.935-.78-1.4-1.15l-.022-.02-.631-.51c-.043-.03-.085-.07-.134-.11l-.131-.12a.2.2 0 0 0-.167-.02.161.161 0 0 0-.084.15l.017.27v.04c.01.17.02.34.037.5a8.4 8.4 0 0 0 1.424 4.05 5.049 5.049 0 0 0 2.3 1.97 1.433 1.433 0 0 1 .669.52 1.1 1.1 0 0 1 .228.78 32.346 32.346 0 0 1-.256 3.61 4.937 4.937 0 0 0-.225-1.02 7.868 7.868 0 0 0-1.135-2.17c-.453-.64-.925-1.27-1.381-1.88l-.031-.04c-.181-.25-.362-.49-.538-.73a.145.145 0 0 0-.108-.07.143.143 0 0 0-.127-.01.152.152 0 0 0-.086.1v.01a.611.611 0 0 0-.017.06 8.9 8.9 0 0 0 .59 5.21 5.788 5.788 0 0 0 1.636 2.31 2.577 2.577 0 0 1 .835 1.15.315.315 0 0 1 .029.16 28.031 28.031 0 0 1-1.355 4.2 5.391 5.391 0 0 0-.03-2.21 19.618 19.618 0 0 0-.98-3.03l-.106-.27c-.166-.42-.333-.84-.5-1.28a.149.149 0 0 0-.145-.1.151.151 0 0 0-.133.08l-.055.11a1.338 1.338 0 0 0-.067.13 9.01 9.01 0 0 0-.713 4.95 6.457 6.457 0 0 0 .934 2.76 2.726 2.726 0 0 1 .523 1.29.471.471 0 0 1-.048.3 22.8 22.8 0 0 1-2.01 3 .07.07 0 0 1 .008-.01 5.379 5.379 0 0 0 .492-2.95c-.047-.78-.135-1.56-.22-2.31v-.05c-.034-.3-.068-.6-.1-.9-.018-.17-.038-.34-.058-.51l-.028-.24a.153.153 0 0 0-.082-.12.378.378 0 0 0-.365.2 8.188 8.188 0 0 0-1.856 4.05 7.229 7.229 0 0 0 .388 4.01.41.41 0 0 1 .013.12l-.027.67a.209.209 0 0 1-.05.12 17.8 17.8 0 0 1-3.3 2.54 4.4 4.4 0 0 0 1.227-2.03 20 20 0 0 0 .584-2.88l.012-.08.159-1.01.062-.38a.157.157 0 0 0-.056-.15.169.169 0 0 0-.154-.02l-.054.02c-.057.03-.107.05-.154.07a6.675 6.675 0 0 0-3.511 6.29 3.047 3.047 0 0 1-.109 1.13.227.227 0 0 1-.055.08 18.155 18.155 0 0 1-3.1 1.01.15.15 0 0 0-.111.1.157.157 0 0 0 .029.15 2.841 2.841 0 0 1 .286.43.17.17 0 0 0 .168.08 20.036 20.036 0 0 0 2.4-.74.232.232 0 0 1 .154-.03 4.4 4.4 0 0 1 .549.11l.076.02a3.263 3.263 0 0 0 2.293 1.72 6.057 6.057 0 0 0 .738.13c.261.02.552.04.864.04.433 0 .742-.03.745-.03a7.964 7.964 0 0 0 2.5-.67 2.391 2.391 0 0 0 .9-.66.154.154 0 0 0-.019-.21 7.9 7.9 0 0 0-2.295-1.47 5.788 5.788 0 0 0-3.353-.4 3.59 3.59 0 0 0-.467.12 19.49 19.49 0 0 0 2.858-2.13.1.1 0 0 1 .068-.03 3.772 3.772 0 0 1 .545-.07.192.192 0 0 1 .045.01 2.711 2.711 0 0 0 2.143.91h.138a6.632 6.632 0 0 0 2.919-.81 7.249 7.249 0 0 0 2.015-1.43c.131-.15.248-.31.351-.45l.01-.01c.046-.07.092-.13.139-.19a.165.165 0 0 0 .03-.12.177.177 0 0 0-.073-.11c-.01 0-.26-.14-.488-.23a6.587 6.587 0 0 0-4.539-.18 4.782 4.782 0 0 0-1.376.72 23.818 23.818 0 0 0 2.258-3.15l.033-.05c.06-.04.121-.07.182-.11a2.684 2.684 0 0 0 .33-.21.135.135 0 0 1 .207-.01 1.362 1.362 0 0 0 .408.16 3.351 3.351 0 0 0 2.385-.31 6.279 6.279 0 0 0 1.905-1.52 7.72 7.72 0 0 0 1.587-2.39 4.291 4.291 0 0 0 .16-.51c.02-.08.041-.15.062-.22a.15.15 0 0 0-.094-.19l-.064-.01c-.315 0-3.121.05-4.763 1.66a8.3 8.3 0 0 0-.969 1.13 30.744 30.744 0 0 0 1.643-4.38l.007-.02a.45.45 0 0 1 .018-.06l.43-.6a.038.038 0 0 1 .043-.02h.038l.091.01a2.709 2.709 0 0 0 .663-.01 3 3 0 0 0 1.686-.95 10.529 10.529 0 0 0 2.577-4.85 3.7 3.7 0 0 0 .086-.66c.008-.1.016-.21.027-.32a.174.174 0 0 0-.049-.14zM21.188 50.74a18.212 18.212 0 0 1-3.1-1.01.227.227 0 0 1-.054-.08 3.089 3.089 0 0 1-.109-1.13 6.675 6.675 0 0 0-3.511-6.29c-.048-.02-.1-.05-.155-.07l-.053-.02a.166.166 0 0 0-.153.02.145.145 0 0 0-.057.14l.062.39c.054.34.107.67.159 1.01l.012.09a20.288 20.288 0 0 0 .583 2.87 4.41 4.41 0 0 0 1.228 2.03 17.8 17.8 0 0 1-3.3-2.54.209.209 0 0 1-.05-.12l-.027-.67a.41.41 0 0 1 .013-.12 7.229 7.229 0 0 0 .388-4.01 8.157 8.157 0 0 0-1.856-4.05.468.468 0 0 0-.309-.21.1.1 0 0 0-.055.01.152.152 0 0 0-.084.12l-.027.23c-.02.18-.041.35-.058.52-.031.3-.065.6-.1.9v.05c-.085.75-.173 1.53-.22 2.31a5.393 5.393 0 0 0 .492 2.95s0 .01.008.01a23.381 23.381 0 0 1-2.01-3 .478.478 0 0 1-.048-.3 2.726 2.726 0 0 1 .523-1.29 6.457 6.457 0 0 0 .934-2.76 9.01 9.01 0 0 0-.713-4.95c-.02-.04-.043-.09-.067-.13l-.056-.11a.152.152 0 0 0-.277.02l-.505 1.28-.106.27a19.618 19.618 0 0 0-.981 3.03 5.408 5.408 0 0 0-.029 2.21 28.034 28.034 0 0 1-1.356-4.2.322.322 0 0 1 .03-.16 2.575 2.575 0 0 1 .834-1.15 5.778 5.778 0 0 0 1.636-2.31 8.893 8.893 0 0 0 .591-5.21.45.45 0 0 0-.017-.06l-.006-.01a.147.147 0 0 0-.086-.1.171.171 0 0 0-.122 0 .194.194 0 0 0-.11.08c-.178.24-.359.48-.54.72l-.03.05c-.457.61-.929 1.24-1.382 1.88a7.961 7.961 0 0 0-1.135 2.16 5.248 5.248 0 0 0-.226 1.03 32.838 32.838 0 0 1-.255-3.62 1.091 1.091 0 0 1 .228-.77 1.433 1.433 0 0 1 .669-.52 5.049 5.049 0 0 0 2.3-1.97 8.389 8.389 0 0 0 1.423-4.05c.018-.16.028-.33.038-.5v-.04c0-.09.011-.18.017-.27a.161.161 0 0 0-.084-.15.167.167 0 0 0-.167.02l-.131.12c-.049.04-.091.07-.134.11l-.631.51-.022.02c-.463.37-.941.75-1.4 1.15a5.951 5.951 0 0 0-1.8 2.4c-.057.14-.106.28-.148.42a31.934 31.934 0 0 1 .677-4.07c.038-.16.059-.21.137-.23a.328.328 0 0 0 .127-.09 1.029 1.029 0 0 1 .81-.31 4.017 4.017 0 0 0 2.34-.98c1.516-1.15 2.559-4.09 2.559-4.18a.137.137 0 0 0-.069-.13.151.151 0 0 0-.144-.02c-.315.14-.631.27-.958.41-.719.3-1.463.61-2.177.95a4.451 4.451 0 0 0-1.693 1.37 31.9 31.9 0 0 1 1.338-3.25.894.894 0 0 1 .718-.23 1.327 1.327 0 0 1 .355.04 4.008 4.008 0 0 0 2.824-.42 6.423 6.423 0 0 0 2.6-2.6c.014-.03.041-.1.056-.14a.145.145 0 0 0-.019-.14.161.161 0 0 0-.132-.07l-.363.03c-.222.01-.437.02-.653.04l-.23.01a10.752 10.752 0 0 0-2.1.24 3.639 3.639 0 0 0-1.822.93 27.931 27.931 0 0 1 1.691-2.54.349.349 0 0 1 .156-.06 1.25 1.25 0 0 1 .3-.03 1.1 1.1 0 0 1 .528.12 3.982 3.982 0 0 0 3.186.1 5.213 5.213 0 0 0 2.468-1.87q.035-.045.063-.09a.149.149 0 0 0 0-.13.648.648 0 0 0-.392-.19c-.245-.04-.522-.09-.8-.13-.126-.02-.253-.03-.379-.05l-.017-.01c-.428-.06-.871-.13-1.318-.15a3.633 3.633 0 0 0-2.133.5c.4-.43.806-.84 1.22-1.22a5.721 5.721 0 0 1 .48-.39.137.137 0 0 1 .1-.03 4.77 4.77 0 0 0 3.635-1.96 7.353 7.353 0 0 0 1.3-2.64l.011-.03a.216.216 0 0 0-.026-.26.508.508 0 0 0-.444.08c-.252.09-.5.19-.766.29-.522.19-1.063.4-1.585.63a4.662 4.662 0 0 0-2.069 1.72 2.62 2.62 0 0 0-.461 1.78.23.23 0 0 1-.007.03 24.522 24.522 0 0 0-2.674 2.76 8.194 8.194 0 0 0 1.179-3.22 10.457 10.457 0 0 0 .038-3.37c-.011-.07-.026-.13-.044-.21l-.028-.13a.147.147 0 0 0-.1-.11.16.16 0 0 0-.15.03c-.062.06-.123.12-.183.17l-.042.04a5.145 5.145 0 0 0-.427.42 9 9 0 0 0-2.261 4.68 3.981 3.981 0 0 0 .146 2 2.794 2.794 0 0 0 .292.53c.05.07.1.15.147.23a.317.317 0 0 1 .036.07c-.021.23-.051.48-.091.78a.09.09 0 0 1-.026.04l-.014.02a30.792 30.792 0 0 0-1.909 3.07 10.37 10.37 0 0 0 .394-2.97 7.99 7.99 0 0 0-.976-3.83.187.187 0 0 0-.135-.08.157.157 0 0 0-.121.07c-.019.02-.039.05-.058.07-.041.06-.08.11-.114.16a8.7 8.7 0 0 0-.967 2.4 12.6 12.6 0 0 0-.48 3.32 3.9 3.9 0 0 0 .482 2.05 2.967 2.967 0 0 0 .358.48c.068.08.138.16.2.25a.314.314 0 0 1 .067.15c.009.2 0 .41 0 .6v.14a.174.174 0 0 1-.014.07 30.413 30.413 0 0 0-1.077 3.13 10.244 10.244 0 0 0 .077-1.07 7.8 7.8 0 0 0-1.765-5.2l-.251-.31a.145.145 0 0 0-.118-.06h-.026a.162.162 0 0 0-.118.1c-.022.07-.045.12-.067.18-.042.11-.082.21-.116.32a10.17 10.17 0 0 0-.412 2.91v.02a9.924 9.924 0 0 0 .305 3.19 3.928 3.928 0 0 0 1.075 1.79l.013.01a1.924 1.924 0 0 1 .575.73c.017.07.035.14.056.21a1.866 1.866 0 0 1-.027.92 4.039 4.039 0 0 0-.075.49c-.044.68-.1 1.37-.151 2.04v.06l-.04.51a8.392 8.392 0 0 0-1.492-4.14 8.172 8.172 0 0 0-1.863-1.91c-.031-.02-.063-.04-.106-.07a.472.472 0 0 1-.075-.04.15.15 0 0 0-.232.12c-.009.09-.02.18-.032.28a5.106 5.106 0 0 0-.047.58 12.33 12.33 0 0 0 1.239 5.56 3.924 3.924 0 0 0 .912 1.21 2.254 2.254 0 0 0 1.22.59.1.1 0 0 0 .037.02l.075.15a2.843 2.843 0 0 1 .23.54 2.22 2.22 0 0 1 .038.51v.19a18.632 18.632 0 0 0 .344 3.47 6.576 6.576 0 0 0-.578-1.22 7.815 7.815 0 0 0-3.8-3.33 2.531 2.531 0 0 0-.318-.1l-.023-.01a1.108 1.108 0 0 1-.151-.05.18.18 0 0 0-.143.03.174.174 0 0 0-.055.14c.012.11.02.21.027.32a3.7 3.7 0 0 0 .086.66 10.58 10.58 0 0 0 2.577 4.85 3 3 0 0 0 1.687.95 3.328 3.328 0 0 0 .662.01l.092-.01h.037c.025 0 .027 0 .045.03l.427.59a.329.329 0 0 1 .019.06l.007.02a30.627 30.627 0 0 0 1.644 4.38 8.379 8.379 0 0 0-.97-1.13c-1.641-1.61-4.448-1.66-4.763-1.66h-.064a.16.16 0 0 0-.1.19c.022.08.043.15.066.24a4.151 4.151 0 0 0 .157.5 7.72 7.72 0 0 0 1.587 2.39 6.434 6.434 0 0 0 1.9 1.52 3.351 3.351 0 0 0 2.385.31 1.709 1.709 0 0 0 .408-.16.133.133 0 0 1 .206.01c.107.08.221.14.331.21a1.388 1.388 0 0 1 .179.11.52.52 0 0 1 .036.05 24.5 24.5 0 0 0 2.258 3.15 4.782 4.782 0 0 0-1.376-.72A6.587 6.587 0 0 0 5 44.77c-.228.09-.478.22-.5.23a.165.165 0 0 0-.036.23c.047.06.093.12.139.19l.01.01a4.826 4.826 0 0 0 .351.44 7.274 7.274 0 0 0 2.015 1.44 6.631 6.631 0 0 0 2.918.81h.138a2.7 2.7 0 0 0 2.14-.91.067.067 0 0 1 .043-.02 5.5 5.5 0 0 1 .549.08.1.1 0 0 1 .07.03 18.729 18.729 0 0 0 2.858 2.12 6.506 6.506 0 0 0-.467-.11 5.787 5.787 0 0 0-3.353.4 8.068 8.068 0 0 0-2.3 1.46.167.167 0 0 0-.019.22 2.391 2.391 0 0 0 .9.66 7.957 7.957 0 0 0 2.5.67s.312.03.745.03a7.55 7.55 0 0 0 .863-.05 6.006 6.006 0 0 0 .738-.12 3.254 3.254 0 0 0 2.287-1.71.183.183 0 0 1 .083-.04c.2-.05.379-.08.55-.11a.533.533 0 0 1 .154.03 16.968 16.968 0 0 0 2.4.74.05.05 0 0 0 .036.01.151.151 0 0 0 .134-.08 2.369 2.369 0 0 1 .287-.43.157.157 0 0 0 .028-.15.148.148 0 0 0-.073-.1z" fill="#c5cadd" fill-rule="evenodd"/></svg>
