<svg xmlns="http://www.w3.org/2000/svg" width="85" height="54"><path fill="none" stroke="#FF0F37" stroke-width="3" stroke-miterlimit="10" d="M82.989 6.281v30.957H72.938L62.385 9.598c8.141-4.825 20.604-3.317 20.604-3.317zM2.663 2.599v30.958h10.051L20.63 6.459c-8.142-4.824-17.967-3.86-17.967-3.86z"/><path fill="none" stroke="#FF0F37" stroke-width="3" stroke-miterlimit="10" d="M63.449 12.386c-4.008-.888-12.923-6.361-19.521-6.328s-11.575 7.178-14.227 10.847c-2.25 3.113-.299 7.065 3.811 7.065s7.963-6.761 11.748-6.761 20.237 19.486 20.237 19.486l5.862-3.593M35.608 9.87H19.786M13.986 29.2c3.098 2.276 19.283 19.385 24.769 22.247 0 0 5.546 2.881 8.305-1.01 2.938.438 5.69-.437 6.315-3.937 0 0 6.125 1.125 7.125-3.125 3.75.188 5.688-2.25 4.997-6.68"/><path fill="none" stroke="#FF0F37" stroke-width="3" stroke-linecap="round" stroke-miterlimit="10" d="M60.5 43.375L49.234 31.477M53.614 46.536l-9.312-9.841M47.061 50.438l-9.615-9.935"/></svg>