<svg xmlns="http://www.w3.org/2000/svg" width="94" height="90"><path d="M89.621 85.61H4.373V37.119l36.563 26.436a10.789 10.789 0 0 0 12.216 0l36.469-26.424V85.61zM14.209 38.82l-8.824-6.38 8.824-5.453V38.82zm4.372-34.416h56.832v37.311a2.23 2.23 0 0 0 .027.274l-24.846 18a6.454 6.454 0 0 1-7.1 0l-24.91-18.012V4.4zm70.034 28.04l-8.83 6.4V26.987zm5.327-.171a2.193 2.193 0 0 0-.99-2.3l-13.167-8.137V2.194A2.192 2.192 0 0 0 77.6 0c-.05 0-.1.013-.149.016H16.4a2.192 2.192 0 0 0-2.186 2.195v19.624L1.047 29.972a2.192 2.192 0 0 0-.99 2.3 4.618 4.618 0 0 0-.051.669V85.6A4.392 4.392 0 0 0 4.382 90h85.24a4.388 4.388 0 0 0 4.376-4.4V32.941a4.592 4.592 0 0 0-.051-.668zm-66.618-14.7h18.612a2.2 2.2 0 0 0 0-4.39H27.324a2.2 2.2 0 0 0 0 4.39m32.788 19.752a2.192 2.192 0 0 0-2.186-2.2h-30.6a2.2 2.2 0 0 0 0 4.39h30.6a2.192 2.192 0 0 0 2.186-2.195m-32.788-8.779H66.67a2.2 2.2 0 0 0 0-4.39H27.324a2.2 2.2 0 0 0 0 4.39" fill="#ff1037" fill-rule="evenodd"/></svg>