<svg xmlns="http://www.w3.org/2000/svg" width="121.97" height="80"><path d="M82.78.01a38.43 38.43 0 0 0-21.77 6.75 38.749 38.749 0 0 0-54.4 11.01c-12.03 18.36-7.2 43.2 10.8 55.47a38.578 38.578 0 0 0 43.6 0 38.733 38.733 0 0 0 54.38-11.05 40.471 40.471 0 0 0-10.84-55.45A38.563 38.563 0 0 0 82.78.01zM39.24 75C20.28 75.01 4.9 59.35 4.89 40.02S20.24 5 39.2 4.99a33.876 33.876 0 0 1 17.69 5 39.878 39.878 0 0 0-6.58 7.61 40.455 40.455 0 0 0 6.59 52.39A33.6 33.6 0 0 1 39.24 75zm28.2-15.06l-9.49 4.22a35.461 35.461 0 0 1-4.05-5.23l17.93-8.04a35.427 35.427 0 0 1-4.39 9.05zM73.55 40a35.538 35.538 0 0 1-.34 4.83l-21.64 9.71a35.589 35.589 0 0 1-2.11-6.11l24.02-10.77c.05.77.08 1.55.08 2.34h-.01zM48.6 43.36c-.1-1.11-.16-2.23-.16-3.36a35.325 35.325 0 0 1 .2-3.71l22.2-9.97a35.084 35.084 0 0 1 1.93 6.2zm1.18-13.02a35.17 35.17 0 0 1 3.83-8.77l11.12-4.99a34.494 34.494 0 0 1 3.88 5.34zm33 44.66a33.544 33.544 0 0 1-17.65-4.99 40.436 40.436 0 0 0 3.64-56.29A39.949 39.949 0 0 0 65.13 10a33.947 33.947 0 0 1 47.09 11.98A35.393 35.393 0 0 1 100.48 70a33.752 33.752 0 0 1-17.7 5z" fill="#ff1037" fill-rule="evenodd"/></svg>