<svg width="60" height="60" fill="none" xmlns="http://www.w3.org/2000/svg"><g clip-path="url(#clip0)"><path d="M13.827 58.828V1.172h34.69l7.5 7.496v50.16h-42.19z" fill="#EFF3F3"/><path d="M30.234 14.06h18.752v20.619H30.234v-20.62z" fill="#fff"/><path d="M30.234 20.932h18.752v6.874H30.234v-6.874z" fill="#EFF3F3"/><path d="M20.859 14.06h9.376v20.626h-9.376V14.059z" fill="#307ABD"/><path d="M48.517 1.167v7.501h7.5l-7.5-7.5z" fill="#0075B8"/><path d="M39.61 40.077H8.67a4.688 4.688 0 0 0-4.688 4.688v9.375a4.688 4.688 0 0 0 4.688 4.688h30.94a4.688 4.688 0 0 0 4.688-4.688v-9.376a4.688 4.688 0 0 0-4.688-4.687z" fill="#307ABD"/><path d="M56.846 7.84l-7.5-7.497A1.172 1.172 0 0 0 48.517 0h-34.69c-.647 0-1.172.525-1.172 1.172v37.733H8.67a5.866 5.866 0 0 0-5.86 5.86v9.375A5.866 5.866 0 0 0 8.67 60h47.348c.647 0 1.172-.525 1.172-1.172V35.286a1.172 1.172 0 0 0-2.344 0v22.37H44.295a5.83 5.83 0 0 0 1.175-3.516v-9.376a5.866 5.866 0 0 0-5.86-5.86H15V2.345h32.346v6.324c0 .647.525 1.172 1.172 1.172h6.329v14.899a1.172 1.172 0 0 0 2.344 0V8.669c0-.312-.124-.61-.344-.83zm-13.72 36.924v9.376a3.52 3.52 0 0 1-3.516 3.516H8.67a3.52 3.52 0 0 1-3.516-3.516v-9.376A3.52 3.52 0 0 1 8.67 41.25h30.94a3.52 3.52 0 0 1 3.516 3.515zM49.689 4l3.498 3.496H49.69V4z" fill="#152438"/><path d="M56.018 28.841a1.176 1.176 0 0 0-1.172 1.172c0 .308.125.61.343.829.218.218.52.343.829.343.308 0 .61-.125.828-.343a1.18 1.18 0 0 0 .344-.829 1.175 1.175 0 0 0-1.172-1.172z" fill="#000"/><path d="M34.688 50.624h.468c.647 0 1.172.526 1.172 1.172 0 .647-.525 1.172-1.172 1.172h-1.699a1.172 1.172 0 0 0 0 2.344h1.7a3.52 3.52 0 0 0 3.515-3.516 3.52 3.52 0 0 0-3.515-3.516h-.47a1.173 1.173 0 0 1-1.171-1.172c0-.646.526-1.171 1.172-1.171h1.347a1.172 1.172 0 0 0 0-2.344h-1.347a3.52 3.52 0 0 0-3.516 3.515 3.52 3.52 0 0 0 3.516 3.516zM11.695 44.032a1.172 1.172 0 0 0-1.83 1.465l3.164 3.955-3.164 3.956a1.172 1.172 0 0 0 1.83 1.465l2.835-3.544 2.835 3.544a1.17 1.17 0 0 0 1.647.182 1.172 1.172 0 0 0 .183-1.647l-3.164-3.956 3.165-3.955a1.172 1.172 0 0 0-1.83-1.465l-2.836 3.544-2.835-3.544zM22.968 55.312h4.688a1.172 1.172 0 0 0 0-2.344H24.14v-8.204a1.172 1.172 0 0 0-2.344 0v9.376c0 .648.525 1.172 1.172 1.172z" fill="#fff"/><path d="M20.858 12.887c-.647 0-1.172.525-1.172 1.172v20.62c0 .647.525 1.171 1.172 1.171h9.25a1.157 1.157 0 0 0 .252 0h18.626c.647 0 1.172-.524 1.172-1.172v-20.62c0-.646-.525-1.171-1.172-1.171H20.859zm1.172 9.217h7.032v4.53H22.03v-4.53zm9.376 0h16.408v4.53H31.406v-4.53zm16.408-2.344H31.406v-4.53h16.408v4.53zm-18.752-4.53v4.53H22.03v-4.53h7.032zM22.03 28.978h7.032v4.53H22.03v-4.53zm9.376 4.53v-4.53h16.408v4.53H31.406z" fill="#152438"/></g><defs><clipPath id="clip0"><path fill="#fff" d="M0 0h60v60H0z"/></clipPath></defs></svg>