<svg xmlns="http://www.w3.org/2000/svg" width="46" height="47"><g fill="none" stroke="#F2163A" stroke-width="1.5" stroke-linecap="round" stroke-linejoin="round" stroke-miterlimit="10"><path d="M32.344 14.814s2.047-.183 4.113-.183c2.067 0 5.616 2.45 5.616 5.207v5.208H22.614v-5.208c0-2.756 3.549-5.207 5.617-5.207s4.113.183 4.113.183z"/><path d="M36.573 14.636l-3.763 3.761-3.876-3.758M32.524 14.383s-1.673.238-2.446-.276-1.957-2.06-1.957-4.067V5.612c0-1.133 1.701-2.986 2.936-2.986h5.87v8.496c0 1.09-1.054 2.703-2.111 2.935a17.991 17.991 0 0 1-2.292.326z"/><path d="M36.927 7.051s-1.159 1.108-2.821 1.108h-5.983"/></g><g fill="none" stroke="#F2163A" stroke-width="1.5" stroke-linecap="round" stroke-linejoin="round" stroke-miterlimit="10"><path d="M12.479 33.211s2.047-.184 4.113-.184c2.067 0 5.616 2.451 5.616 5.207v5.208H2.749v-5.208c0-2.755 3.549-5.207 5.617-5.207s4.113.184 4.113.184z"/><path d="M16.708 33.032l-3.763 3.762-3.876-3.759M12.66 32.779s-1.673.238-2.446-.276-1.957-2.06-1.957-4.067v-4.428c0-1.133 1.701-2.987 2.936-2.987h5.87v8.496c0 1.09-1.054 2.703-2.111 2.935-1.147.25-2.292.327-2.292.327z"/><path d="M17.062 25.447s-1.159 1.107-2.821 1.107H8.258"/></g><path fill="none" stroke="#F2163A" stroke-width="1.5" stroke-linecap="round" stroke-linejoin="round" stroke-miterlimit="10" d="M18.875 15.769c0 .55-.45 1-1 1H4.569c-.55 0-1-.45-1-1V4.279c0-.55.45-1 1-1h13.306c.55 0 1 .45 1 1v6.042L23 14.438h-4.125v1.331zM26.333 30.952c0-.551.45-1 1-1h13.306c.55 0 1 .449 1 1v11.49c0 .549-.45 1-1 1H27.333c-.55 0-1-.451-1-1v-6.043l-4.125-4.117h4.125v-1.33z"/><path fill="#F2163A" d="M10.901 12.277a12.202 12.202 0 0 1-.006-.316c0-.414.059-.771.176-1.072.086-.227.225-.455.416-.686.141-.168.394-.413.759-.735s.603-.579.712-.771.164-.4.164-.627c0-.41-.16-.771-.48-1.081s-.713-.466-1.178-.466c-.449 0-.824.141-1.125.422s-.499.721-.592 1.318l-1.084-.129c.097-.801.387-1.414.87-1.84s1.12-.639 1.913-.639c.84 0 1.51.229 2.01.686s.75 1.01.75 1.658c0 .375-.088.721-.264 1.037s-.52.701-1.031 1.154c-.344.305-.568.529-.674.674s-.184.311-.234.498-.08.492-.088.914h-1.014zm-.065 2.115v-1.201h1.201v1.201h-1.201z"/><path fill="none" stroke="#F2163A" stroke-width="1.5" stroke-linecap="round" stroke-linejoin="round" stroke-miterlimit="10" d="M36.7 35.31l-2.969 2.968-1.808-1.808"/></svg>