<svg id="Layer_1" xmlns="http://www.w3.org/2000/svg" viewBox="0 0 96 94" width="96" height="94"><style>.st0{fill:none;stroke:#ff1137;stroke-width:4;stroke-linecap:round;stroke-miterlimit:10}</style><path id="XMLID_43_" class="st0" d="M66.8 83.7H10.3c-4.5 0-8.2-3.7-8.2-8.2V16.4c0-4.5 3.7-8.2 8.2-8.2h5.9"/><path id="XMLID_33_" class="st0" d="M69.4 8.2h6.3c4.5 0 8.2 3.7 8.2 8.2v47.9"/><path id="XMLID_31_" class="st0" d="M28.3 8.2h29.8"/><path id="XMLID_34_" class="st0" d="M2.1 32.3h81.8"/><circle id="XMLID_32_" class="st0" cx="79.6" cy="77.7" r="14.1"/><circle id="XMLID_39_" class="st0" cx="63.9" cy="20.3" r="5"/><path id="XMLID_36_" class="st0" d="M79.8 78h7.1"/><path id="XMLID_37_" class="st0" d="M79.8 78v-8"/><path id="XMLID_38_" class="st0" d="M63.9 15.3V2.4"/><circle id="XMLID_41_" class="st0" cx="22" cy="20.3" r="5"/><path id="XMLID_40_" class="st0" d="M22 15.3V2.4"/><g id="XMLID_42_"><path id="XMLID_44_" d="M47 70.8h-3.6v-23c-.9.8-2 1.7-3.4 2.5s-2.7 1.4-3.8 1.9v-3.5c2-.9 3.8-2.1 5.3-3.4 1.5-1.3 2.6-2.7 3.2-3.9H47v29.4z" fill="#ff1137"/></g></svg>