<svg xmlns="http://www.w3.org/2000/svg" width="92" height="94"><path d="M45.987 19.236a27.754 27.754 0 1 0 27.722 27.753 27.761 27.761 0 0 0-27.722-27.753zm0 50.8A23.043 23.043 0 1 1 69 46.989a23.057 23.057 0 0 1-23.013 23.043zM90.479 50.8l-1.671-2.308a3.118 3.118 0 0 1-.018-3.652l1.632-2.329a7.851 7.851 0 0 0-2.69-11.444l-2.5-1.346a3.128 3.128 0 0 1-1.613-3.271l.479-2.808a7.838 7.838 0 0 0-7.375-9.137l-2.845-.115a3.1 3.1 0 0 1-2.862-2.251l-.825-2.714a7.847 7.847 0 0 0-10.626-5.018l-2.613 1.114a3.153 3.153 0 0 1-3.553-.788l-1.9-2.116a7.814 7.814 0 0 0-11.736.077l-1.844 2.154a3.171 3.171 0 0 1-3.553.847L31.733 4.62a7.952 7.952 0 0 0-2.978-.6 7.841 7.841 0 0 0-7.551 5.771l-.749 2.749a3.119 3.119 0 0 1-2.843 2.289l-2.824.173a7.789 7.789 0 0 0-5.7 2.981 7.868 7.868 0 0 0-1.539 6.253l.519 2.789a3.126 3.126 0 0 1-1.556 3.308l-2.477 1.385a7.851 7.851 0 0 0-2.517 11.483L3.19 45.49a3.118 3.118 0 0 1 .017 3.653l-1.632 2.329a7.853 7.853 0 0 0 2.689 11.444l2.5 1.346a3.122 3.122 0 0 1 1.612 3.271l-.479 2.808a7.84 7.84 0 0 0 7.375 9.135l2.845.115a3.106 3.106 0 0 1 2.863 2.251l.786 2.731a7.845 7.845 0 0 0 10.625 5.021l2.61-1.116a3.159 3.159 0 0 1 3.555.79l1.9 2.114a7.822 7.822 0 0 0 11.743-.076l1.861-2.154a3.174 3.174 0 0 1 3.555-.848l2.631 1.078a8 8 0 0 0 2.979.6 7.835 7.835 0 0 0 7.549-5.77l.749-2.752a3.13 3.13 0 0 1 2.844-2.289L77.21 79a7.826 7.826 0 0 0 7.244-9.232l-.52-2.79a3.127 3.127 0 0 1 1.557-3.308l2.477-1.387A7.847 7.847 0 0 0 90.479 50.8zm-3.265 5.289a3.109 3.109 0 0 1-1.536 2.061l-2.477 1.385a7.826 7.826 0 0 0-3.9 8.268l.519 2.79a3.125 3.125 0 0 1-2.9 3.693l-2.825.174a7.818 7.818 0 0 0-7.107 5.752l-.749 2.732a3.128 3.128 0 0 1-3.016 2.307 3.2 3.2 0 0 1-1.192-.23l-2.633-1.078a7.975 7.975 0 0 0-2.977-.6 7.862 7.862 0 0 0-5.916 2.692l-1.864 2.138a3.129 3.129 0 0 1-4.687.038l-1.9-2.116a7.856 7.856 0 0 0-5.84-2.616 7.745 7.745 0 0 0-3.094.634l-2.613 1.114a3.032 3.032 0 0 1-1.228.252 3.134 3.134 0 0 1-3-2.251l-.787-2.731a7.852 7.852 0 0 0-7.187-5.655l-2.842-.115a3.03 3.03 0 0 1-2.287-1.155 3.069 3.069 0 0 1-.652-2.48L13 68.285a7.824 7.824 0 0 0-4.034-8.213l-2.5-1.347a3.077 3.077 0 0 1-1.577-2.04 3.023 3.023 0 0 1 .5-2.519l1.633-2.328a7.83 7.83 0 0 0-.077-9.154L5.28 40.4a3.028 3.028 0 0 1-.519-2.519A3.107 3.107 0 0 1 6.3 35.823l2.477-1.385a7.828 7.828 0 0 0 3.9-8.272l-.5-2.768a3.122 3.122 0 0 1 2.9-3.692l2.824-.174a7.844 7.844 0 0 0 7.109-5.753l.748-2.748a3.126 3.126 0 0 1 3.016-2.311 3.226 3.226 0 0 1 1.193.232l2.633 1.076a7.966 7.966 0 0 0 2.977.6 7.86 7.86 0 0 0 5.916-2.693l1.864-2.133a3.121 3.121 0 0 1 4.686-.039l1.9 2.114a7.857 7.857 0 0 0 5.841 2.616 7.753 7.753 0 0 0 3.094-.635l2.613-1.114a3.046 3.046 0 0 1 1.228-.25 3.132 3.132 0 0 1 3 2.249l.786 2.733a7.856 7.856 0 0 0 7.188 5.654l2.842.117a3.121 3.121 0 0 1 2.96 3.634l-.481 2.809a7.831 7.831 0 0 0 4.034 8.214l2.5 1.346a3.13 3.13 0 0 1 1.095 4.556l-1.631 2.329a7.833 7.833 0 0 0 .076 9.157l1.671 2.286a3.394 3.394 0 0 1 .455 2.509zM52.808 39.357l-10.3 10.25-3.345-3.366a2.34 2.34 0 0 0-3.323 0 2.364 2.364 0 0 0-.018 3.328l5.014 5.041a2.344 2.344 0 0 0 3.324 0L56.131 42.7a2.358 2.358 0 1 0-3.323-3.345z" fill="#ff1037" fill-rule="evenodd"/></svg>