<svg xmlns="http://www.w3.org/2000/svg" width="64" height="76"><path fill="none" stroke="#FF0F37" stroke-width="3" stroke-linecap="round" stroke-miterlimit="10" d="M53.135 50.744v22.467H2.385V15.304L14.986 2.703h38.149v19.745"/><path fill="none" stroke="#FF0F37" stroke-width="3" stroke-linecap="round" stroke-miterlimit="10" d="M14.986 2.703v12.601H2.385M45.694 46.387s.016 1.833 3.76 2.997c3.745 1.164 4.797-.338 4.797-.338l8.422-27.096s.134-2.315-3.61-3.479c-3.744-1.164-4.946.819-4.946.819l-8.423 27.097z"/><path fill="none" stroke="#FF0F37" stroke-width="3" stroke-linecap="round" stroke-linejoin="round" stroke-miterlimit="10" d="M54.251 49.046l-8.853 13.469.341-16.115"/><path fill="none" stroke="#FF0F37" stroke-width="3" stroke-linecap="round" stroke-miterlimit="10" d="M40 22.333H11.333M40 31.833H11.333M40 41.334H11.333M35 50.834H11.333M35 60.334H11.333"/></svg>