<svg xmlns="http://www.w3.org/2000/svg" width="78.32" height="93.56"><path d="M39.16 93.57c-.1 0-9.89-.12-19.56-9.48C10.68 75.45.06 56.96.01 17.91 22.02 17.78 37.25 2.05 39.16-.01a62.732 62.732 0 0 0 19.71 13.8 50.507 50.507 0 0 0 19.44 4.12c-.05 39.08-10.69 57.58-19.63 66.21-9.66 9.34-19.42 9.45-19.52 9.45zM36.51 8.99a.272.272 0 0 0-.17.06c-5.33 4.33-16.48 11.82-31.22 13.37a.271.271 0 0 0-.24.27c.55 23.24 5.03 40.92 13.31 52.54 6.75 9.46 14.34 12.39 18.26 13.3h.06a.277.277 0 0 0 .16-.05.251.251 0 0 0 .1-.21V9.25a.251.251 0 0 0-.15-.24.2.2 0 0 0-.11-.02zm5.3 73.77a.3.3 0 0 0-.1.02.27.27 0 0 0-.17.24v5.15a.261.261 0 0 0 .1.2.272.272 0 0 0 .17.06.109.109 0 0 0 .05-.01 20.977 20.977 0 0 0 3.97-1.27.3.3 0 0 0 .16-.19.29.29 0 0 0-.07-.24l-3.93-3.88a.25.25 0 0 0-.18-.08zm0-13.22a.3.3 0 0 0-.1.02.27.27 0 0 0-.17.24v5.77a.273.273 0 0 0 .08.19l8.79 8.71a.293.293 0 0 0 .19.08.269.269 0 0 0 .15-.05 32.993 32.993 0 0 0 3.31-2.54.246.246 0 0 0 .09-.19.273.273 0 0 0-.08-.19L41.99 69.62a.25.25 0 0 0-.18-.08zm0-13.22a.164.164 0 0 0-.1.02.259.259 0 0 0-.17.24v5.77a.273.273 0 0 0 .08.19l15.79 15.63a.25.25 0 0 0 .18.08h.01a.246.246 0 0 0 .19-.09c.86-.95 1.72-2.13 2.56-3.27a.248.248 0 0 0-.03-.34L41.99 56.39a.241.241 0 0 0-.18-.07zm0-13.23a.3.3 0 0 0-.1.02.272.272 0 0 0-.17.25v5.77a.25.25 0 0 0 .08.18L62.81 70.3a.273.273 0 0 0 .19.08h.04a.265.265 0 0 0 .19-.15c.64-1.25 1.28-2.52 1.92-3.89a.263.263 0 0 0-.06-.29l-23.1-22.88a.25.25 0 0 0-.18-.08zm0-13.22a.3.3 0 0 0-.1.02.27.27 0 0 0-.17.24v5.77a.273.273 0 0 0 .08.19l25.32 24.98a.264.264 0 0 0 .19.07h.06a.266.266 0 0 0 .19-.18c.17-.55.36-1.12.55-1.69.29-.86.58-1.74.83-2.62a.275.275 0 0 0-.06-.26L41.99 29.95a.25.25 0 0 0-.18-.08zm0-13.22a.164.164 0 0 0-.1.02.259.259 0 0 0-.17.24v5.77a.273.273 0 0 0 .08.19l28.29 27.91a.273.273 0 0 0 .19.08.17.17 0 0 0 .07-.01.274.274 0 0 0 .19-.2c.32-1.59.63-3.16.95-4.83a.268.268 0 0 0-.07-.24L41.99 16.72a.241.241 0 0 0-.18-.07zm0-7.66a.254.254 0 0 0-.12.02.267.267 0 0 0-.15.24v.21a.25.25 0 0 0 .08.18l30.2 29.91a.25.25 0 0 0 .18.08.277.277 0 0 0 .09-.01.288.288 0 0 0 .18-.22c.2-1.62.4-3.33.61-5.05l.02-.2a.258.258 0 0 0-.07-.21L56.72 17.98a.218.218 0 0 0-.08-.05 62.1 62.1 0 0 1-14.66-8.88.272.272 0 0 0-.17-.06zm25.85 12.59a.265.265 0 0 0-.23.14.259.259 0 0 0 .04.31l5.41 5.35a.25.25 0 0 0 .18.08.355.355 0 0 0 .1-.02.277.277 0 0 0 .17-.23c.05-.74.08-1.51.1-2.26s.06-1.52.11-2.25a.264.264 0 0 0-.07-.19.243.243 0 0 0-.18-.09 33.864 33.864 0 0 1-5.57-.83.127.127 0 0 0-.06-.01z" fill="#ff1037" fill-rule="evenodd"/></svg>