<svg xmlns="http://www.w3.org/2000/svg" width="84" height="80"><path fill="none" stroke="#FF0F37" stroke-width="3" stroke-miterlimit="10" d="M62.247 69.088c0 5.038-4.082 9.12-9.119 9.12s-9.12-4.082-9.12-9.12v-6.201H2.404v6.201a9.12 9.12 0 0 0 9.12 9.12h41.604M62.247 37.89v31.198"/><path fill="none" stroke="#FF0F37" stroke-width="3" stroke-miterlimit="10" d="M13.5 62.887V15h33.692"/><circle fill="none" stroke="#FF0F37" stroke-width="3" stroke-miterlimit="10" cx="25.885" cy="28.518" r="2.956"/><circle fill="none" stroke="#FF0F37" stroke-width="3" stroke-miterlimit="10" cx="25.885" cy="40" r="2.956"/><circle fill="none" stroke="#FF0F37" stroke-width="3" stroke-miterlimit="10" cx="25.885" cy="51.481" r="2.956"/><path fill="none" stroke="#FF0F37" stroke-width="3" stroke-miterlimit="10" d="M33.145 28.518h15.537M33.145 40h20.128M33.145 51.481h20.128"/><circle fill="none" stroke="#FF0F37" stroke-width="3" stroke-miterlimit="10" cx="64.483" cy="19.89" r="18"/><path fill="#FF0F37" d="M63.367 31.864v-2.849c-1.636-.029-3.302-.537-4.287-1.242l.675-1.891c.988.678 2.457 1.213 4.008 1.213 2.033 0 3.387-1.157 3.387-2.766 0-1.552-1.101-2.512-3.189-3.358-2.877-1.128-4.655-2.455-4.655-4.91 0-2.342 1.664-4.12 4.232-4.543V8.696h1.779v2.737c1.693.056 2.849.508 3.667.988l-.705 1.863c-.593-.339-1.749-.988-3.555-.988-2.174 0-2.992 1.298-2.992 2.455 0 1.44 1.043 2.173 3.5 3.217 2.906 1.186 4.372 2.625 4.372 5.137 0 2.258-1.551 4.345-4.457 4.825v2.935h-1.78z"/></svg>