<svg xmlns="http://www.w3.org/2000/svg" width="46" height="47"><path fill="none" stroke="#F2163A" stroke-width="1.5" stroke-linecap="round" stroke-linejoin="round" stroke-miterlimit="10" d="M28.302 21.231l-7.441 7.44-2.942-2.942M24.604 15.933V7.627a3.025 3.025 0 0 0 1.584-2.651 3.037 3.037 0 1 0-6.075 0c0 1.148.645 2.135 1.584 2.651v8.306"/><circle fill="none" stroke="#F2163A" stroke-width="1.5" stroke-linecap="round" stroke-linejoin="round" stroke-miterlimit="10" cx="23.15" cy="25.267" r="9.569"/><path fill="none" stroke="#F2163A" stroke-width="1.5" stroke-linecap="round" stroke-linejoin="round" stroke-miterlimit="10" d="M30.274 31.47l7.028 4.425a3.028 3.028 0 0 0 1.4 2.754 3.036 3.036 0 1 0 3.236-5.14 3.021 3.021 0 0 0-3.088-.072l-7.029-4.426M14.433 28.906l-7.081 4.341a3.026 3.026 0 0 0-3.089.036 3.036 3.036 0 1 0 3.176 5.178 3.023 3.023 0 0 0 1.433-2.735l7.081-4.343M41.94 29.049c.245-1.224.377-2.487.377-3.782 0-8.212-5.174-15.197-12.432-17.926M11.448 40.423a19.061 19.061 0 0 0 11.703 4.011c4.355 0 8.359-1.47 11.578-3.918M16.344 7.366C9.123 10.114 3.983 17.081 3.983 25.267c0 1.241.128 2.452.354 3.628"/></svg>