<svg xmlns="http://www.w3.org/2000/svg" width="99" height="91"><path d="M13.61 91A13.642 13.642 0 0 1 0 77.37V29.54a13.636 13.636 0 0 1 13.61-13.63h17.85v-4.63A11.284 11.284 0 0 1 42.73 0h13.43a11.284 11.284 0 0 1 11.27 11.28v4.63h17.85A13.823 13.823 0 0 1 99 29.55v47.82A13.642 13.642 0 0 1 85.39 91H13.61zM5.05 77.37a8.58 8.58 0 0 0 8.56 8.58h71.67a8.636 8.636 0 0 0 8.67-8.58V48.56l-1.53.42a156.477 156.477 0 0 1-32.16 4.97l-1.13.07-.02 1.12a9.665 9.665 0 0 1-19.33 0l-.02-1.12-1.12-.07a155.2 155.2 0 0 1-32.06-4.97l-1.53-.42v28.81zm44.4-34.2a4.733 4.733 0 0 0-4.73 4.73v7.05a4.725 4.725 0 1 0 9.45 0V47.9a4.731 4.731 0 0 0-4.72-4.73zm0-4.95a9.711 9.711 0 0 1 9.66 9.49l.03 1.27 1.26-.08a156.138 156.138 0 0 0 32.68-5.39l.87-.25V29.54a8.58 8.58 0 0 0-8.56-8.58H13.61a8.636 8.636 0 0 0-8.67 8.58v13.72l.87.25a156.138 156.138 0 0 0 32.68 5.39l1.26.08.03-1.27a9.713 9.713 0 0 1 9.67-9.49zM42.73 4.95a6.338 6.338 0 0 0-6.33 6.33v4.63h25.99v-4.63a6.338 6.338 0 0 0-6.33-6.33H42.73z" fill="#ff1037" fill-rule="evenodd"/></svg>