<svg width="56" height="56" viewBox="0 0 56 56" fill="none" xmlns="http://www.w3.org/2000/svg">
<circle cx="28" cy="28" r="27" stroke="#929FAB" stroke-width="2"/>
<path d="M35.1631 32.2324C35.0459 34.5176 34.4014 36.2656 33.2295 37.4766C32.0674 38.6875 30.4219 39.293 28.293 39.293C26.1543 39.293 24.4551 38.4824 23.1953 36.8613C21.9355 35.2305 21.3057 33.0234 21.3057 30.2402V26.373C21.3057 23.5996 21.9502 21.4072 23.2393 19.7959C24.5381 18.1846 26.3057 17.3789 28.542 17.3789C30.6025 17.3789 32.1943 17.999 33.3174 19.2393C34.4502 20.4697 35.0654 22.2324 35.1631 24.5273H32.4531C32.3359 22.7891 31.9697 21.5488 31.3545 20.8066C30.7393 20.0645 29.8018 19.6934 28.542 19.6934C27.0869 19.6934 25.9688 20.2646 25.1875 21.4072C24.4062 22.54 24.0156 24.2051 24.0156 26.4023V30.3135C24.0156 32.4717 24.377 34.127 25.0996 35.2793C25.832 36.4316 26.8965 37.0078 28.293 37.0078C29.6895 37.0078 30.6953 36.6611 31.3105 35.9678C31.9258 35.2744 32.3066 34.0293 32.4531 32.2324H35.1631Z" fill="#FF1037"/>
</svg>
