<svg xmlns="http://www.w3.org/2000/svg" width="46" height="47"><path fill="none" stroke="#F2163A" stroke-width="1.5" stroke-linecap="round" stroke-linejoin="round" stroke-miterlimit="10" d="M32.249 12.896V6.05H13.768M4.756 15.062v25.361h27.493V23.82M4.756 15.062h9.012V6.05zM29.113 11.438H17.099M29.113 15.306H17.099M24.867 19.174H7.958M21.871 23.043H7.958M18.068 26.911H7.958M29.113 30.78H7.958M29.113 34.648H7.958"/><path fill="none" stroke="#F2163A" stroke-width="1.5" stroke-linecap="round" stroke-linejoin="round" stroke-miterlimit="10" d="M20.823 27.385c.284-.512 4.977-6.32 6.405-7.614 2.272-2.058 8.294-7.444 9.302-8.301s2.447-1.331 3.355-.422c.803 1.002.176 2.381-.786 3.29s-6.973 6.307-9.266 8.341c-1.441 1.278-7.2 5.186-8.267 5.537s-1.027-.32-.743-.831zM33.048 20.434c1.454-1.378 5.309-4.984 5.954-5.558.645-.574.775-1.665 1.356-1.057.515.671.113 1.595-.503 2.203-.615.608-4.663 3.985-6.131 5.347-.922.856-1.59-.069-.676-.935z"/></svg>