<svg xmlns="http://www.w3.org/2000/svg" width="80" height="65" viewBox="0 0 80 65"><path fill="#a5b1bc" fill-rule="evenodd" d="M1323.51,6146.01a7.511,7.511,0,0,1-7.51-7.47V6099.9a7.511,7.511,0,0,1,7.51-7.47h17.13v-4.98a6.5,6.5,0,0,1,6.5-6.46h17.59a6.5,6.5,0,0,1,6.5,6.46v4.98h17.25a7.524,7.524,0,0,1,7.51,7.47v38.64a7.524,7.524,0,0,1-7.51,7.47h-64.97Zm-4.67-7.47a4.656,4.656,0,0,0,4.67,4.64h64.97a4.663,4.663,0,0,0,4.67-4.64v-22.96l-28.5,3.86v1.3a6.5,6.5,0,0,1-6.5,6.46h-3.23a6.5,6.5,0,0,1-6.5-6.46v-1.09l-29.58-4.17v23.06Zm36.08-24.66a3.649,3.649,0,0,0-3.66,3.63v3.23a3.643,3.643,0,0,0,3.66,3.63h3.23a3.643,3.643,0,0,0,3.66-3.63v-3.23a3.649,3.649,0,0,0-3.66-3.63h-3.23Zm-31.41-18.62a4.656,4.656,0,0,0-4.67,4.64v12.74l29.63,4.12,0.01-.1a6.508,6.508,0,0,1,6.44-5.6h3.19a6.449,6.449,0,0,1,6.41,5.44l0.02,0.1,28.61-3.92V6099.9a4.663,4.663,0,0,0-4.67-4.64h-64.97Zm23.63-11.44a3.647,3.647,0,0,0-3.65,3.63v4.98h24.9v-4.98a3.649,3.649,0,0,0-3.66-3.63h-17.59Z" transform="translate(-1316 -6081)"/></svg>
