<svg xmlns="http://www.w3.org/2000/svg" width="46" height="47"><path fill="none" stroke="#F2163A" stroke-width="1.5" stroke-linecap="round" stroke-linejoin="round" stroke-miterlimit="10" d="M2.626 42.037h40.895v2.35H2.626zM33.104 39.844h6.482v2.193h-6.482zM19.832 39.844h6.482v2.193h-6.482zM6.56 39.844h6.482v2.193H6.56zM33.104 19.682h6.482v2.193h-6.482zM38.375 23.813v-1.938h-4.059v1.938h.875v14.093h-.875v1.938h4.059v-1.938H37.5V23.813zM25.103 23.813v-1.938h-4.059v1.938h.875v14.093h-.875v1.938h4.059v-1.938h-.875V23.813zM11.83 23.813v-1.938H7.771v1.938h.875v14.093h-.875v1.938h4.059v-1.938h-.875V23.813zM6.56 17.488h33.027v2.193H6.56zM19.832 19.682h6.482v2.193h-6.482zM6.56 19.682h6.482v2.193H6.56zM1.397 17.488L23.073 2.875l21.675 14.613z"/><path fill="none" stroke="#F2163A" stroke-width="1.5" stroke-linecap="round" stroke-linejoin="round" stroke-miterlimit="10" d="M6.956 17.488L23.073 6.623l16.116 10.865z"/></svg>