<svg xmlns="http://www.w3.org/2000/svg" width="35" height="30" viewBox="0 0 35 30"><path fill="#a5b1bc" stroke="#a5b1bc" stroke-linejoin="round" stroke-width="1" fill-rule="evenodd" d="M5.86,29.4A4.8,4.8,0,0,1,1,24.692V21.726a0.731,0.731,0,0,1,.742-0.718H5.9V4.8A1.7,1.7,0,0,1,7.627,3.137H23.282l0.226,0.026L23.7,2.988a4.127,4.127,0,0,1,3.769-2.4A4.061,4.061,0,0,1,31.592,4.58a3.847,3.847,0,0,1-.235,1.271L31.3,6.027l0.136,0.13,2.452,3.587a0.7,0.7,0,0,1,.014.767,0.741,0.741,0,0,1-.628.343l-1.8-.182-0.523,1.59a0.73,0.73,0,0,1-.608.491H30.311a0.783,0.783,0,0,1-.69-0.32l-1.16-1.725V23.938a5.548,5.548,0,0,1-4.814,5.4,1.014,1.014,0,0,1-.31.068H5.86ZM2.477,24.69a3.334,3.334,0,0,0,3.381,3.277h13.93L19.429,27.5a4.588,4.588,0,0,1-.959-2.8V22.443H2.477V24.69ZM7.337,6.853L7.388,7.1V21.008H19.212a0.731,0.731,0,0,1,.742.718v2.966a3.294,3.294,0,0,0,3.1,3.248,4.1,4.1,0,0,0,3.927-4l0-13.231-1.163,1.724a0.75,0.75,0,0,1-.622.327,0.773,0.773,0,0,1-.708-0.5l-0.523-1.588-1.731.18a0.775,0.775,0,0,1-.693-0.339,0.706,0.706,0,0,1,.012-0.768L23.8,6.392l-0.07-.148a3.891,3.891,0,0,1-.358-1.394l-0.019-.276H7.319ZM30.208,7.538a4.12,4.12,0,0,1-1.184.733l-0.341.135,1.328,1.976,0.2-.593a0.786,0.786,0,0,1,.749-0.612L31.6,9.243l-0.158-.505L30.474,7.307ZM24.479,9.177a0.741,0.741,0,0,1,.714.5l0.194,0.595,0.39-.411L26.694,8.5,26.3,8.385a4.121,4.121,0,0,1-1.27-.607L24.77,7.592,23.647,9.259Zm2.991-7.15a2.664,2.664,0,0,0-1.865.749,2.5,2.5,0,0,0-.771,1.8,2.639,2.639,0,0,0,5.275,0A2.6,2.6,0,0,0,27.469,2.027Z"/></svg>