<svg xmlns="http://www.w3.org/2000/svg" width="73" height="75" viewBox="0 0 73 75"><path fill="#a5b1bc" fill-rule="evenodd" d="M528,6150v-10a8.259,8.259,0,0,1,5.674-7.86l0.257-.08a27.833,27.833,0,0,0,5.4-2.03c0.558-.27,1.041-0.5,1.57-0.7,1.258-.49,2.4-0.97,3.4-1.44l0.057-.03,4.981-4.96,0.032-4.39-0.074-.1a26.447,26.447,0,0,1-5.567-15.45c0-.87.04-1.74,0.12-2.58l0.034-.36-0.352-.04c-0.651-.09-1.13-0.18-1.4-0.24a38.5,38.5,0,0,1,.66-7.99c0.783-4.08,2.643-9.58,7.051-12.61a22.711,22.711,0,0,1,13.11-4.14c6.164,0,11.1,2.46,12.917,4.11a24.143,24.143,0,0,1,4.5,5.48l0.052,0.09a27.133,27.133,0,0,1,3.047,18.19l-0.01.04v0.05a26.447,26.447,0,0,1-5.567,15.45l-0.074.1,0.03,4.19,1.925,1.91v-2.64a1.2,1.2,0,0,1,1.2-1.21h10.981a1.193,1.193,0,0,1,.855.36l7.842,7.95a1.207,1.207,0,0,1,.349.85v18.87a1.2,1.2,0,0,1-1.2,1.21H528Zm54.173-2.42H598.6v-16.45h-6.647a1.205,1.205,0,0,1-1.2-1.21v-6.75h-8.581v24.41Zm-15.283,0h12.884v-10.72Zm-22.424-17.11c-0.831.37-1.717,0.74-2.709,1.12-0.41.15-.819,0.35-1.294,0.57l-0.094.05a29.774,29.774,0,0,1-5.793,2.18l-0.2.06A5.863,5.863,0,0,0,530.4,6140v7.58h30.136l-12.482-10.37a1.21,1.21,0,0,1-.4-1.21l0.672-2.79-3.661-2.83Zm16.693,10.31,2.554,5.16,2.557-5.18-1.782-6.54h-1.543Zm-14.445-11.86,3.7,2.85a1.218,1.218,0,0,1,.435,1.25l-0.68,2.81,8.624,7.16,0.563-.45-8.686-17.56Zm21.965,12.39,0,0.02a1.9,1.9,0,0,1-.1.21l-0.009.01-0.49.99,0.564,0.45,8.6-7.16-0.679-2.81a1.218,1.218,0,0,1,.437-1.25l2.782-2.15v-1.61l-3.041-3.02Zm-11.89-9.37,2.763,5.59,0.889-3.26-0.341-.11a1.189,1.189,0,0,1-.818-0.91,1.15,1.15,0,0,1-.023-0.24v-2.43Zm11.149,1.07a1.413,1.413,0,0,1-.026.25,1.212,1.212,0,0,1-.653.84l-0.275.13,0.891,3.28,2.747-5.57-2.684-1.48v2.55Zm-6.277-3.74v2.53h3.872v-2.66l-1.817-1Zm-9.329-6.34,3.385,6.84,4.488-2.45-0.7-.3a23.322,23.322,0,0,1-6.594-4.53Zm22.341-.81a23.874,23.874,0,0,1-6.859,4.84l-0.686.3,4.564,2.51,3.567-7.22Zm18.485,6.6h3.76l-3.76-3.82v3.82Zm-46.907-28.17c-0.077.81-.117,1.62-0.116,2.41,0,5.28,2.384,11.05,6.542,15.81a25.16,25.16,0,0,0,5.924,5.07,8.119,8.119,0,0,0,9.994,0,25.188,25.188,0,0,0,5.921-5.07c4.159-4.77,6.545-10.53,6.545-15.81,0-.31-0.01-0.61-0.019-0.9l0-.15-0.1-.1a5.733,5.733,0,0,1-1.23-2.12c-1.009-2.86-2.85-6.67-7.163-6.67a13.191,13.191,0,0,0-6.341,2.06,37.586,37.586,0,0,1-18.706,5.15c-0.27,0-.555-0.01-0.871-0.02h-0.343Zm16.7-23.13a20.427,20.427,0,0,0-11.753,3.71,12.626,12.626,0,0,0-3.981,4.76,23.841,23.841,0,0,0-2.047,6.2,35.369,35.369,0,0,0-.612,5.22l-0.016.35,0.35,0.04c0.837,0.07,1.713.11,2.6,0.11a35.231,35.231,0,0,0,17.516-4.82,15.24,15.24,0,0,1,7.531-2.39,9.728,9.728,0,0,1,1.529.13l0.293,0.05,0.11-.28a9.618,9.618,0,0,1,3.471-4.58l0.3-.2-0.192-.31a22.171,22.171,0,0,0-3.8-4.51C572.778,6079.55,568.4,6077.42,562.952,6077.42Zm16.054,10.7a7.591,7.591,0,0,0-2.261,3.19l-0.122.29,0.276,0.17a9.1,9.1,0,0,1,2.209,1.84,12.491,12.491,0,0,1,1.633,2.4l0.691-.21c-0.028-.34-0.066-0.69-0.112-1.05a23.35,23.35,0,0,0-1.752-6.48l-0.189-.44Z" transform="translate(-528 -6075)"/></svg>
