<svg xmlns="http://www.w3.org/2000/svg" width="46" height="47"><path fill="none" stroke="#F2163A" stroke-width="1.5" stroke-linecap="round" stroke-linejoin="round" stroke-miterlimit="10" d="M23 30.359s2.484-.222 4.993-.222 6.817 2.975 6.817 6.321v6.321H11.189v-6.321c0-3.345 4.309-6.321 6.818-6.321s4.993.222 4.993.222z"/><path fill="none" stroke="#F2163A" stroke-width="1.5" stroke-linecap="round" stroke-linejoin="round" stroke-miterlimit="10" d="M28.134 30.143l-4.567 4.566-4.707-4.563M23.219 29.836s-2.031.289-2.969-.336-2.375-2.5-2.375-4.938v-5.375c0-1.375 2.063-3.625 3.563-3.625h7.125v10.313c0 1.323-1.279 3.281-2.563 3.563a21.69 21.69 0 0 1-2.781.398z"/><path fill="none" stroke="#F2163A" stroke-width="1.5" stroke-linecap="round" stroke-linejoin="round" stroke-miterlimit="10" d="M28.563 20.935s-1.407 1.345-3.424 1.345h-7.263"/><circle fill="none" stroke="#F2163A" stroke-width="1.5" stroke-linecap="round" stroke-linejoin="round" stroke-miterlimit="10" cx="23" cy="5.608" r="2.614"/><path fill="none" stroke="#F2163A" stroke-width="1.5" stroke-linecap="round" stroke-linejoin="round" stroke-miterlimit="10" d="M23 11.478V8.222"/><g fill="none" stroke="#F2163A" stroke-width="1.5" stroke-linecap="round" stroke-linejoin="round" stroke-miterlimit="10"><circle cx="38.523" cy="11.97" r="2.614"/><path d="M34.372 16.121l2.303-2.303"/><g><circle cx="7.477" cy="11.97" r="2.614"/><path d="M11.627 16.122l-2.302-2.304"/></g></g><g fill="none" stroke="#F2163A" stroke-width="1.5" stroke-linecap="round" stroke-linejoin="round" stroke-miterlimit="10"><circle cx="42.615" cy="27.678" r="2.613"/><path d="M36.746 27.678h3.256"/><g><circle cx="3.384" cy="27.792" r="2.614"/><path d="M9.254 27.792H5.998"/></g></g></svg>