<svg xmlns="http://www.w3.org/2000/svg" width="93" height="99"><path d="M3.52 65.98a2.266 2.266 0 0 1-2.2-1.73A46.4 46.4 0 0 1 0 53.27 45.693 45.693 0 0 1 43.3 7.62l-3.73-3.76a2.174 2.174 0 0 1-.66-1.6 2.271 2.271 0 0 1 .66-1.6 2.246 2.246 0 0 1 1.6-.66 2.222 2.222 0 0 1 1.6.67l7.32 7.35a2.123 2.123 0 0 1 .72.74l.88.87-.69 1.08a2.367 2.367 0 0 1-.51.81l-5.58 8.78A2.257 2.257 0 0 1 43 21.36a2.315 2.315 0 0 1-1.22-.36 2.272 2.272 0 0 1-.69-3.13l3.67-5.78A41.159 41.159 0 0 0 4.53 53.27a41.646 41.646 0 0 0 1.19 9.9 2.263 2.263 0 0 1-1.66 2.74 2.421 2.421 0 0 1-.54.07zM45.66 99A45.828 45.828 0 0 1 6.69 77.07L5.2 82.15a2.271 2.271 0 0 1-2.17 1.63 2.37 2.37 0 0 1-.64-.1 2.262 2.262 0 0 1-1.53-2.81l3.57-12.14 12.6.83a2.268 2.268 0 0 1-.15 4.53c-.05 0-.1-.01-.15-.01l-6.83-.45a41.12 41.12 0 0 0 63.2 10.34 2.205 2.205 0 0 1 1.5-.58 2.26 2.26 0 0 1 1.51 3.95A45.493 45.493 0 0 1 45.67 99h-.01zm32.31-17.92a2.041 2.041 0 0 1-.29-.87l-3.28-9.85a2.219 2.219 0 0 1 .13-1.73 2.248 2.248 0 0 1 1.3-1.14 2.568 2.568 0 0 1 .72-.11 2.267 2.267 0 0 1 2.15 1.55l1.98 5.96a41.22 41.22 0 0 0-24.63-61.48 2.273 2.273 0 0 1-1.62-2.76 2.267 2.267 0 0 1 2.19-1.7 2.224 2.224 0 0 1 .57.07 45.774 45.774 0 0 1 27.4 68.16l5.92-.6a1.77 1.77 0 0 1 .23-.01 2.266 2.266 0 0 1 .22 4.52l-10.53 1.06a1.982 1.982 0 0 1-.53.07h-.09l-1.42.14zm-33.21-5.43l-4.23-.64a2.62 2.62 0 0 1-1.84-1.78c0-.03-.71-2.8-2.44-3.84a4.886 4.886 0 0 0-2.55-.59 9.312 9.312 0 0 0-1.98.22 1.958 1.958 0 0 1-.5.06 2.655 2.655 0 0 1-1.91-.82l-2.55-3.45a2.642 2.642 0 0 1-.04-2.57c.01-.02 1.47-2.48.98-4.44s-2.91-3.45-2.94-3.47a2.609 2.609 0 0 1-1.17-2.25l.64-4.24a2.616 2.616 0 0 1 1.78-1.85c.03 0 2.79-.71 3.84-2.44s.37-4.51.36-4.53a2.613 2.613 0 0 1 .76-2.42l3.45-2.56a2.527 2.527 0 0 1 1.32-.35 2.384 2.384 0 0 1 1.24.32 8.209 8.209 0 0 0 3.58 1.08 3.328 3.328 0 0 0 .86-.1c1.97-.49 3.45-2.93 3.46-2.95A2.647 2.647 0 0 1 47 30.86l.14.01 4.23.64a2.6 2.6 0 0 1 1.84 1.78c.01.03.71 2.8 2.44 3.84a4.886 4.886 0 0 0 2.55.59 9.312 9.312 0 0 0 1.98-.22 2.074 2.074 0 0 1 .5-.06 2.637 2.637 0 0 1 1.91.82l2.56 3.46a2.649 2.649 0 0 1 .04 2.56c-.02.03-1.48 2.48-.99 4.45s2.92 3.45 2.95 3.46a2.624 2.624 0 0 1 1.16 2.25l-.64 4.25a2.6 2.6 0 0 1-1.78 1.84c-.02.01-2.79.71-3.83 2.45s-.37 4.51-.37 4.54a2.578 2.578 0 0 1-.76 2.41l-3.45 2.55a2.582 2.582 0 0 1-2.56.04 8.149 8.149 0 0 0-3.57-1.09 3.992 3.992 0 0 0-.87.1c-1.97.49-3.45 2.93-3.46 2.95a2.644 2.644 0 0 1-2.11 1.18zm-.79-4.7a10.474 10.474 0 0 1 5.42-3.81 7.832 7.832 0 0 1 1.95-.24 11.65 11.65 0 0 1 4.62 1.07l1.08-.8a9.18 9.18 0 0 1 6.37-10.6l.2-1.32a9.186 9.186 0 0 1-2.97-12.01l-.81-1.09a12.962 12.962 0 0 1-1.63.1 9.321 9.321 0 0 1-4.89-1.23 10.511 10.511 0 0 1-4.05-5.24l-1.33-.2a10.5 10.5 0 0 1-5.41 3.81 7.971 7.971 0 0 1-1.96.24 11.65 11.65 0 0 1-4.62-1.07l-1.08.8a9.161 9.161 0 0 1-6.37 10.59l-.2 1.33a9.2 9.2 0 0 1 2.98 12.01l.8 1.08a12.736 12.736 0 0 1 1.63-.1 9.379 9.379 0 0 1 4.88 1.23 10.516 10.516 0 0 1 4.06 5.25zm1.97-8.66a9.03 9.03 0 0 1 .02-18.06 9.021 9.021 0 0 1 7.72 13.69 8.956 8.956 0 0 1-7.74 4.37zm.02-13.53a4.5 4.5 0 0 0-2.32 8.35 4.4 4.4 0 0 0 2.3.65 4.5 4.5 0 0 0 .02-9z" fill="#ff1037" fill-rule="evenodd"/></svg>