<svg width="45" height="62" viewBox="0 0 45 62" fill="none" xmlns="http://www.w3.org/2000/svg">
<path d="M22.6062 53.698H6C3.23858 53.698 1 51.4594 1 48.698V6C1 3.23857 3.23858 1 6 1H38.1584C40.9198 1 43.1584 3.23858 43.1584 6V48.698C43.1584 51.4594 40.9198 53.698 38.1584 53.698H37.8886" stroke="#929FAB" stroke-width="2"/>
<circle cx="30.5108" cy="46.3203" r="7.43167" stroke="#FF1037" stroke-width="2"/>
<path d="M24.1875 50.5361L20.9059 56.22C20.5066 56.9117 21.0393 57.7693 21.8363 57.7179L23.0986 57.6365C23.5015 57.6105 23.8804 57.8293 24.0594 58.1912L24.62 59.3251C24.974 60.0411 25.9831 60.0736 26.3825 59.3819L29.664 53.698" stroke="#FF1037" stroke-width="2"/>
<path d="M35.9873 50.5361L39.2689 56.22C39.6682 56.9117 39.1355 57.7693 38.3385 57.7179L37.0762 57.6365C36.6733 57.6105 36.2944 57.8293 36.1154 58.1912L35.5548 59.3251C35.2008 60.0411 34.1917 60.0736 33.7924 59.3819L30.5108 53.698" stroke="#FF1037" stroke-width="2"/>
<path d="M9.43164 12.5938H27.3489" stroke="#929FAB" stroke-width="2" stroke-linecap="round" stroke-linejoin="round"/>
<path d="M9.43164 21.0254H33.6727" stroke="#929FAB" stroke-width="2" stroke-linecap="round" stroke-linejoin="round"/>
<path d="M9.43164 29.457H24.1871" stroke="#FF1037" stroke-width="2" stroke-linecap="round" stroke-linejoin="round"/>
<path d="M9.43164 44.2124H16.8094" stroke="#929FAB" stroke-width="2" stroke-linecap="round" stroke-linejoin="round"/>
</svg>
