<svg xmlns="http://www.w3.org/2000/svg" width="28" height="35"><path d="M13.26 34.48l-1.43-1a64.679 64.679 0 0 1-7.31-5.63C1.44 24.93 0 22.17 0 19.18V5.09L14 0l14 5.09v14.09c0 2.99-1.44 5.75-4.52 8.67a64.457 64.457 0 0 1-7.36 5.66l-1.38.97L14 35zM2.57 6.88v12.3c0 2.24 1.18 4.41 3.71 6.82a63.742 63.742 0 0 0 6.81 5.23l.26.18.65.45.65-.45.33-.23a61.14 61.14 0 0 0 6.72-5.17c2.55-2.41 3.73-4.58 3.73-6.83V6.88L14 2.72zm4.02 9.76l1.95-1.66 3.19 3.71 7.89-7.63 1.79 1.82-9.84 9.53z" fill="#ff1037" fill-rule="evenodd"/></svg>