<svg xmlns="http://www.w3.org/2000/svg" width="76" height="79"><path fill="none" stroke="#FF0F37" stroke-width="3" stroke-miterlimit="10" d="M71.166 34.429c-1.764 2.789-1.764 7.354 0 10.143l1.334 2.109c1.764 2.789.698 6.069-2.368 7.289l-2.318.922c-3.066 1.22-5.749 4.912-5.962 8.205l-.16 2.492c-.213 3.293-3.003 5.319-6.2 4.504l-2.42-.617c-3.197-.815-7.538.595-9.646 3.134l-1.594 1.92c-2.107 2.539-5.556 2.539-7.664 0l-1.594-1.92c-2.108-2.539-6.448-3.949-9.646-3.134l-2.418.617c-3.198.815-5.988-1.211-6.2-4.504l-.16-2.492c-.212-3.293-2.895-6.985-5.961-8.205l-2.32-.922c-3.066-1.22-4.132-4.5-2.368-7.289l1.334-2.109c1.764-2.789 1.764-7.353 0-10.142L3.5 32.319c-1.764-2.789-.698-6.068 2.368-7.288l2.32-.923c3.066-1.219 5.749-4.911 5.961-8.205l.16-2.491c.212-3.293 3.002-5.32 6.2-4.505l2.418.617c3.198.815 7.538-.595 9.646-3.134l1.594-1.92c2.108-2.54 5.556-2.54 7.664 0l1.594 1.92c2.107 2.54 6.448 3.95 9.646 3.134l2.42-.617c3.197-.815 5.987 1.211 6.2 4.504l.16 2.492c.213 3.293 2.896 6.985 5.962 8.205l2.318.922c3.066 1.22 4.132 4.5 2.368 7.289l-1.333 2.11z"/><path fill="#FF0F37" d="M36.307 57.646v-4.465c-2.846-.045-5.741-.84-7.459-1.945l1.178-2.961c1.718 1.061 4.27 1.9 6.969 1.9 3.533 0 5.889-1.813 5.889-4.332 0-2.432-1.914-3.936-5.545-5.262-5.006-1.768-8.098-3.845-8.098-7.691 0-3.669 2.896-6.454 7.361-7.117v-4.42h3.092v4.288c2.944.088 4.956.796 6.379 1.547l-1.227 2.917c-1.03-.531-3.043-1.547-6.184-1.547-3.778 0-5.201 2.034-5.201 3.846 0 2.254 1.815 3.404 6.085 5.04 5.055 1.856 7.606 4.11 7.606 8.046 0 3.535-2.699 6.807-7.754 7.559v4.598h-3.091z"/></svg>