<svg xmlns="http://www.w3.org/2000/svg" width="66" height="69" viewBox="0 0 66 69"><path fill="#a5b1bc" fill-rule="evenodd" d="M1139.2,3575a1.346,1.346,0,0,1-1.25-.82,1.309,1.309,0,0,1,.3-1.45l7.91-7.8a1.3,1.3,0,0,1,.95-0.39h8.54v-48.36l-17.09-3.89v2.54l11.75,25.12a1.488,1.488,0,0,1,.09.3l0.01,0.06c0.01,0.09.02,0.13,0.02,0.18l-0.01.12a13.208,13.208,0,0,1-26.41.03v-0.13c0-.07.01-0.11,0.01-0.16l0.02-.13a0.943,0.943,0,0,1,.09-0.27l0.02-.06,11.72-25.06v-3.15l-4.89-1.12a1.342,1.342,0,0,1-.84-0.59,1.3,1.3,0,0,1-.17-1,1.338,1.338,0,0,1,1.31-1.03,1.1,1.1,0,0,1,.31.04l24.06,5.48v-6.14a1.345,1.345,0,0,1,2.69,0v6.75l24.67,5.62a1.292,1.292,0,0,1,.84.58,1.331,1.331,0,0,1-1.14,2.04,1.544,1.544,0,0,1-.3-0.04l-4.29-.97v1.34l11.74,25.1a1.39,1.39,0,0,1,.1.31l0.01,0.07a1.277,1.277,0,0,1,.02.17l-0.01.12a13.208,13.208,0,0,1-26.41.03v-0.13a0.488,0.488,0,0,1,.01-0.17l0.01-.11a2.127,2.127,0,0,1,.09-0.27l0.03-.07,11.72-25.05v-1.96l-17.09-3.89v47.75h8.55a1.314,1.314,0,0,1,.95.39l7.91,7.8a1.306,1.306,0,0,1,.29,1.45,1.342,1.342,0,0,1-1.24.82h-35.6Zm3.24-2.66h29.11l-5.22-5.15h-18.67Zm24.03-21.96a10.553,10.553,0,0,0,20.62,0l0.15-.75h-20.93Zm-39.56-7.81a10.551,10.551,0,0,0,20.62,0l0.15-.75h-20.93Zm40.1,4.4h19.53l-9.76-20.87Zm-39.56-7.8h19.53l-9.76-20.88Z" transform="translate(-1124 -3506)"/></svg>
