<svg xmlns="http://www.w3.org/2000/svg" width="90.88" height="90.88"><path d="M45.38 90.89a45.467 45.467 0 1 1 33.48-14.67 45.24 45.24 0 0 1-33.48 14.67zm.12-86.46h-1.68a41.024 41.024 0 0 0 3.35 81.98c.68 0 1.35-.11 2.02-.11l-5.15-33.49v-.11l-1.12-7.28L58.93 6.67A41.857 41.857 0 0 0 45.5 4.43zm7.27 76.38l.79 4.81a37.719 37.719 0 0 0 7.16-2.12zm-.78-5.04l14.44 4.81a37.875 37.875 0 0 0 3.59-2.46l-18.59-6.16zm-1.34-8.74l23.29 7.73c.56-.56 1-1.01 1.56-1.57.34-.33.67-.78 1.01-1.12l-26.42-8.84zm-1.35-8.84l30.12 10.08c.67-1.01 1.23-2.02 1.79-3.03L48.74 54.38zm-1.34-8.74l35.27 11.76c.45-1.01.78-2.13 1.23-3.25L49.75 46.32l-2.02.78zm8.28-5.6l29.34 9.86a32.664 32.664 0 0 0 .56-3.47l-24.75-8.29v-.11zm11.54-4.59l18.58 6.27v-1.79c0-.67-.11-1.23-.11-1.9l-13.43-4.48zM63.07 8.35L49.3 41.73l33.59-13.11a40.02 40.02 0 0 0-9.63-13.32 46.923 46.923 0 0 0-10.19-6.95zm16.24 26.43l6.16 2.13c-.34-1.34-.67-2.69-1.12-4.03z" fill="#ff1037" fill-rule="evenodd"/></svg>