<svg xmlns="http://www.w3.org/2000/svg" width="91" height="67"><circle fill="none" stroke="#FF0F37" stroke-width="3" stroke-miterlimit="10" cx="68.234" cy="44.099" r="20.766"/><path fill="none" stroke="#FF0F37" stroke-width="3" stroke-linejoin="round" stroke-miterlimit="10" d="M47.727 47.375H28.625L11.5 62.875v-15.5h-7c-1.1 0-2-.9-2-2v-40.5c0-1.1.9-2 2-2h66.75c1.1 0 2 .9 2 2v19.07"/><path fill="none" stroke="#FF0F37" stroke-width="3" stroke-linecap="round" stroke-miterlimit="10" d="M14.167 17h45.5M42.833 28.5H14.167"/><path fill="#FF0F37" d="M68.977 55.197v3.463h-1.66v-3.336c-2.266 0-4.105-.457-5.521-1.371v-2.777c.617.543 1.46.998 2.529 1.363 1.068.367 2.066.551 2.991.551v-8.17c-2.34-1.127-3.855-2.168-4.548-3.119-.691-.951-1.037-2.076-1.037-3.375 0-1.543.527-2.875 1.58-3.998 1.054-1.122 2.389-1.794 4.005-2.018v-2.872h1.66v2.809c2.085.063 3.526.361 4.324.894v2.713c-1.085-.852-2.526-1.309-4.324-1.373v8.426c2.213 1.053 3.726 2.072 4.54 3.055.813.984 1.221 2.105 1.221 3.359 0 1.512-.509 2.779-1.524 3.807-1.016 1.024-2.428 1.682-4.236 1.969zm-1.661-13.086v-7.436c-.894.182-1.601.578-2.122 1.189s-.781 1.354-.781 2.225c0 .916.212 1.666.638 2.25.426.587 1.18 1.177 2.265 1.772zm1.661 3.639v7.213c2.053-.447 3.08-1.553 3.08-3.318 0-1.469-1.028-2.768-3.08-3.895z"/></svg>