<svg xmlns="http://www.w3.org/2000/svg" width="46" height="47"><path fill="none" stroke="#F2163A" stroke-width="1.5" stroke-linecap="round" stroke-linejoin="round" stroke-miterlimit="10" d="M12.628 20.25l-.513-1.816c-.155-.55-.733-1-1.283-1H2.586c-.55 0-.873.45-.717 1l5.35 18.939h34.005L36.953 22.25c-.155-.55-.732-1-1.283-1H13.911c-.55 0-1.127-.45-1.283-1z"/><path fill="none" stroke="#F2163A" stroke-width="1.5" stroke-linecap="round" stroke-linejoin="round" stroke-miterlimit="10" d="M28.318 25.559h-14.62l1.916 6.78h14.62zM24.311 27.811h-5.279M26.715 11.333H14.272M26.715 13.167H14.272M24.829 30.137h-5.278M32.998 15.936H14.272l-.137 3.235M40.152 26.305l.81-10.369h-3.29M32.729 19.943l.58-8.61h4.673l-.582 8.61-2.312-1.857z"/><path fill="none" stroke="#F2163A" stroke-width="1.5" stroke-linecap="round" stroke-linejoin="round" stroke-miterlimit="10" d="M37.863 13.098h5.182c.551 0 .952.447.895.995l-2.067 19.539M9.386 15.871v-1.623c0-.55.45-1 1-1h1.372c.55 0 1-.45 1-1v-1.822c0-.55.45-1 1-1H27.27c.551 0 1 .45 1 1v1.672c0 .55.451 1 1 1h3.92"/></svg>