<svg width="16" height="16" viewBox="0 0 16 16" fill="none" xmlns="http://www.w3.org/2000/svg">
<path d="M14.2015 9.86123L13.0182 8.67788L7.69328 3.35324C6.71191 2.37922 5.12779 2.38216 4.15009 3.35986C3.1724 4.33755 3.16946 5.92168 4.14348 6.90304L9.46812 12.2293C9.6859 12.4472 10.0392 12.4472 10.2571 12.2293C10.4748 12.0114 10.4748 11.6582 10.2571 11.4403L4.93242 6.1141C4.38784 5.56953 4.38784 4.68676 4.93242 4.14218C5.477 3.5976 6.35976 3.5976 6.90434 4.14218L12.2306 9.46682L13.4139 10.65C14.3943 11.6308 14.3939 13.2206 13.4133 14.2008C12.4326 15.1811 10.8429 15.1809 9.86253 14.2001L8.87663 13.2138L3.35466 7.69186L2.96013 7.29745C1.58117 5.87538 1.59869 3.60985 2.99933 2.20909C4.40009 0.808449 6.66561 0.790933 8.08769 2.16989L14.0041 8.08639C14.145 8.22725 14.3505 8.28225 14.5429 8.23068C14.7354 8.17912 14.8859 8.02882 14.9374 7.83627C14.989 7.64372 14.9339 7.43844 14.793 7.29745L8.87663 1.38108C7.02377 -0.463335 4.02761 -0.459906 2.17903 1.38879C0.330332 3.23737 0.326902 6.23353 2.17131 8.08639L8.08769 14.0028L9.07506 14.989C10.499 16.3567 12.7556 16.3339 14.1514 14.9376C15.5474 13.5414 15.5696 11.2848 14.2015 9.86123Z" fill="#FF1037"/>
</svg>
