<svg xmlns="http://www.w3.org/2000/svg" width="90" height="72" viewBox="0 0 90 72"><path fill="#a5b1bc" fill-rule="evenodd" d="M762.13,6151a1.208,1.208,0,0,1-.556-0.13l-25.7-12.16L718.4,6137.6a1.3,1.3,0,0,1-1.211-1.15,25.844,25.844,0,0,1-.192-3.14,25.333,25.333,0,0,1,8.225-18.67,1.3,1.3,0,0,1,.876-0.35,1.265,1.265,0,0,1,.5.11l6.684,2.83a1.3,1.3,0,0,1,.695,1.71,1.3,1.3,0,0,1-1.2.81,1.273,1.273,0,0,1-.506-0.11l-5.9-2.5-0.155.16a22.817,22.817,0,0,0-6.616,16.01c0,0.48.016,0.97,0.046,1.46l0.018,0.29,15.092,0.96-0.019-.37c-0.026-.5-0.04-1-0.04-1.49a27.62,27.62,0,0,1,8.958-20.35,1.294,1.294,0,0,1,.876-0.34,1.309,1.309,0,0,1,.438.07l6.77,2.43,0.125-.06a23.234,23.234,0,0,1,10.25-2.43,22.539,22.539,0,0,1,10.556,2.67l0.136,0.07,6.261-2.65a1.266,1.266,0,0,1,.506-0.11,1.342,1.342,0,0,1,.876.34,27.635,27.635,0,0,1,8.963,20.36c0,0.49-.014.99-0.041,1.49l-0.019.37,14.97-.96,0.019-.29c0.031-.48.046-0.97,0.046-1.46a22.82,22.82,0,0,0-6.615-16.01l-0.155-.16-5.9,2.5a1.307,1.307,0,0,1-1.013-2.41l6.683-2.83a1.274,1.274,0,0,1,.507-0.11,1.3,1.3,0,0,1,.875.35,25.343,25.343,0,0,1,8.032,21.81,1.3,1.3,0,0,1-1.209,1.15l-17.35,1.11-25.558,12.16A1.207,1.207,0,0,1,762.13,6151ZM744.7,6116.42a25.12,25.12,0,0,0-7.394,17.74c0,0.73.032,1.47,0.1,2.2l0.017,0.19,24.707,11.69,24.573-11.69,0.016-.19c0.063-.73.1-1.47,0.1-2.2a25.139,25.139,0,0,0-7.351-17.7l-0.155-.15-5.628,2.38-10.687,13.5a1.3,1.3,0,0,1-1.02.49,1.282,1.282,0,0,1-1.025-.5l-10.652-13.67a1.031,1.031,0,0,1-.148-0.24l-0.058-.12-5.24-1.87Zm15.7-.25a20.55,20.55,0,0,0-6.736,1.77l-0.377.17,7.466,9.58v-11.55Zm2.958,11.35,7.437-9.39-0.379-.18a20.114,20.114,0,0,0-6.7-1.78l-0.353-.03v11.38Zm-1.239,18.21a1.31,1.31,0,0,1-1.3-1.31v-0.76a1.3,1.3,0,1,1,2.606,0v0.76A1.31,1.31,0,0,1,762.122,6145.73Zm0-4.31a1.31,1.31,0,0,1-1.3-1.31v-4.53a1.3,1.3,0,1,1,2.606,0v4.53A1.31,1.31,0,0,1,762.122,6141.42Zm22.95-28.81a13.844,13.844,0,0,1-11.588-5.52l-0.217-.29-0.265.25a16.019,16.019,0,0,1-21.991-.1l-0.258-.25-0.221.28a14.886,14.886,0,1,1-2.253-20.84l0.275,0.23,0.2-.3a16.056,16.056,0,0,1,26.571-.06l0.2,0.29,0.272-.22a14.614,14.614,0,0,1,9.275-3.27A14.9,14.9,0,0,1,785.072,6112.61Zm0-27.18a12.149,12.149,0,0,0-8.1,3.08l-0.175.15,0.091,0.22a16.223,16.223,0,0,1-1.721,15.69l-0.131.19,0.124,0.19a11.426,11.426,0,0,0,9.907,5.04A12.28,12.28,0,0,0,785.072,6085.43Zm-46.142,0a12.28,12.28,0,1,0,9.944,19.42l0.135-.19-0.133-.19a16.228,16.228,0,0,1-1.681-15.51l0.089-.22-0.171-.15A12.144,12.144,0,0,0,738.93,6085.43Zm23.131-3.81a13.568,13.568,0,0,0-10.7,21.83,1.547,1.547,0,0,1,.422.51A13.522,13.522,0,1,0,762.061,6081.62Z" transform="translate(-717 -6079)"/></svg>
