<svg xmlns="http://www.w3.org/2000/svg" width="46" height="47"><path fill="none" stroke="#F2163A" stroke-width="1.5" stroke-linecap="round" stroke-linejoin="round" stroke-miterlimit="10" d="M34.719 32V3.878c0-.825-.675-1.5-1.5-1.5H12.882M5.78 9.48v31.717c0 .825.675 1.5 1.5 1.5H30"/><path fill="none" stroke="#F2163A" stroke-width="1.5" stroke-linecap="round" stroke-linejoin="round" stroke-miterlimit="10" d="M5.78 9.48h7.102V2.378z"/><circle fill="none" stroke="#F2163A" stroke-width="1.5" stroke-linecap="round" stroke-linejoin="round" stroke-miterlimit="10" cx="20.64" cy="25.665" r="7.444"/><circle fill="none" stroke="#F2163A" stroke-width="1.5" stroke-linecap="round" stroke-linejoin="round" stroke-miterlimit="10" cx="20.64" cy="25.665" r="10.358"/><path fill="none" stroke="#F2163A" stroke-width="1.4999850000000001" stroke-linecap="round" stroke-linejoin="round" stroke-miterlimit="10" d="M28.852 32.101l1.945 1.945-1.774 1.774-1.945-1.945zM31.442 33.403l1.945 1.945-3.062 3.062-1.945-1.945zM33.387 35.348l1.945 1.945-3.062 3.062-1.945-1.945z"/><path fill="none" stroke="#F2163A" stroke-width="1.4999850000000001" stroke-linecap="round" stroke-linejoin="round" stroke-miterlimit="10" d="M35.331 37.294l3.653 3.653-3.063 3.061-3.652-3.653z"/></svg>