<svg xmlns="http://www.w3.org/2000/svg" width="83" height="91"><path d="M2.437 91A2.438 2.438 0 0 1 0 88.56V2.44a2.438 2.438 0 1 1 4.875 0v1.57h41.642a2.563 2.563 0 0 1 2.437 2.43v7.58h31.624a2.437 2.437 0 0 1 1.9 3.96l-14.81 18.51 14.81 18.5a2.437 2.437 0 0 1-1.9 3.96h-50.09a2.565 2.565 0 0 1-2.438-2.44v-9.58H4.875v41.63A2.439 2.439 0 0 1 2.437 91zm30.488-36.92H75.5L62.646 38.01a2.523 2.523 0 0 1 0-3.05L75.5 18.89H48.954V44.5a2.563 2.563 0 0 1-2.437 2.43H32.925v7.15zM4.875 42.06h39.2V8.88h-39.2v33.18z" fill="#ff1037" fill-rule="evenodd"/></svg>