<svg xmlns="http://www.w3.org/2000/svg" width="84" height="72" viewBox="0 0 84 72"><path fill="#a5b1bc" fill-rule="evenodd" d="M918,6137.85l10.991-39.2,11.1,6.6a1.456,1.456,0,0,1,.694.91,1.23,1.23,0,0,1-.181.96,1.553,1.553,0,0,1-1.3.67,1.632,1.632,0,0,1-.747-0.18l-7.781-4.6-9.435,33.49,16.539,9.92,3.677-31.6a1.436,1.436,0,0,1,1.435-1.28c0.044,0,.089.01,0.133,0.01a1.421,1.421,0,0,1,1.274,1.55l-3.678,31.12,18.049-5.85v-6.8a1.418,1.418,0,0,1,2.836,0v6.89l18.048,5.95-3.678-31.32a1.405,1.405,0,0,1,.322-1.03,1.353,1.353,0,0,1,.952-0.51c0.045,0,.09-0.01.133-0.01a1.433,1.433,0,0,1,1.434,1.27l3.679,31.33,16.16-9.64-9.434-33.49-7.813,4.62a1.479,1.479,0,0,1-.777.22,1.42,1.42,0,0,1-1.222-.71,1.3,1.3,0,0,1-.179-1.07,1.228,1.228,0,0,1,.646-0.8l11.131-6.62,10.993,39.2L981.593,6150l-20.975-6.86a2.038,2.038,0,0,1-.287-0.17l-0.24-.22-0.306.14a2.463,2.463,0,0,0-.283.16,1.709,1.709,0,0,1-.188.12L938.4,6150Zm41.2-11.62c-15.488-15.14-16.692-26.06-16.692-29.05v-1.87a17.686,17.686,0,0,1,35.364,0v1.87c0,2.99-1.2,13.91-16.69,29.05l-0.992.98Zm0.99-45.42a14.69,14.69,0,0,0-14.846,14.5v1.87c0,1.82.7,11.64,14.507,25.68l0.339,0.34,0.339-.34c13.807-14.04,14.506-23.86,14.506-25.68v-1.87A14.689,14.689,0,0,0,960.187,6080.81Zm0.473,23.39a8.892,8.892,0,1,1,9.077-8.89A9,9,0,0,1,960.66,6104.2Zm0-14.97a6.082,6.082,0,1,0,6.24,6.08A6.164,6.164,0,0,0,960.66,6089.23Z" transform="translate(-918 -6078)"/></svg>
