<svg xmlns="http://www.w3.org/2000/svg" width="46" height="47"><path fill="none" stroke="#F2163A" stroke-width="1.5" stroke-linecap="round" stroke-linejoin="round" stroke-miterlimit="10" d="M38.129 3.493H12.064a2.582 2.582 0 0 0-2.582 2.582v28.741M31.258 32.773v10.145L27.08 38.74l-4.185 4.186V32.773"/><path fill="none" stroke="#F2163A" stroke-width="1.5" stroke-linecap="round" stroke-linejoin="round" stroke-miterlimit="10" d="M31.258 37.397h1.707a2.582 2.582 0 0 0 2.582-2.582V6.074a2.582 2.582 0 1 1 5.163 0h-5.163M22.895 34.815H5.063a2.582 2.582 0 0 0 2.582 2.582h15.249M32.965 37.397a2.57 2.57 0 0 1-1.712-.65"/><circle fill="none" stroke="#F2163A" stroke-width="1.5" stroke-linecap="round" stroke-linejoin="round" stroke-miterlimit="10" cx="27.076" cy="29.812" r="2.465"/><path fill="none" stroke="#F2163A" stroke-width="1.5" stroke-linecap="round" stroke-linejoin="round" stroke-miterlimit="10" d="M27.075 25.156l2.404-1.147.89 2.512 2.509.887-1.148 2.404 1.148 2.404-2.509.889-.89 2.509-2.404-1.147-2.402 1.147-.89-2.509-2.509-.889 1.146-2.404-1.146-2.404 2.509-.887.89-2.512zM16.8 12.438h10.513M11.97 16.395h21.016M11.97 18.917h21.016M11.97 23.5h8.37M11.97 26.021h8.37"/></svg>