<svg xmlns="http://www.w3.org/2000/svg" width="82" height="71" viewBox="-26.14 -23.641 82 71"><text transform="translate(-51.388 370.359)"><tspan x="0" y="0" font-family="'ArialMT'" font-size="12">Кредиты</tspan><tspan x="48.164" y="0" font-family="'Myriad-Roman'" font-size="12"> </tspan><tspan x="50.708" y="0" font-family="'ArialMT'" font-size="12">под</tspan><tspan x="70.882" y="0" font-family="'Myriad-Roman'" font-size="12"> </tspan><tspan x="73.426" y="0" font-family="'ArialMT'" font-size="12">залог</tspan><tspan x="103.654" y="0" font-family="'Myriad-Roman'" font-size="12"> </tspan><tspan x="106.198" y="0" font-family="'ArialMT'" font-size="12">НМА</tspan></text><path fill="none" stroke="#FF1037" stroke-width="3" stroke-linecap="round" stroke-linejoin="round" stroke-miterlimit="10" d="M-23.54 4.159h76.988v41.073H-23.54z"/><path fill="#FF1037" d="M14.22 32.377v-1.969c-1.373-.041-2.707-.431-3.486-.861l.615-2.399c.861.472 2.072.902 3.404.902 1.17 0 1.99-.472 1.99-1.271 0-.779-.678-1.271-2.195-1.784-2.193-.738-3.691-1.764-3.691-3.753 0-1.825 1.271-3.24 3.467-3.65v-1.948h2.01v1.805c1.373.041 2.297.349 2.994.677l-.615 2.317c-.514-.246-1.477-.718-2.953-.718-1.334 0-1.764.595-1.764 1.169 0 .656.717 1.107 2.461 1.743 2.461.861 3.424 1.989 3.424 3.855 0 1.825-1.271 3.363-3.65 3.773v2.112H14.22z"/><path fill="none" stroke="#FF1037" stroke-width="3" stroke-linecap="round" stroke-linejoin="round" stroke-miterlimit="10" d="M45.437-1.746l-57.706-19.885-6.629 19.236"/><g fill="none" stroke="#FF1037" stroke-width="3" stroke-linecap="round" stroke-linejoin="round" stroke-miterlimit="10"><path d="M29.323 38.088h8.26l7.34-7.34V18.643l-7.34-7.34h-8.26M.584 11.303h-8.26l-7.339 7.34v12.105l7.339 7.34h8.26"/></g><circle fill="none" stroke="#FF1037" stroke-width="3" stroke-linecap="round" stroke-linejoin="round" stroke-miterlimit="10" cx="14.954" cy="24.695" r="13.307"/></svg>