<svg xmlns="http://www.w3.org/2000/svg" width="93.97" height="94" viewBox="0 0 93.97 94">
  <metadata><?xpacket begin="﻿" id="W5M0MpCehiHzreSzNTczkc9d"?>
<x:xmpmeta xmlns:x="adobe:ns:meta/" x:xmptk="Adobe XMP Core 5.6-c138 79.159824, 2016/09/14-01:09:01        ">
   <rdf:RDF xmlns:rdf="http://www.w3.org/1999/02/22-rdf-syntax-ns#">
      <rdf:Description rdf:about=""/>
   </rdf:RDF>
</x:xmpmeta>
                                                                                                    
                                                                                                    
                                                                                                    
                                                                                                    
                                                                                                    
                                                                                                    
                                                                                                    
                                                                                                    
                                                                                                    
                                                                                                    
                                                                                                    
                                                                                                    
                                                                                                    
                                                                                                    
                                                                                                    
                                                                                                    
                                                                                                    
                                                                                                    
                                                                                                    
                                                                                                    
                           
<?xpacket end="w"?></metadata>
<defs>
    <style>
      .cls-1 {
        fill: #ff1037;
        fill-rule: evenodd;
      }
    </style>
  </defs>
  <path class="cls-1" d="M1231,827a2.31,2.31,0,0,1-1.15-.308l-9.84-5.68h-11.36a2.3,2.3,0,0,1-1.99-1.148l-5.69-9.844-9.84-5.68a2.313,2.313,0,0,1-1.14-1.989V790.989l-5.68-9.841a2.3,2.3,0,0,1,0-2.3l5.68-9.84V757.647a2.311,2.311,0,0,1,1.14-1.989l9.85-5.681,5.68-9.841a2.3,2.3,0,0,1,1.99-1.149h11.36l9.84-5.68a2.307,2.307,0,0,1,2.3,0l9.84,5.68h11.36a2.3,2.3,0,0,1,1.99,1.149l5.68,9.839,9.84,5.683a2.3,2.3,0,0,1,1.15,1.989V769.01l5.68,9.84a2.3,2.3,0,0,1,0,2.3l-5.68,9.838v11.36a2.313,2.313,0,0,1-1.14,1.99l-9.85,5.681-5.68,9.843a2.3,2.3,0,0,1-1.99,1.148h-11.36l-9.84,5.682A2.31,2.31,0,0,1,1231,827Zm-26.35-74.192a2.257,2.257,0,0,1-.84.84l-9.23,5.327v10.651a2.3,2.3,0,0,1-.3,1.148L1188.95,780l5.33,9.225a2.305,2.305,0,0,1,.3,1.149v10.651l9.23,5.324a2.277,2.277,0,0,1,.84.839l5.32,9.227h10.66a2.311,2.311,0,0,1,1.15.309l9.22,5.325,9.23-5.329a2.265,2.265,0,0,1,1.14-.307h10.65l5.33-9.225a2.3,2.3,0,0,1,.84-0.842l9.23-5.324v-10.65a2.235,2.235,0,0,1,.31-1.151l5.32-9.221-5.33-9.225a2.321,2.321,0,0,1-.31-1.149V758.974l-9.22-5.326a2.27,2.27,0,0,1-.84-0.842l-5.33-9.222h-10.65a2.255,2.255,0,0,1-1.14-.307l-9.23-5.326-9.23,5.325a2.246,2.246,0,0,1-1.14.308h-10.66Zm10.97,25.646a9.985,9.985,0,1,1,9.99-9.985A10,10,0,0,1,1215.62,778.453Zm0-15.374a5.39,5.39,0,1,0,5.39,5.389A5.4,5.4,0,0,0,1215.62,763.079Zm30.75,38.436a9.985,9.985,0,1,1,9.99-9.985A10,10,0,0,1,1246.37,801.515Zm0-15.374a5.39,5.39,0,1,0,5.39,5.389A5.4,5.4,0,0,0,1246.37,786.141Zm-26.91,15.374a2.256,2.256,0,0,1-1.17-.328,2.3,2.3,0,0,1-.79-3.152l23.06-38.435a2.284,2.284,0,0,1,1.97-1.117,2.256,2.256,0,0,1,1.18.328,2.3,2.3,0,0,1,.79,3.153L1221.44,800.4A2.291,2.291,0,0,1,1219.46,801.515Z" transform="translate(-1184.03 -733)"/>
</svg>
