<svg xmlns="http://www.w3.org/2000/svg" width="93.625" height="89.12"><path d="M84.972 80.5h-50.66v1.94a6.634 6.634 0 0 1-6.587 6.67H6.582a6.634 6.634 0 0 1-6.586-6.67V69.5a6.664 6.664 0 0 1 4.378-6.26l-.142-4.51a13.186 13.186 0 0 1 4.436-9.88l-.2-24.63a8.731 8.731 0 0 1 8-8.76L74.286.33A9.744 9.744 0 0 1 76.768 0a8.149 8.149 0 0 1 5.871 2.41 9.172 9.172 0 0 1 2.474 6.52l-.023 6.5a8.727 8.727 0 0 1 8.529 8.79V71.7a8.735 8.735 0 0 1-8.647 8.8zM8.89 58.73v4.1h16.653l-.129-4.1a8.263 8.263 0 1 0-16.524 0zM4.654 82.44a1.913 1.913 0 0 0 1.928 1.94h21.14a1.913 1.913 0 0 0 1.928-1.94V69.5a1.911 1.911 0 0 0-1.928-1.93H6.582a1.911 1.911 0 0 0-1.928 1.93v12.94zM79.337 5.76a3.516 3.516 0 0 0-2.569-1.02 5.217 5.217 0 0 0-1.324.18s-22.225 5.79-40.324 10.5h45.312l.022-6.5a4.364 4.364 0 0 0-1.117-3.16zm9.623 35.79l-14.575.16a6.155 6.155 0 0 0-6.185 6.25 6.223 6.223 0 0 0 6.185 6.25H88.96V41.55zm0 17.4H74.385a10.991 10.991 0 0 1 0-21.98H88.96V24.22a4.029 4.029 0 0 0-3.988-4.06h-67.86c-.111 0-.214.03-.322.04-.479.12-.928.24-1.34.34a4.075 4.075 0 0 0-2.324 3.68v22.03a12.776 12.776 0 0 1 4.025-.66 13.05 13.05 0 0 1 12.92 13.14v4.56a6.656 6.656 0 0 1 4.237 6.21v6.45l50.663-.19a4.036 4.036 0 0 0 3.988-4.06V58.95z" fill="#ff1037" fill-rule="evenodd"/></svg>