<svg xmlns="http://www.w3.org/2000/svg" width="88" height="98"><path d="M44 98a11.574 11.574 0 0 1-11.573-11.55 14.41 14.41 0 0 1 .534-3.31l.1-.38-12.786-7.39-.282.29A11.515 11.515 0 1 1 8.945 56.64l.4-.1V41.45l-.4-.09a11.505 11.505 0 1 1 11.048-19.03l.282.3 12.828-7.42-.154-.41a8.932 8.932 0 0 1-.517-3.25A11.437 11.437 0 0 1 44 0a11.573 11.573 0 0 1 11.572 11.55 14.244 14.244 0 0 1-.534 3.3l-.094.38 12.785 7.4.283-.3A11.539 11.539 0 0 1 88 30.2a11.376 11.376 0 0 1-8.939 11.16l-.405.09v15.09l.4.1a11.5 11.5 0 1 1-11.047 19.02l-.282-.29-12.829 7.42.155.41a8.9 8.9 0 0 1 .516 3.25A11.442 11.442 0 0 1 44 98zm.137-18.79a7.1 7.1 0 1 0 7.115 7.1 7.033 7.033 0 0 0-7.115-7.1zm0-4.45a11.657 11.657 0 0 1 8.416 3.67l.282.3 12.846-7.43-.181-.42a8.193 8.193 0 0 1-.507-3.09 11.562 11.562 0 0 1 8.94-11.15l.4-.1V41.45l-.4-.09a11.573 11.573 0 0 1-8.94-11.16 13.28 13.28 0 0 1 .533-3.16l.1-.38-12.786-7.4-.282.3a11.464 11.464 0 0 1-16.832 0l-.282-.3-12.846 7.43.181.43a8.172 8.172 0 0 1 .508 3.08 11.574 11.574 0 0 1-8.941 11.16l-.4.09v15.09l.4.1a11.563 11.563 0 0 1 8.941 11.15 13.314 13.314 0 0 1-.535 3.17l-.094.37 12.786 7.4.282-.3a11.657 11.657 0 0 1 8.411-3.67zm32.291-14.07a7.1 7.1 0 1 0 7.114 7.1 7.209 7.209 0 0 0-7.1-7.1h-.019zm-64.719 0a7.1 7.1 0 1 0 7.115 7.1 7.112 7.112 0 0 0-7.115-7.1zm.138-37.59a7.119 7.119 0 0 0-7.115 7.1 7.218 7.218 0 0 0 7.1 7.11 7.105 7.105 0 1 0 .015-14.21zm64.718-.13a7.1 7.1 0 1 0 0 14.2 7.21 7.21 0 0 0 7.114-7.08 7.115 7.115 0 0 0-7.114-7.12zM44.137 4.58a7.121 7.121 0 0 0-7.115 7.11 7.033 7.033 0 0 0 7.115 7.1 7.105 7.105 0 1 0 0-14.21z" fill="#ff1037" fill-rule="evenodd"/></svg>