<svg xmlns="http://www.w3.org/2000/svg" width="40" height="33"><path d="M10.772 13.76h-7.46a.9.9 0 0 1 0-1.8h7.46a.9.9 0 0 1 0 1.8zm-.258 12.6H3.537a.9.9 0 0 1 0-1.8h6.977a.9.9 0 0 1 .9.9.882.882 0 0 1-.9.9zm-1.093-6.32H.9a.9.9 0 1 1 0-1.8h8.521a.9.9 0 0 1 .9.9.858.858 0 0 1-.9.9zM38.682 8.06a2.971 2.971 0 0 1-.483 1.58 15.517 15.517 0 0 0-4.244-3.71 2.888 2.888 0 0 1 1.9-.71 2.819 2.819 0 0 1 2.827 2.84zm-25.241 0a2.97 2.97 0 0 0 .482 1.58 15.517 15.517 0 0 1 4.244-3.71 2.886 2.886 0 0 0-1.9-.71 2.8 2.8 0 0 0-2.826 2.84zm26.334 8.7A13.79 13.79 0 0 0 28.553 5.51c-1.19-.23-1.254-.45-1.157-1.68l.032-.32h2.251a.843.843 0 0 0 .964-.8 10.429 10.429 0 0 0 0-2 .714.714 0 0 0-.739-.71h-3.795c-1.318 0-2.54 0-3.73.03a.911.911 0 0 0-.9.94v1.25a1.1 1.1 0 0 0 1.318 1.29h2.316l.032.32c.128 1.2.064 1.42-1.094 1.62a1 1 0 0 0-.289.06c-.1.03-.161.03-.257.06A13.845 13.845 0 0 0 26.142 33a13.538 13.538 0 0 0 2.958-.32 13.924 13.924 0 0 0 10.675-15.92zm-5.659 10.41a11.194 11.194 0 0 1-7.91 3.32h-.1a11.345 11.345 0 0 1 .065-22.69h.064a11.106 11.106 0 0 1 7.974 3.35 11.438 11.438 0 0 1 3.248 8.06 11.082 11.082 0 0 1-3.341 7.96zm-6.142-6.58a2.264 2.264 0 0 1-1.8.87 2.15 2.15 0 0 1-1.415-.51 2.316 2.316 0 0 1-.868-1.55 2.342 2.342 0 0 1 .482-1.71 2.11 2.11 0 0 1 .868-.67l.032-4.61a.908.908 0 0 1 .258-.62.872.872 0 0 1 .611-.25.869.869 0 0 1 .868.9l-.032 4.54a2.539 2.539 0 0 1 .578.33 2.269 2.269 0 0 1 .868 1.54 2.205 2.205 0 0 1-.45 1.74z" fill="#ff1037" fill-rule="evenodd"/></svg>