<svg xmlns="http://www.w3.org/2000/svg" width="72" height="72"><path fill="none" stroke="#FF0F37" stroke-width="3" stroke-miterlimit="10" d="M69.288 36.361c0 18.454-14.962 33.42-33.418 33.42-18.457 0-33.419-14.966-33.419-33.42 0-18.458 14.962-33.419 33.419-33.419 18.456 0 33.418 14.962 33.418 33.419z"/><path fill="#FF0F37" d="M34.06 57.868v-5.287c-3.037-.055-6.13-.997-7.959-2.307l1.253-3.514c1.834 1.259 4.562 2.256 7.441 2.256 3.775 0 6.289-2.15 6.289-5.135 0-2.883-2.044-4.663-5.922-6.237-5.341-2.093-8.643-4.559-8.643-9.117 0-4.348 3.089-7.648 7.858-8.435v-5.238h3.304v5.082c3.144.104 5.288.943 6.808 1.833l-1.309 3.458c-1.101-.629-3.247-1.835-6.6-1.835-4.037 0-5.556 2.411-5.556 4.558 0 2.674 1.937 4.036 6.499 5.974 5.396 2.201 8.117 4.873 8.117 9.536 0 4.192-2.879 8.068-8.274 8.961v5.446H34.06z"/></svg>