<svg xmlns="http://www.w3.org/2000/svg" width="91" height="91"><path d="M45.2 91A45.564 45.564 0 0 1 .01 45.2a45.441 45.441 0 0 1 77.83-31.63A44.954 44.954 0 0 1 91 45.8 45.662 45.662 0 0 1 45.5 91h-.3zm.61-85.55A40.285 40.285 0 0 0 5.45 45.29a39.54 39.54 0 0 0 11.43 28.32 40.369 40.369 0 0 0 28.31 11.94h.31a40.05 40.05 0 0 0 .31-80.1zM33.27 69.69a2.584 2.584 0 0 1-2.58-2.57V25.11a2.586 2.586 0 0 1 2.58-2.58h15.9a14.994 14.994 0 0 1 2.79 29.73l-.69.13 11.59 12.54a2.65 2.65 0 0 1-.18 3.64 2.844 2.844 0 0 1-1.77.64 2.534 2.534 0 0 1-1.87-.82l-15.5-16.73a2.385 2.385 0 0 1-.44-2.74 2.691 2.691 0 0 1 2.4-1.51h3.67a9.865 9.865 0 1 0 0-19.73H35.84v39.44a2.582 2.582 0 0 1-2.57 2.57z" fill="#ff1037" fill-rule="evenodd"/></svg>