<svg xmlns="http://www.w3.org/2000/svg" width="62" height="59"><path data-name="Shape 787 copy 2" d="M28.13 5.01c.98 1.952 1.96 3.9 2.94 5.847 1.54 3.084 3.1 6.175 4.65 9.259.35.705.69 1.418 1.06 2.117a3.336 3.336 0 0 0 2.03 1.565c.08.014.15.02.22.034.37.053.76.106 1.13.166q4.89.709 9.78 1.411c2.57.374 5.14.76 7.71 1.112l.14.021c-.5-1.858-.99-3.71-1.48-5.568q-2.355 2.289-4.71 4.582-3.735 3.636-7.46 7.272c-.55.533-1.1 1.06-1.65 1.606a1.207 1.207 0 0 0-.54.692 3.161 3.161 0 0 0-.39 2.125c.13.992.03.293.06.446v.02a2.035 2.035 0 0 0 .04.226c.06.387.13.773.2 1.153q.825 4.835 1.67 9.669c.44 2.558.87 5.122 1.33 7.679.01.041.01.087.02.127q2.46-1.878 4.92-3.763-2.925-1.529-5.84-3.05l-9.23-4.829c-.67-.353-1.33-.7-2.01-1.052a3.565 3.565 0 0 0-3.42.007c-.08.039-.15.08-.23.12-.35.18-.7.359-1.05.546-2.94 1.532-5.87 3.064-8.82 4.595-2.3 1.206-4.63 2.384-6.92 3.61-.04.02-.08.04-.11.059q2.46 1.878 4.92 3.764c.37-2.158.74-4.309 1.12-6.467.59-3.4 1.17-6.786 1.76-10.183.13-.733.25-1.472.38-2.2v-.018a3.576 3.576 0 0 0-.17-2.17 3.13 3.13 0 0 0-.71-1.093l-.18-.18c-.28-.273-.56-.546-.84-.826q-3.54-3.475-7.1-6.953c-1.84-1.8-3.67-3.629-5.54-5.414-.03-.033-.06-.06-.09-.093-.5 1.858-.98 3.709-1.48 5.567q3.27-.469 6.53-.945 5.13-.739 10.26-1.485c.71-.1 1.43-.18 2.14-.314a3.174 3.174 0 0 0 2.15-1.824c.19-.367.38-.739.56-1.105q2.235-4.427 4.48-8.858 1.74-3.436 3.47-6.88a.746.746 0 0 1 .07-.12 3.524 3.524 0 0 0 .33-2.564A3.349 3.349 0 0 0 30.11.129a3.366 3.366 0 0 0-2.01 1.532c-.98 1.951-1.97 3.9-2.95 5.847q-2.34 4.635-4.69 9.277c-.36.713-.72 1.418-1.08 2.131l2-1.532c-2.14.314-4.29.62-6.43.933q-5.085.74-10.17 1.472l-2.32.339a3.366 3.366 0 0 0-1.48.86 3.278 3.278 0 0 0-.87 1.471 3.319 3.319 0 0 0 .87 3.237l4.65 4.556q3.72 3.625 7.42 7.259c.57.552 1.14 1.1 1.7 1.658l-.87-3.237c-.36 2.138-.73 4.269-1.1 6.407q-.885 5.064-1.75 10.13c-.14.778-.27 1.557-.4 2.337a4.074 4.074 0 0 0 0 1.772 3.3 3.3 0 0 0 1.2 1.731 3.414 3.414 0 0 0 3.72.259l5.8-3.023q4.62-2.406 9.24-4.815c.7-.366 1.4-.732 2.11-1.1h-3.39q2.88 1.508 5.78 3.024 4.605 2.406 9.21 4.815l2.1 1.1a3.4 3.4 0 0 0 3.72-.259 3.127 3.127 0 0 0 1.03-1.332 3.5 3.5 0 0 0 .17-2.171L50.21 48.4q-.87-5.064-1.75-10.129c-.13-.779-.26-1.559-.4-2.338-.29 1.079-.57 2.157-.86 3.237q2.34-2.279 4.68-4.562 3.72-3.627 7.45-7.26c.56-.552 1.13-1.1 1.69-1.651a3.292 3.292 0 0 0 0-4.708 3.312 3.312 0 0 0-1.48-.86c-2.14-.306-4.29-.619-6.43-.926l-10.23-1.478c-.78-.113-1.55-.226-2.33-.332l2 1.531q-1.455-2.927-2.93-5.847Q37.28 8.44 34.96 3.8c-.35-.713-.71-1.419-1.07-2.132A3.4 3.4 0 0 0 31.88.136 3.45 3.45 0 0 0 29.3.47a3.4 3.4 0 0 0-1.54 1.991 3.907 3.907 0 0 0 .37 2.549z" fill="#ffffff"/></svg>