<svg xmlns="http://www.w3.org/2000/svg" width="99" height="79"><circle fill="none" stroke="#FF0F37" stroke-width="3" stroke-miterlimit="10" cx="65.818" cy="46.404" r="12.239"/><path fill="none" stroke="#FF0F37" stroke-width="3" stroke-miterlimit="10" d="M96.391 51.148a31.18 31.18 0 0 0 0-9.486l-6.107-.16a24.811 24.811 0 0 0-3.699-8.926l4.201-4.43a31.116 31.116 0 0 0-6.706-6.708l-4.43 4.201a24.807 24.807 0 0 0-8.927-3.7l-.161-6.108a31.296 31.296 0 0 0-9.486-.001l-.161 6.108a24.806 24.806 0 0 0-8.928 3.701l-4.43-4.202a31.147 31.147 0 0 0-6.706 6.705l4.202 4.431a24.799 24.799 0 0 0-3.701 8.927l-6.109.162a31.283 31.283 0 0 0 0 9.486l6.109.16a24.816 24.816 0 0 0 3.701 8.93l-4.202 4.43a31.125 31.125 0 0 0 6.706 6.705l4.43-4.201a24.785 24.785 0 0 0 8.928 3.699l.161 6.109c1.547.238 3.13.361 4.743.361s3.196-.123 4.743-.361l.161-6.109a24.818 24.818 0 0 0 8.926-3.699l4.43 4.201a31.103 31.103 0 0 0 6.707-6.709l-4.201-4.43a24.811 24.811 0 0 0 3.699-8.926l6.107-.16z"/><circle fill="none" stroke="#FF0F37" stroke-width="3" stroke-miterlimit="10" cx="21.115" cy="20.844" r="7.464"/><path fill="none" stroke="#FF0F37" stroke-width="3" stroke-miterlimit="10" d="M39.761 23.737a18.91 18.91 0 0 0 .221-2.894c0-.983-.075-1.949-.221-2.892l-3.725-.099a15.156 15.156 0 0 0-2.256-5.443l2.562-2.702a18.98 18.98 0 0 0-4.09-4.091L29.551 8.18a15.127 15.127 0 0 0-5.444-2.257l-.099-3.726a18.888 18.888 0 0 0-2.893-.221c-.983 0-1.949.075-2.893.221l-.099 3.725a15.147 15.147 0 0 0-5.444 2.258L9.978 5.617a18.994 18.994 0 0 0-4.09 4.089l2.563 2.702a15.125 15.125 0 0 0-2.257 5.445l-3.726.098a18.898 18.898 0 0 0-.221 2.893c0 .984.075 1.949.221 2.894l3.726.098a15.142 15.142 0 0 0 2.257 5.445l-2.563 2.702a19.021 19.021 0 0 0 4.09 4.09l2.702-2.563a15.127 15.127 0 0 0 5.444 2.257l.099 3.726c.943.146 1.909.221 2.893.221.984 0 1.949-.075 2.893-.221l.099-3.726a15.123 15.123 0 0 0 5.443-2.257l2.702 2.563a18.98 18.98 0 0 0 4.09-4.091l-2.562-2.702a15.156 15.156 0 0 0 2.256-5.443l3.724-.1z"/></svg>