<svg xmlns="http://www.w3.org/2000/svg" width="91" height="91"><path d="M53.79 91a10.717 10.717 0 0 1-10.71-10.7V48.291l-1.18.392a10.524 10.524 0 0 0-4.52 2.975.558.558 0 0 1-.09.092 2.534 2.534 0 0 1-3.58-.11 9.83 9.83 0 0 0-.83-.828 10.891 10.891 0 0 0-15.38.844c-.02.021-.05.058-.09.094a2.534 2.534 0 0 1-1.74.687 2.5 2.5 0 0 1-1.84-.8 10.43 10.43 0 0 0-10.8-3.335A2.42 2.42 0 0 1 .02 45.98v-.059l-.01-.059c-.01-.1-.01-.234-.01-.366a45.5 45.5 0 1 1 91 0c0 .034-.01.375-.02.433a2.63 2.63 0 0 1-1.02 1.895 2.488 2.488 0 0 1-1.51.521 2.423 2.423 0 0 1-.5-.051 10.438 10.438 0 0 0-10.82 3.383 1.735 1.735 0 0 1-.21.213 2.415 2.415 0 0 1-3.41-.229 10.632 10.632 0 0 0-.86-.853 10.891 10.891 0 0 0-15.38.844c-.02.023-.06.059-.09.094a2.534 2.534 0 0 1-1.74.687 2.5 2.5 0 0 1-1.84-.8 10.517 10.517 0 0 0-4.5-2.957l-1.18-.392V80.3a5.865 5.865 0 1 0 11.73 0v-4.971a2.42 2.42 0 0 1 4.84 0V80.3A10.714 10.714 0 0 1 53.79 91zm11.59-47.922a15.309 15.309 0 0 1 9.4 3.192l.55.417.54-.416a15.651 15.651 0 0 1 9.27-3.193l.96-.011-.08-.959A40.541 40.541 0 0 0 48.88 4.964c-1.14-.1-2.29-.143-3.43-.143A40.89 40.89 0 0 0 4.97 42.108l-.08.959.97.011a15.651 15.651 0 0 1 9.27 3.193l.53.406.54-.4a15.909 15.909 0 0 1 18.83 0l.53.391.53-.393a15.342 15.342 0 0 1 8.5-3.01l.17-.007.15-.064a1.448 1.448 0 0 1 .59-.12 1.432 1.432 0 0 1 .59.121l.15.063.17.007a15.342 15.342 0 0 1 8.5 3.01l.54.4.54-.411a15.3 15.3 0 0 1 9.39-3.184z" fill="#ff1037" fill-rule="evenodd"/></svg>