<svg xmlns="http://www.w3.org/2000/svg" width="84" height="75" viewBox="-27.14 -25.642 84 75"><g fill="none" stroke="#FF1037" stroke-width="3" stroke-linecap="round" stroke-linejoin="round" stroke-miterlimit="10"><path d="M54.331 18.908L44.103-2.309 26.954 13.839l5.814 1.077c-1.85 9.919-10.426 17.076-20.584 17.076-8.677 0-16.335-5.216-19.511-13.289l-13.959 5.492c5.449 13.849 18.586 22.797 33.47 22.797 17.438 0 32.176-12.298 35.34-29.345l6.807 1.261zM-24.613-8.039l3.026 23.359L-.226 5.395l-5.18-2.854C-.527-6.291 9.867-10.382 19.508-7.183a20.946 20.946 0 0 1 9.781 6.776l11.678-9.44c-4.232-5.261-9.971-9.327-16.736-11.572-16.547-5.491-34.41 1.539-42.78 16.722l-6.064-3.342z"/></g><text transform="translate(-51.388 370.359)"><tspan x="0" y="0" font-family="'ArialMT'" font-size="12">Кредиты</tspan><tspan x="48.164" y="0" font-family="'Myriad-Roman'" font-size="12"> </tspan><tspan x="50.708" y="0" font-family="'ArialMT'" font-size="12">под</tspan><tspan x="70.882" y="0" font-family="'Myriad-Roman'" font-size="12"> </tspan><tspan x="73.426" y="0" font-family="'ArialMT'" font-size="12">залог</tspan><tspan x="103.654" y="0" font-family="'Myriad-Roman'" font-size="12"> </tspan><tspan x="106.198" y="0" font-family="'ArialMT'" font-size="12">НМА</tspan></text></svg>