<svg width="44" height="44" viewBox="0 0 44 44" fill="none" xmlns="http://www.w3.org/2000/svg">
<path d="M37.0964 0H6.9036C5.72513 0 4.76666 0.9592 4.76666 2.13693V41.8631C4.76666 43.0408 5.72513 44 6.9036 44H37.0964C38.2749 44 39.2333 43.0408 39.2333 41.8631V2.13693C39.2333 0.9592 38.2749 0 37.0964 0ZM37.7667 41.8631C37.7667 42.2327 37.466 42.5333 37.0964 42.5333H6.9036C6.534 42.5333 6.23333 42.2327 6.23333 41.8631V2.13693C6.23333 1.76733 6.534 1.46667 6.9036 1.46667H37.0964C37.466 1.46667 37.7667 1.76733 37.7667 2.13693V41.8631Z" fill="white"/>
<path d="M8.43332 40.3333H16.5V32.2667H8.43332V40.3333ZM9.89999 33.7333H15.0333V38.8667H9.89999V33.7333Z" fill="white"/>
<path d="M17.9667 40.3333H26.0333V32.2667H17.9667V40.3333ZM19.4333 33.7333H24.5667V38.8667H19.4333V33.7333Z" fill="white"/>
<path d="M27.5 40.3333H35.5667V22.7333H27.5V40.3333ZM28.9667 24.2H34.1V38.8667H28.9667V24.2Z" fill="white"/>
<path d="M8.43332 30.8H16.5V22.7333H8.43332V30.8ZM9.89999 24.2H15.0333V29.3333H9.89999V24.2Z" fill="white"/>
<path d="M17.9667 30.8H26.0333V22.7333H17.9667V30.8ZM19.4333 24.2H24.5667V29.3333H19.4333V24.2Z" fill="white"/>
<path d="M8.43332 21.2667H16.5V13.2H8.43332V21.2667ZM9.89999 14.6667H15.0333V19.8H9.89999V14.6667Z" fill="white"/>
<path d="M17.9667 21.2667H26.0333V13.2H17.9667V21.2667ZM19.4333 14.6667H24.5667V19.8H19.4333V14.6667Z" fill="white"/>
<path d="M27.5 21.2667H35.5667V13.2H27.5V21.2667ZM28.9667 14.6667H34.1V19.8H28.9667V14.6667Z" fill="white"/>
<path d="M8.43332 11H35.5667V3.66669H8.43332V11ZM9.89999 5.13335H34.1V9.53335H9.89999V5.13335Z" fill="white"/>
</svg>
