<svg xmlns="http://www.w3.org/2000/svg" width="46" height="47"><path fill="none" stroke="#F2163A" stroke-width="1.5" stroke-linecap="round" stroke-linejoin="round" stroke-miterlimit="10" d="M29.613 5.573a18.93 18.93 0 0 0-6.33-1.102c-10.502 0-19.016 8.514-19.016 19.016 0 7.833 4.739 14.555 11.504 17.468M16.282 41.155a18.943 18.943 0 0 0 7.001 1.348c10.501 0 19.016-8.515 19.016-19.016 0-6.533-3.297-12.292-8.314-15.716"/><path fill="none" stroke="#F2163A" stroke-width="1.5" stroke-linecap="round" stroke-linejoin="round" stroke-miterlimit="10" d="M23.898 8.054c-.206-.008-.407-.031-.615-.031-8.541 0-15.464 6.924-15.464 15.464 0 6.383 3.87 11.861 9.39 14.222M18.821 38.291c1.414.426 2.91.66 4.462.66 8.541 0 15.464-6.924 15.464-15.464 0-5.227-2.601-9.838-6.57-12.638"/><path fill="none" stroke="#F2163A" stroke-width="1.5" stroke-linecap="round" stroke-linejoin="round" stroke-miterlimit="10" d="M35.275 5.573H25.182l-9.53 18.412h7.632l-8.197 18.518L36.729 18.09h-8.802z"/></svg>