<svg xmlns="http://www.w3.org/2000/svg" width="90" height="58" viewBox="0 0 90 58"><path fill="#a5b1bc" fill-rule="evenodd" d="M1148.7,6148a4.011,4.011,0,0,1-1.6-.32l-0.71-.29a4.133,4.133,0,0,1-1.93-1.63l-0.16-.25-0.26.14a4.187,4.187,0,0,1-1.96.49,4.236,4.236,0,0,1-1.97-.5l-1.55-.83a4.033,4.033,0,0,1-1.75-1.81l-0.12-.25-0.27.09a3.555,3.555,0,0,1-.56.16,3.808,3.808,0,0,1-.75.07,4.092,4.092,0,0,1-2.39-.76l-1.43-1a4.146,4.146,0,0,1-1.76-3.42v-0.28l-0.28-.04a4.1,4.1,0,0,1-1.92-.73l-1.41-1a4.134,4.134,0,0,1-1-5.75l2.41-3.42-5.84-7.66-0.25.23a4.251,4.251,0,0,1-2.76,1.03,4.181,4.181,0,0,1-2.22-.64l-1.33-.84a4.134,4.134,0,0,1-1.84-2.59,4.034,4.034,0,0,1,.54-3.12l12.97-20.45a4.2,4.2,0,0,1,2.61-1.83,4.9,4.9,0,0,1,.93-0.1,4.147,4.147,0,0,1,2.21.64l1.34,0.84a4.168,4.168,0,0,1,1.77,4.63l-0.07.25,3.36,1.74a1.822,1.822,0,0,0,.5.16l6.5,1.03,0.12-.11a9.325,9.325,0,0,1,4.74-2.39l6.77-1.25a31.818,31.818,0,0,1,12.38.14l7.2,1.5a1.242,1.242,0,0,0,.33.04,1.668,1.668,0,0,0,.62-0.12l2.82-1.13-0.11-.29a4.164,4.164,0,0,1,1.69-4.9l1.34-.84a4.191,4.191,0,0,1,2.22-.65,4.259,4.259,0,0,1,3.53,1.94l12.98,20.44a4.135,4.135,0,0,1-1.3,5.72l-1.34.84a4.245,4.245,0,0,1-2.22.64,4.3,4.3,0,0,1-1.85-.44l-0.2-.1-6.92,6.52,0.09,0.2a4.367,4.367,0,0,1,.3.88,4.077,4.077,0,0,1-.6,3.13l-1.48,2.23a4.147,4.147,0,0,1-3.47,1.87,2.458,2.458,0,0,1-.28-0.02l-0.19-.02-0.17.15-2.24,3.39a4.173,4.173,0,0,1-3.5,1.87h-0.17l-0.21.13c-0.46.67-1.22,1.84-2.27,3.48a4.122,4.122,0,0,1-3.5,1.93,3.933,3.933,0,0,1-1.25-.2l-0.2-.06-1.59,1.85a4.19,4.19,0,0,1-3.16,1.45,4.72,4.72,0,0,1-.64-0.05l-11.74-1.79-0.18.25A4.142,4.142,0,0,1,1148.7,6148Zm2.23-10.28c-0.07,0-.15.01-0.22,0.01a1.645,1.645,0,0,0-1.05.62l-3.19,4.61a1.588,1.588,0,0,0-.06,1.06,1.563,1.563,0,0,0,.94,1.04l0.71,0.29a1.639,1.639,0,0,0,.62.13,1.614,1.614,0,0,0,1.34-.7l2.83-4.03a1.628,1.628,0,0,0-.3-2.18l-0.59-.48A1.606,1.606,0,0,0,1150.93,6137.72Zm-9.53-15.14a4.164,4.164,0,0,1,2.25.66l1.46,0.95a4.09,4.09,0,0,1,1.81,2.66,3.5,3.5,0,0,1,.06,1.05l-0.01.29,0.28,0.04a4.21,4.21,0,0,1,2.04.86l1.35,1.09a4.163,4.163,0,0,1,1.23,4.77l-0.13.32,0.34,0.1a4.23,4.23,0,0,1,1.49.77l0.59,0.48a4.159,4.159,0,0,1,.77,5.57l-1.04,1.48,10.52,1.6a2.105,2.105,0,0,0,.25.02,1.629,1.629,0,0,0,1.23-.57l1.17-1.36-7.97-4.02a1.278,1.278,0,0,1-.63-0.74,1.233,1.233,0,0,1,.07-0.96,1.276,1.276,0,0,1,1.13-.69,1.3,1.3,0,0,1,.58.14l9.87,4.98a1.614,1.614,0,0,0,2.11-.58c0.83-1.3,1.43-2.22,1.87-2.89l0.19-.28-11.87-6.44a1.26,1.26,0,0,1-.51-1.71,1.286,1.286,0,0,1,1.12-.65,1.242,1.242,0,0,1,.6.15l12.62,6.84a1.645,1.645,0,0,0,.78.2,1.62,1.62,0,0,0,1.37-.73l2.09-3.17-14.63-8.7a1.254,1.254,0,0,1-.57-0.78,1.183,1.183,0,0,1,.14-0.95,1.255,1.255,0,0,1,1.09-.62,1.351,1.351,0,0,1,.65.18l15.39,9.16a1.638,1.638,0,0,0,2.2-.5l1.48-2.22a1.629,1.629,0,0,0-.48-2.26l-27.54-17.75a1.653,1.653,0,0,0-1.64-.08l-12.27,6.38a4.244,4.244,0,0,1-1.92.46,4.185,4.185,0,0,1-2.52-.83,4.118,4.118,0,0,1-.79-5.83l4.81-6.23-5.03-.79a4.069,4.069,0,0,1-1.26-.42l-3.46-1.78-11.14,17.56,5.86,7.69,0.25-.34a4.221,4.221,0,0,1,3.34-1.66,4.144,4.144,0,0,1,2.17.62l1.41,0.86a4.414,4.414,0,0,1,1.05.95l0.27,0.33,0.6-.88A4.163,4.163,0,0,1,1141.4,6122.58Zm5.27,8.1a1.942,1.942,0,0,0-.24.02,1.592,1.592,0,0,0-1.08.66l-6.26,9.12a1.561,1.561,0,0,0,.67,2.11l1.55,0.83a1.6,1.6,0,0,0,.77.19,1.646,1.646,0,0,0,1.35-.7l0.91-1.33,0.1-.18a2.247,2.247,0,0,1,.12-0.21l2.95-4.22,0.1-.11,1.76-2.54a1.622,1.622,0,0,0-.32-2.18l-1.36-1.09A1.6,1.6,0,0,0,1146.67,6130.68Zm-5.28-5.58a1.637,1.637,0,0,0-1.36.7l-2.7,3.93-0.05.1c-1.22,1.79-2.87,4.21-4.1,5.98l-0.12.15-0.72,1.04a1.63,1.63,0,0,0,.41,2.25l1.43,1a1.635,1.635,0,0,0,.93.3,1.526,1.526,0,0,0,.3-0.03,1.651,1.651,0,0,0,1.06-.68l0.39-.58,0.09-.17a2.487,2.487,0,0,1,.15-0.28l7.09-10.23a1.6,1.6,0,0,0,.25-1.24,1.626,1.626,0,0,0-.71-1.04l-1.46-.94A1.617,1.617,0,0,0,1141.39,6125.1Zm-8.97-.08a1.61,1.61,0,0,0-1.33.7l-4.09,5.81a1.621,1.621,0,0,0,.39,2.26l1.41,1a1.7,1.7,0,0,0,.95.3,2.635,2.635,0,0,0,.28-0.02,1.608,1.608,0,0,0,.97-0.59l4.2-6.12a1.59,1.59,0,0,0,.23-1.19,1.618,1.618,0,0,0-.74-1.04l-1.41-.87A1.712,1.712,0,0,0,1132.42,6125.02Zm24.9-19.43a4.231,4.231,0,0,1,2.27.66l27.17,17.51,6.96-6.55-11.65-18.36-3.22,1.29a4.154,4.154,0,0,1-2.41.21l-7.2-1.51a29.958,29.958,0,0,0-6.03-.62,30.388,30.388,0,0,0-5.37.49l-6.77,1.25a6.952,6.952,0,0,0-4.22,2.58l-5.77,7.46a1.608,1.608,0,0,0-.33,1.21,1.631,1.631,0,0,0,2.38,1.22l12.26-6.37A4.169,4.169,0,0,1,1157.32,6105.59Zm-27.19-12.37a2.2,2.2,0,0,0-.36.04,1.61,1.61,0,0,0-1.02.72l-12.98,20.44a1.62,1.62,0,0,0,.51,2.24l1.34,0.84a1.575,1.575,0,0,0,.87.25,1.632,1.632,0,0,0,1.38-.75l12.98-20.45a1.625,1.625,0,0,0-.51-2.24l-1.34-.84A1.661,1.661,0,0,0,1130.13,6093.22Zm55.74-.7a1.623,1.623,0,0,0-.87.25l-1.33.84a1.614,1.614,0,0,0-.51,2.24l12.97,20.44a1.658,1.658,0,0,0,1.39.76,1.584,1.584,0,0,0,.87-0.26l1.33-.83a1.625,1.625,0,0,0,.51-2.25l-12.97-20.44a1.648,1.648,0,0,0-1.02-.71A1.553,1.553,0,0,0,1185.87,6092.52Z" transform="translate(-1113 -6090)"/></svg>
