<svg xmlns="http://www.w3.org/2000/svg" width="62" height="68"><path fill="none" stroke="#A0B2BE" stroke-width="2.5" stroke-miterlimit="10" d="M17.158 60.615H6.433c-3.81-3.98-4.445-8.627-4.445-14.764s.635-10.783 4.445-14.764h12.224"/><path fill="none" stroke="#A0B2BE" stroke-width="2.5" stroke-linejoin="round" stroke-miterlimit="10" d="M53.288 62.969H18.657s-4.63-5.386-4.63-16.437v-7.755S28.588 17.34 29.066 16.531c.772-1.306.569-5.577.569-8.098s5.042-3.197 6.593-.628c2.81 4.655 3.551 10.385 1.946 15.596a18.372 18.372 0 0 1-1.94 4.263c-.798 1.276-1.738 2.479-2.72 3.618l24.04-.194c3.849 0 3.427 7.418-1.066 7.971 3.849 0 3.427 7.417-1.066 7.97 3.849.001 3.427 7.417-1.066 7.97 3.847 0 3.425 7.417-1.068 7.97z"/><circle fill="#A0B2BE" cx="9.277" cy="54.708" r="1.894"/></svg>