<svg xmlns="http://www.w3.org/2000/svg" viewBox="0 0 38 46"><style>.st0,.st1{fill:none;stroke:#ff1037;stroke-width:1.9;stroke-miterlimit:10}.st1{stroke-linecap:round;stroke-linejoin:round}</style><g id="Layer_1"><g id="XMLID_30_"><circle id="XMLID_27_" class="st0" cx="19" cy="20.7" r="13.5"/><g id="XMLID_28_"><path id="XMLID_42_" class="st0" d="M1.4 13.1c-.2-1.5.9-3.3 2.3-4L8 7.2c1.4-.6 3.6-1.9 4.9-2.8l3.8-2.7c1.3-.9 3.3-.9 4.6 0l3.8 2.7c1.3.9 3.5 2.2 4.9 2.8l4.3 1.9c1.4.6 2.5 2.4 2.3 4l-.5 4.6c-.2 1.5-.2 4.1 0 5.6l.5 4.6c.2 1.5-.9 3.3-2.3 4L30 33.8c-1.4.6-3.6 1.9-4.9 2.8l-3.8 2.7c-1.3.9-3.3.9-4.6 0l-3.8-2.7c-1.3-.9-3.5-2.2-4.9-2.8l-4.3-1.9c-1.4-.6-2.5-2.4-2.3-4l.6-4.6c.2-1.5.2-4.1 0-5.6l-.6-4.6z"/></g><path id="XMLID_29_" class="st0" d="M11.9 22.1l3.8 3.8 10-10"/><path id="XMLID_32_" class="st1" d="M6.2 33.3L.9 40h6.4l1.4 5.1 5.7-7"/><path id="XMLID_31_" class="st1" d="M31.8 33.3l5.3 6.7h-6.4l-1.4 5.1-5.7-7"/></g></g></svg>