<svg xmlns="http://www.w3.org/2000/svg" width="46" height="47"><circle fill="none" stroke="#F2163A" stroke-width="1.5" stroke-linecap="round" stroke-linejoin="round" stroke-miterlimit="10" cx="23.384" cy="5.898" r="2.366"/><path fill="none" stroke="#F2163A" stroke-width="1.5" stroke-linecap="round" stroke-linejoin="round" stroke-miterlimit="10" d="M24.89 7.88v20.706h-2.796V7.88M21.234 28.586h4.516v11.258h-4.516zM15.047 43.563v-1.86l6.187-1.859h4.516l6.188 1.859v1.86zM22.094 12.935H8.483v-.953l10.995-1.859h2.616M24.89 10.123h2.614l10.997 1.859v.953H24.89"/><g fill="none" stroke="#F2163A" stroke-width="1.5" stroke-linecap="round" stroke-linejoin="round" stroke-miterlimit="10"><path d="M43.711 31.331c0 2.626-3.134 4.754-7 4.754s-7-2.128-7-4.754h14zM43.711 31.331l-7-13.843-7 13.843M36.711 17.488v-4.553M17.273 31.331c0 2.626-3.134 4.754-7 4.754s-7-2.128-7-4.754h14zM17.273 31.331l-7-13.843-7 13.843M10.273 17.488v-4.553"/></g></svg>