<svg xmlns="http://www.w3.org/2000/svg" width="91.626" height="92.075"><path d="M23.834 84.325l.292-7.75 9.75-.287 9.75-.286V21.126l-2.95-1.526c-1.623-.839-3.352-2.243-3.843-3.12-.813-1.452-1.66-1.434-9.55.206-4.761.99-8.657 2.24-8.657 2.78 0 .539 2.753 8.307 6.117 17.262 4.893 13.021 5.989 16.969 5.474 19.713-2.37 12.635-19.89 16.175-27.763 5.61-3.928-5.271-3.514-8.186 3.981-27.992l6.995-18.484 10.577-2.42c10.315-2.36 10.603-2.503 11.67-5.735 2.508-7.6 11.544-9.904 17.09-4.357l2.989 2.987 9.125-2.032c5.018-1.118 10.002-1.9 11.075-1.738 1.534.232 3.411 4.128 8.81 18.284 3.773 9.894 6.86 19.165 6.86 20.602 0 3.132-3.43 8.432-7.323 11.317-3.916 2.9-12.439 2.9-16.354 0-3.933-2.914-7.323-8.195-7.323-11.407 0-1.487 2.65-9.632 5.89-18.102 3.654-9.556 5.457-15.499 4.75-15.66-.627-.145-4.266.53-8.087 1.5-6.491 1.645-7.002 1.978-7.794 5.07-.568 2.22-1.985 3.982-4.303 5.35l-3.456 2.038v54.73l9.75.286 9.75.287.292 7.75.292 7.75H23.542zm39.792-.25v-4h-36v8h36zM21.409 62.514c1.226-.858 2.912-2.883 3.748-4.5l1.52-2.94H3.575l1.52 2.94c2.14 4.138 5.321 6.06 10.03 6.06 2.231 0 5.059-.702 6.284-1.56zm1.29-19.19c-6.95-18.728-7.321-19.557-8.11-18.148-.43.77-2.585 6.124-4.79 11.899A2919.164 2919.164 0 0 1 5.1 49.325c-.63 1.6.22 1.75 9.893 1.75h10.582zm61.083 4.101c1.564-1.498 2.844-3.54 2.844-4.537 0-1.635-1.026-1.813-10.441-1.813-5.743 0-10.696.411-11.007.915-.732 1.185 4.168 7.01 6.866 8.162 3.366 1.437 8.68.202 11.738-2.727zm.97-15.1a1547.845 1547.845 0 0 1-5.117-13.5c-1.801-4.813-3.38-8.75-3.51-8.75-.128 0-1.707 3.937-3.508 8.75-1.8 4.812-4.104 10.887-5.118 13.5l-1.844 4.75h20.942zm-35.067-17.31c2.95-2.95 2.296-7.902-1.31-9.91-2.468-1.374-3.03-1.374-5.5.001-3.793 2.113-4.411 8.041-1.081 10.374 3.064 2.146 5.42 2.007 7.89-.464z" fill="#fe163b"/></svg>