<svg xmlns="http://www.w3.org/2000/svg" width="62" height="74" viewBox="0 0 62 74">
  <metadata><?xpacket begin="﻿" id="W5M0MpCehiHzreSzNTczkc9d"?>
<x:xmpmeta xmlns:x="adobe:ns:meta/" x:xmptk="Adobe XMP Core 5.6-c138 79.159824, 2016/09/14-01:09:01        ">
   <rdf:RDF xmlns:rdf="http://www.w3.org/1999/02/22-rdf-syntax-ns#">
      <rdf:Description rdf:about=""/>
   </rdf:RDF>
</x:xmpmeta>
                                                                                                    
                                                                                                    
                                                                                                    
                                                                                                    
                                                                                                    
                                                                                                    
                                                                                                    
                                                                                                    
                                                                                                    
                                                                                                    
                                                                                                    
                                                                                                    
                                                                                                    
                                                                                                    
                                                                                                    
                                                                                                    
                                                                                                    
                                                                                                    
                                                                                                    
                                                                                                    
                           
<?xpacket end="w"?></metadata>
<defs>
    <style>
      .cls-1 {
        fill: #ff1037;
        fill-rule: evenodd;
      }
    </style>
  </defs>
  <path class="cls-1" d="M1439.04,843.3a2.043,2.043,0,0,0-2.94,0l-11.17,11.111-4.83-4.838a2.2,2.2,0,0,0-2.95,0,2.02,2.02,0,0,0,0,2.873l6.34,6.35a2.08,2.08,0,0,0,1.44.6,2.038,2.038,0,0,0,1.43-.6l12.61-12.623a2.052,2.052,0,0,0,.6-1.437A1.7,1.7,0,0,0,1439.04,843.3Zm23.33,44.067-5.29-5.291a14.857,14.857,0,1,0-12.22,6.425,15.049,15.049,0,0,0,9.36-3.326l5.2,5.215a2.264,2.264,0,0,0,1.51.605,2.387,2.387,0,0,0,1.51-.605A2.215,2.215,0,0,0,1462.37,887.37Zm-28.23-13.757a10.64,10.64,0,1,1,10.64,10.658A10.634,10.634,0,0,1,1434.14,873.613Zm22.72-44.6L1446.67,817.6a1.893,1.893,0,0,0-1.36-.6h-42.42a1.87,1.87,0,0,0-1.89,1.889v64.4a1.871,1.871,0,0,0,1.89,1.89h22.79a1.89,1.89,0,1,0,0-3.779H1404.7V820.7h37.44V831.89a1.87,1.87,0,0,0,1.89,1.889h9.51v21.77a1.885,1.885,0,1,0,3.77,0V830.3A2.062,2.062,0,0,0,1456.86,829.017Zm-10.95-6.652,6.8,7.635h-6.8v-7.635Z" transform="translate(-1401 -817)"/>
</svg>
