<svg xmlns="http://www.w3.org/2000/svg" width="97" height="97" viewBox="0 0 97 97">
  <metadata><?xpacket begin="﻿" id="W5M0MpCehiHzreSzNTczkc9d"?>
<x:xmpmeta xmlns:x="adobe:ns:meta/" x:xmptk="Adobe XMP Core 5.6-c138 79.159824, 2016/09/14-01:09:01        ">
   <rdf:RDF xmlns:rdf="http://www.w3.org/1999/02/22-rdf-syntax-ns#">
      <rdf:Description rdf:about=""/>
   </rdf:RDF>
</x:xmpmeta>
                                                                                                    
                                                                                                    
                                                                                                    
                                                                                                    
                                                                                                    
                                                                                                    
                                                                                                    
                                                                                                    
                                                                                                    
                                                                                                    
                                                                                                    
                                                                                                    
                                                                                                    
                                                                                                    
                                                                                                    
                                                                                                    
                                                                                                    
                                                                                                    
                                                                                                    
                                                                                                    
                           
<?xpacket end="w"?></metadata>
<defs>
    <style>
      .cls-1 {
        fill: #ff1037;
        fill-rule: evenodd;
      }
    </style>
  </defs>
  <path class="cls-1" d="M854.417,777.567a5.549,5.549,0,0,0-.263-3.49,3.656,3.656,0,0,0-4.051-2.3,3.907,3.907,0,0,0-3.331,3.373,5.909,5.909,0,0,0,1.175,4.019,1.333,1.333,0,0,1-1.184.2,2.326,2.326,0,0,1-1.31-1.624c-0.006-.023-0.019-0.042-0.027-0.064-2.811-10.678-10.4-18.644-21.642-22.754a17.288,17.288,0,0,0,4.388-11.5,17.511,17.511,0,0,0-35.022,0,17.26,17.26,0,0,0,3.1,9.886,37.64,37.64,0,0,0-4.13,1.389c-0.114.045-.229,0.086-0.346,0.132a10.562,10.562,0,0,0-12.045-1.5,2.247,2.247,0,0,0-1.2,1.986v6.626a31.768,31.768,0,0,0-9.646,12.594h-3.305a4.466,4.466,0,0,0-3.325,1.229c-1.326,1.351-1.285,3.207-1.245,5,0.007,0.318.015,0.649,0.015,0.989v5.813c0,0.339-.008.671-0.015,0.989-0.039,1.8-.081,3.656,1.245,5.006a4.47,4.47,0,0,0,3.325,1.228h3.305a31.8,31.8,0,0,0,9.646,12.6v8.385a7.25,7.25,0,0,0,7.26,7.223h5.829a7.256,7.256,0,0,0,7.253-6.836,49.383,49.383,0,0,0,17.164-.295A7.246,7.246,0,0,0,823.293,823h5.844a7.249,7.249,0,0,0,7.257-7.223v-9.8c6.454-5.883,10-13.413,10-21.307l-0.008-.219c0-.027,0-0.241-0.008-0.587a5.992,5.992,0,0,0,.789.063,5.88,5.88,0,0,0,3.457-1.138c0.309-.222.6-0.453,0.87-0.686a5.152,5.152,0,0,0,5.873-1.153,2.239,2.239,0,0,0-.055-3.178A2.271,2.271,0,0,0,854.417,777.567Zm-43.758-47.073a12.935,12.935,0,1,1-12.994,12.931A12.981,12.981,0,0,1,810.659,730.494Zm22,72.774a0.154,0.154,0,0,0-.025.027c-0.011.008-.023,0.015-0.031,0.022-1.506,1.386-4.623,3.6-4.652,3.626a2.25,2.25,0,0,0,2.622,3.658c0.053-.038.582-0.413,1.306-0.95v6.123a2.739,2.739,0,0,1-2.742,2.729h-5.844a2.738,2.738,0,0,1-2.738-2.729v-2.727a2.254,2.254,0,0,0-2.828-2.173,44.717,44.717,0,0,1-20.609.379,2.261,2.261,0,0,0-.875-0.008,2.168,2.168,0,0,0-.444-0.214c-1.937-.669-5.368-2.364-5.4-2.381a2.249,2.249,0,1,0-2.011,4.024c0.151,0.075,3.722,1.839,5.931,2.6,0.018,0.006.036,0.008,0.053,0.015v0.484a2.741,2.741,0,0,1-2.747,2.729H785.8a2.74,2.74,0,0,1-2.745-2.729V806.3a2.24,2.24,0,0,0-.892-1.788,27.159,27.159,0,0,1-9.568-12.685,2.257,2.257,0,0,0-2.137-1.524h-4.908a15.046,15.046,0,0,1-.019-1.639c0.008-.352.016-0.717,0.016-1.09v-5.813c0-.373-0.007-0.738-0.016-1.09a15.605,15.605,0,0,1,.017-1.639h4.909a2.258,2.258,0,0,0,2.137-1.522,27.147,27.147,0,0,1,9.568-12.684,2.245,2.245,0,0,0,.892-1.79v-6.227a5.974,5.974,0,0,1,6.353,2.058,2.265,2.265,0,0,0,2.531.709c0.64-.231,1.235-0.457,1.8-0.675a23.7,23.7,0,0,1,6-1.685c0.064-.009.122-0.029,0.182-0.042a17.474,17.474,0,0,0,8.206,3.486,62.493,62.493,0,0,0-8.893,1.144,2.248,2.248,0,1,0,.971,4.389c0.124-.027,12.557-2.687,20.951.229a2.248,2.248,0,1,0,1.487-4.243,32.447,32.447,0,0,0-9.127-1.571,17.468,17.468,0,0,0,6.2-2.29c11.559,3.4,19.231,11.034,21.6,21.492a22.565,22.565,0,0,1,.548,4.595l0.008,0.268C841.875,791.55,838.6,798.155,832.66,803.268Zm-47.6-31.9a3.511,3.511,0,0,0-1.381-.28,4.569,4.569,0,0,0-4.064,2.98c-1,2.373-.178,4.9,1.887,5.76a3.581,3.581,0,0,0,1.351.264,4.572,4.572,0,0,0,4.065-2.978C787.917,774.746,787.1,772.22,785.062,771.371Z" transform="translate(-761 -726)"/>
</svg>
