<svg xmlns="http://www.w3.org/2000/svg" width="77" height="97"><path d="M36.992 95.93l-4.032-2.84c-7.2-5.04-14.652-10.27-20.516-15.86C3.954 69.13 0 61.54 0 53.34V14.08L38.5 0 77 14.08v39.26c0 8.2-3.957 15.8-12.455 23.89-5.99 5.69-13.432 10.91-20.629 15.95l-3.9 2.75L38.5 97zM5.233 17.73v35.61c0 6.67 3.429 13.05 10.792 20.09 5.454 5.16 12.5 10.12 19.321 14.92l.745.53 2.4 1.7 2.424-1.7.946-.67c6.741-4.74 13.712-9.65 19.074-14.76 7.389-7.04 10.831-13.43 10.831-20.11V17.73L38.5 5.56zm13.775 28.53l3.969-3.4 9.058 10.57 22.3-21.7 3.646 3.73L31.7 61.05z" fill="#ff1037" fill-rule="evenodd"/></svg>