<svg xmlns="http://www.w3.org/2000/svg" width="34" height="34"><path d="M14.85 34a14.781 14.781 0 0 0 10.51-4.35.914.914 0 0 0 0-1.29v-.01l-9.59-9.59V5.2a.915.915 0 0 0-.92-.91 14.855 14.855 0 0 0 0 29.71zm-.91-27.85v13a.909.909 0 0 0 .27.64l9.19 9.19a13.029 13.029 0 1 1-9.46-22.83zm19.15 12.08h-11.8a.912.912 0 0 0-.63 1.57l8.87 8.53a.894.894 0 0 0 .63.26h.07a.891.891 0 0 0 .65-.37A14.644 14.644 0 0 0 34 19.15a.915.915 0 0 0-.91-.92zm-3.05 8.04l-6.46-6.21h8.56a12.865 12.865 0 0 1-2.1 6.21zM18.23.91v13.95a.913.913 0 0 0 .91.91h13.95a.913.913 0 0 0 .91-.91A14.875 14.875 0 0 0 19.14 0a.913.913 0 0 0-.91.91zm9.45 4.12l-7.62 7.62v-4.1l5.19-5.2a13.146 13.146 0 0 1 2.43 1.68zm.36 8.91l3.41-3.4a13.186 13.186 0 0 1 .7 3.4h-4.11zm2.62-5.2l-5.21 5.2h-4.1l7.62-7.62a12.561 12.561 0 0 1 1.67 2.42h.02zm-7.2-6.17l-3.4 3.4V1.86a12.8 12.8 0 0 1 3.4.71z" fill="#ff1037" fill-rule="evenodd"/></svg>