<svg xmlns="http://www.w3.org/2000/svg" width="24" height="34" viewBox="0 0 24 34"><path fill="#a5b1bc" stroke="#a5b1bc" stroke-linejoin="round" stroke-width="1" fill-rule="evenodd" d="M1.228,1.405A0.7,0.7,0,0,0,.6,2.114V31.887a0.7,0.7,0,0,0,.691.709H22.715a0.7,0.7,0,0,0,.691-0.709V7.785A0.718,0.718,0,0,0,23.2,7.275L17.672,1.6a0.68,0.68,0,0,0-.486-0.2H1.293A0.593,0.593,0,0,0,1.228,1.405ZM1.984,2.823H16.5V7.785a0.7,0.7,0,0,0,.691.709h4.837V31.178H1.984V2.823Zm15.894,1,3.174,3.256H17.877V3.82ZM4.337,9.557A0.71,0.71,0,0,0,4.4,10.975H12a0.709,0.709,0,0,0,.02-1.418H4.337Zm0,5.1A0.71,0.71,0,0,0,4.4,16.074h15.2a0.709,0.709,0,0,0,.02-1.418H4.4A0.583,0.583,0,0,0,4.337,14.656Zm0,5.1A0.71,0.71,0,0,0,4.4,21.172h15.2a0.709,0.709,0,0,0,.02-1.418H4.337Zm0,5.1A0.71,0.71,0,0,0,4.4,26.271h15.2a0.709,0.709,0,0,0,.02-1.418H4.4A0.583,0.583,0,0,0,4.337,24.854Z"/></svg>