<svg xmlns="http://www.w3.org/2000/svg" width="35" height="30"><path data-name="Shape 783 copy 4" d="M1.823 30A1.828 1.828 0 0 1 0 28.17V6.22a1.828 1.828 0 0 1 1.823-1.83H30.26a1.827 1.827 0 0 1 1.823 1.83v6.22H29.9V6.58H2.187V27.8H29.9v-5.12h2.187v5.49A1.827 1.827 0 0 1 30.264 30H1.823zm21.51-24.88V2.19H2.187v2.93H0V1.83A1.828 1.828 0 0 1 1.823 0H23.7a1.828 1.828 0 0 1 1.823 1.83v3.29h-2.188zm.365 16.83c-2.211 0-4.011-2.13-4.011-4.76s1.8-4.75 4.011-4.75h9.662A1.645 1.645 0 0 1 35 14.08v6.22a1.647 1.647 0 0 1-1.64 1.65H23.7zm0-7.32c-.989 0-1.823 1.17-1.823 2.56s.834 2.56 1.823 2.56h9.114v-5.12H23.7zm.364 3.66V16.1h1.459v2.19h-1.459z" fill="#ff1037" fill-rule="evenodd"/></svg>