<svg xmlns="http://www.w3.org/2000/svg" width="46" height="47"><path fill="#F2163A" d="M25.025 19.576h1.927v2.023h-1.927zM20.029 19.576h1.927v2.023h-1.927zM15.032 19.576h1.927v2.023h-1.927zM10.036 19.576h1.927v2.023h-1.927zM20.029 24.077h1.927V26.1h-1.927zM15.032 24.077h1.927V26.1h-1.927zM10.036 24.077h1.927V26.1h-1.927zM15.032 28.578h1.927v2.023h-1.927zM10.036 28.578h1.927v2.023h-1.927z"/><path fill="none" stroke="#F2163A" stroke-width="1.5" stroke-linecap="round" stroke-linejoin="round" stroke-miterlimit="10" d="M10.54 11.148c0 .825-.616 1.5-1.368 1.5s-1.368-.675-1.368-1.5V8.033c0-.825.616-1.5 1.368-1.5s1.368.675 1.368 1.5v3.115zM29.288 11.148c0 .825-.615 1.5-1.368 1.5s-1.368-.675-1.368-1.5V8.033c0-.825.615-1.5 1.368-1.5s1.368.675 1.368 1.5v3.115z"/><path fill="none" stroke="#F2163A" stroke-width="1.5" stroke-linecap="round" stroke-linejoin="round" stroke-miterlimit="10" d="M19.572 33.409H5.631v-16.64h25.75v4.739h2.253v-9.582c0-.825-.675-1.5-1.5-1.5h-1.21v1.392c0 1.375-1.125 2.5-2.5 2.5h-1.008a2.507 2.507 0 0 1-2.5-2.5v-1.392h-12.74v1.392c0 1.375-1.125 2.5-2.5 2.5H8.667a2.507 2.507 0 0 1-2.5-2.5v-1.392H4.959c-.825 0-1.5.675-1.5 1.5v22.397c0 .825.675 1.5 1.5 1.5h14.613v-2.414z"/><path fill="none" stroke="#F2163A" stroke-width="1.5" stroke-linecap="round" stroke-linejoin="round" stroke-miterlimit="10" d="M25.524 27.168a8.48 8.48 0 0 0-1.515.429v10.266c4.681-1.858 10.465 1.076 16.093-.489v-1.41"/><path fill="none" stroke="#F2163A" stroke-width="1.5" stroke-linecap="round" stroke-linejoin="round" stroke-miterlimit="10" d="M24.01 28.887a8.48 8.48 0 0 0-1.515.429v10.266c4.681-1.858 10.465 1.076 16.093-.489v-1.41"/><path fill="none" stroke="#F2163A" stroke-width="1.5" stroke-linecap="round" stroke-linejoin="round" stroke-miterlimit="10" d="M25.524 25.878c4.681-1.858 10.465 1.076 16.093-.489v10.266c-5.628 1.565-11.412-1.369-16.093.489V25.878z"/><circle fill="none" stroke="#F2163A" stroke-width="1.5" stroke-linecap="round" stroke-linejoin="round" stroke-miterlimit="10" cx="33.982" cy="30.603" r="3.866"/><path fill="#F2163A" d="M33.737 32.336v-1.46c-.455-.13-.789-.326-1.001-.59-.213-.264-.318-.584-.318-.96 0-.381.12-.7.36-.96.24-.259.56-.407.959-.447v-.345h.505v.345c.37.044.663.17.882.378.218.208.357.486.418.834l-.881.115c-.054-.274-.193-.46-.419-.558v1.362c.558.151.938.347 1.14.587s.303.549.303.925c0 .42-.127.774-.381 1.063-.255.288-.608.464-1.062.529v.651h-.505v-.634c-.401-.049-.728-.198-.979-.449s-.411-.605-.48-1.063l.909-.098c.037.186.106.346.209.48a.945.945 0 0 0 .341.295zm0-3.657c-.137.046-.246.125-.327.236s-.122.234-.122.369c0 .123.037.237.111.344a.79.79 0 0 0 .338.256v-1.205zm.505 3.706a.714.714 0 0 0 .426-.242.686.686 0 0 0 .163-.455.617.617 0 0 0-.138-.402c-.092-.112-.242-.198-.451-.259v1.358z"/></svg>