<svg xmlns="http://www.w3.org/2000/svg" width="34" height="27" viewBox="0 0 34 27"><path fill="#a5b1bc" fill-rule="evenodd" d="M484.568,4793a3.51,3.51,0,0,1-3.568-3.44v-15.52a3.519,3.519,0,0,1,3.567-3.45h6.625v-1.55a3.1,3.1,0,0,1,3.147-3.04h7.275a3.1,3.1,0,0,1,3.148,3.03v1.56h6.67a3.519,3.519,0,0,1,3.568,3.45v15.52a3.511,3.511,0,0,1-3.568,3.44H484.568Zm-1.469-3.44a1.449,1.449,0,0,0,1.469,1.42h26.864a1.449,1.449,0,0,0,1.469-1.42v-8.71l-10.859,1.43v0.13a3.106,3.106,0,0,1-3.147,3.04h-1.34a3.105,3.105,0,0,1-3.148-3.04v-0.05l-11.308-1.55v8.75Zm14.456-9.46a1.029,1.029,0,0,0-1.049,1.01v1.3a1.029,1.029,0,0,0,1.049,1.01h1.339a1.029,1.029,0,0,0,1.049-1.01v-1.3a1.029,1.029,0,0,0-1.049-1.01h-1.339Zm-3.035.21a3.161,3.161,0,0,1,3.034-2.24h1.323a3.135,3.135,0,0,1,3.015,2.18l11.009-1.47v-4.74a1.442,1.442,0,0,0-1.469-1.42H484.568a1.442,1.442,0,0,0-1.469,1.42v4.73Zm8.144-9.72v-1.55a1.038,1.038,0,0,0-1.05-1.02H494.34a1.038,1.038,0,0,0-1.05,1.02v1.55h9.374Z" transform="translate(-481 -4766)"/></svg>
