<svg xmlns="http://www.w3.org/2000/svg" width="85.97" height="37.969" viewBox="0 0 85.97 37.969">
  <metadata><?xpacket begin="﻿" id="W5M0MpCehiHzreSzNTczkc9d"?>
<x:xmpmeta xmlns:x="adobe:ns:meta/" x:xmptk="Adobe XMP Core 5.6-c138 79.159824, 2016/09/14-01:09:01        ">
   <rdf:RDF xmlns:rdf="http://www.w3.org/1999/02/22-rdf-syntax-ns#">
      <rdf:Description rdf:about=""/>
   </rdf:RDF>
</x:xmpmeta>
                                                                                                    
                                                                                                    
                                                                                                    
                                                                                                    
                                                                                                    
                                                                                                    
                                                                                                    
                                                                                                    
                                                                                                    
                                                                                                    
                                                                                                    
                                                                                                    
                                                                                                    
                                                                                                    
                                                                                                    
                                                                                                    
                                                                                                    
                                                                                                    
                                                                                                    
                                                                                                    
                           
<?xpacket end="w"?></metadata>
<defs>
    <style>
      .cls-1 {
        fill: #ff022e;
        fill-rule: evenodd;
      }
    </style>
  </defs>
  <path class="cls-1" d="M1456.6,890.311a23.135,23.135,0,0,1-12.72-4.226,66.342,66.342,0,0,1-11.16-9.853l-0.74-.819-0.74.813a66.236,66.236,0,0,1-11.13,9.7,23.143,23.143,0,0,1-12.78,4.3h-1.68a18.826,18.826,0,0,1-16.66-18.9V871.3a18.832,18.832,0,0,1,16.69-18.915c0.42-.025.85-0.037,1.28-0.037a22.2,22.2,0,0,1,13.1,4.241,65.639,65.639,0,0,1,11.17,9.876l0.75,0.83,0.74-.829a65.56,65.56,0,0,1,11.18-9.867,22.136,22.136,0,0,1,13.1-4.251c0.42,0,.85.012,1.27,0.037a18.816,18.816,0,0,1,16.69,18.915v0.034a18.813,18.813,0,0,1-16.66,18.978h-1.7Zm-9.67-8.849a16.9,16.9,0,0,0,10.09,3.365c0.23,0,.45,0,0.68-0.014h0.04l0.05-.006a13.579,13.579,0,0,0,0-26.862l-0.04-.006-0.05,0c-0.22-.009-0.45-0.013-0.67-0.013a16.908,16.908,0,0,0-10.1,3.365,61.389,61.389,0,0,0-10.53,9.448l-0.58.649,0.58,0.648A62.079,62.079,0,0,0,1446.93,881.462Zm-52.35-10.081a13.146,13.146,0,0,0,11.58,13.425l0.05,0.006,0.05,0c0.19,0.006.38,0.009,0.58,0.009a16.879,16.879,0,0,0,10.18-3.431,62.432,62.432,0,0,0,10.53-9.32l0.58-.648-0.57-.653a61.863,61.863,0,0,0-10.55-9.457,17.527,17.527,0,0,0-9.64-3.378h-1.15l-0.06.009A13.264,13.264,0,0,0,1394.58,871.381Z" transform="translate(-1389 -852.344)"/>
</svg>
