<svg xmlns="http://www.w3.org/2000/svg"><defs><style>.cls-1{fill:#ff022e;fill-rule:evenodd}</style><clipPath id="a"><path fill="#fff" d="M0 0h60v60H0z"/></clipPath></defs><symbol id="icon-arrow-up--sm" viewBox="0 0 15.125 9.125"><path fill="#32404d" fill-rule="evenodd" class="cls-1" d="M15.123 7.001l-2.121 2.122-5.44-5.44-5.439 5.44L.002 7.001l7-7 .56.561.561-.561z"/></symbol><symbol id="icon-arrow-up" viewBox="0 0 36 22"><path fill="#0075b8" fill-rule="evenodd" d="M31.72 21.252l3.535-3.536-17-17-3.536 3.536z"/><path data-name="Shape 31 copy" fill="#0075b8" fill-rule="evenodd" d="M4.255 21.252L.719 17.717l17-17 3.535 3.536z"/></symbol><symbol id="icon-banner-clock"><path d="M15 0C6.729 0 0 6.729 0 15s6.729 15 15 15 15-6.729 15-15S23.271 0 15 0zm0 26.808C8.489 26.808 3.191 21.511 3.191 15S8.49 3.192 15 3.192c6.511 0 11.809 5.297 11.809 11.808S21.51 26.808 15 26.808z" fill="#fff"/><path d="M22.818 14.537h-6.741V6.432a1.235 1.235 0 0 0-2.47 0v9.34c0 .682.553 1.235 1.235 1.235h7.976a1.235 1.235 0 0 0 0-2.47z" fill="#fff"/></symbol><symbol id="icon-bonus" viewBox="0 0 38 46"><style>.st0,.st1{fill:none;stroke:#ff1037;stroke-width:1.9;stroke-miterlimit:10}.st1{stroke-linecap:round;stroke-linejoin:round}</style><g id="Layer_1"><g id="XMLID_30_"><circle id="XMLID_27_" class="st0" cx="19" cy="20.7" r="13.5"/><g id="XMLID_28_"><path id="XMLID_42_" class="st0" d="M1.4 13.1c-.2-1.5.9-3.3 2.3-4L8 7.2c1.4-.6 3.6-1.9 4.9-2.8l3.8-2.7c1.3-.9 3.3-.9 4.6 0l3.8 2.7c1.3.9 3.5 2.2 4.9 2.8l4.3 1.9c1.4.6 2.5 2.4 2.3 4l-.5 4.6c-.2 1.5-.2 4.1 0 5.6l.5 4.6c.2 1.5-.9 3.3-2.3 4L30 33.8c-1.4.6-3.6 1.9-4.9 2.8l-3.8 2.7c-1.3.9-3.3.9-4.6 0l-3.8-2.7c-1.3-.9-3.5-2.2-4.9-2.8l-4.3-1.9c-1.4-.6-2.5-2.4-2.3-4l.6-4.6c.2-1.5.2-4.1 0-5.6l-.6-4.6z"/></g><path id="XMLID_29_" class="st0" d="M11.9 22.1l3.8 3.8 10-10"/><path id="XMLID_32_" class="st1" d="M6.2 33.3L.9 40h6.4l1.4 5.1 5.7-7"/><path id="XMLID_31_" class="st1" d="M31.8 33.3l5.3 6.7h-6.4l-1.4 5.1-5.7-7"/></g></g></symbol><symbol id="icon-book--big" viewBox="0 0 54 76"><path fill="#a5b1bc" fill-rule="evenodd" d="M7.73 55.4a7.71 7.71 0 1 0 0 15.42h.04c3.27-.09 11.57.04 16.04 0a1.285 1.285 0 1 0 0-2.57h-.02c-4.39.03-12.59-.1-16.06 0a5.135 5.135 0 1 1 0-10.27c13.42 0 29.04-.03 42.7 0a9.576 9.576 0 0 0 0 10.26c-.85.02-.76.05-7.34.02a1.29 1.29 0 0 0-.05 2.58h.03c8.65.04 8.56-.03 9.63-.03a1.287 1.287 0 0 0 1.3-1.28 1.326 1.326 0 0 0-.33-.87 8.2 8.2 0 0 1 .01-11.1 1.29 1.29 0 0 0-.96-2.15c-14.14-.03-30.85 0-44.99 0v-.01zM9.01.01a9.029 9.029 0 0 0-9 9.01v54.1h2.58V9.02a6.412 6.412 0 0 1 6.42-6.44h39.85a2.561 2.561 0 0 1 2.58 2.58v51.52h2.57V5.16A5.168 5.168 0 0 0 48.86.01H9.01zm16.58 60.53a1.292 1.292 0 0 0 .14 2.58h1.28v11.59a1.283 1.283 0 0 0 2.19.91l4.24-4.24 4.23 4.24a1.289 1.289 0 0 0 2.2-.91V63.12h1.28a1.29 1.29 0 1 0 0-2.58H25.59zm3.99 2.58h7.71v8.48l-2.94-2.95a1.274 1.274 0 0 0-1.82 0l-2.95 2.95v-8.48zM9.01 5.16v47.65h2.57V5.16H9.01z"/></symbol><symbol id="icon-book" viewBox="0 0 38.062 53.97"><path d="M38 40.39a1.125 1.125 0 0 1-.251.53 5.568 5.568 0 0 0-.007 7.45 1.181 1.181 0 0 1 .3.79 1.167 1.167 0 0 1-1.159 1.17l-.537.01c-.4.01-1.055.02-2.867.02l-3.294-.01a1.159 1.159 0 0 1-.84-.36 1.19 1.19 0 0 1-.324-.84 1.178 1.178 0 0 1 1.162-1.16l3.007.01c.988 0 1.4 0 1.667-.01a6.941 6.941 0 0 1-.007-6.68c-3.027-.01-29.21 0-29.21 0a3.335 3.335 0 0 0 0 6.67c.66-.01 1.578-.02 2.622-.02 1.136 0 6.175.03 7.245.03l1.283-.01a1.187 1.187 0 0 1 1.18 1.18 1.174 1.174 0 0 1-1.16 1.18h-1.361c-1.1 0-6.154-.03-7.261-.03-1.014 0-1.894.01-2.513.03a5.659 5.659 0 0 1-5.632-5.42H.015V6.61A6.575 6.575 0 0 1 6.531 0h27.677a3.872 3.872 0 0 1 3.839 3.89v36.5H38zm-2.275-36.5a1.514 1.514 0 0 0-1.517-1.54H6.531a4.233 4.233 0 0 0-4.2 4.26v33.45a5.524 5.524 0 0 1 3.3-1.11h30.087V3.89zM6.263 3.62h2.321v34.05H6.263V3.62zM16.93 43.77a1.131 1.131 0 0 1 1.1-1.2h10.821a1.175 1.175 0 0 1 .017 2.35h-.637v7.88a1.177 1.177 0 0 1-1.169 1.18 1.118 1.118 0 0 1-.814-.35l-2.75-2.79-2.751 2.79a1.118 1.118 0 0 1-.814.35 1.176 1.176 0 0 1-1.167-1.18v-7.88h-.635a1.148 1.148 0 0 1-1.2-1.15zm4.153 6.19l1.59-1.62a1.162 1.162 0 0 1 1.643 0l1.588 1.62v-5.04h-4.821v5.04z"/></symbol><symbol id="icon-briefcase--big" viewBox="0 0 80 65"><path fill="#a5b1bc" fill-rule="evenodd" d="M7.51 65.01A7.511 7.511 0 0 1 0 57.54V18.9a7.511 7.511 0 0 1 7.51-7.47h17.13V6.45a6.5 6.5 0 0 1 6.5-6.46h17.59a6.5 6.5 0 0 1 6.5 6.46v4.98h17.25a7.524 7.524 0 0 1 7.51 7.47v38.64a7.524 7.524 0 0 1-7.51 7.47H7.51zm-4.67-7.47a4.656 4.656 0 0 0 4.67 4.64h64.97a4.663 4.663 0 0 0 4.67-4.64V34.58l-28.5 3.86v1.3a6.5 6.5 0 0 1-6.5 6.46h-3.23a6.5 6.5 0 0 1-6.5-6.46v-1.09L2.84 34.48v23.06zm36.08-24.66a3.649 3.649 0 0 0-3.66 3.63v3.23a3.643 3.643 0 0 0 3.66 3.63h3.23a3.643 3.643 0 0 0 3.66-3.63v-3.23a3.649 3.649 0 0 0-3.66-3.63h-3.23zM7.51 14.26a4.656 4.656 0 0 0-4.67 4.64v12.74l29.63 4.12.01-.1a6.508 6.508 0 0 1 6.44-5.6h3.19a6.449 6.449 0 0 1 6.41 5.44l.02.1 28.61-3.92V18.9a4.663 4.663 0 0 0-4.67-4.64H7.51zM31.14 2.82a3.647 3.647 0 0 0-3.65 3.63v4.98h24.9V6.45a3.649 3.649 0 0 0-3.66-3.63H31.14z"/></symbol><symbol id="icon-briefcase--small" viewBox="0 0 34 27"><path fill="#a5b1bc" fill-rule="evenodd" d="M3.568 27A3.51 3.51 0 0 1 0 23.56V8.04a3.519 3.519 0 0 1 3.567-3.45h6.625V3.04A3.1 3.1 0 0 1 13.339 0h7.275a3.1 3.1 0 0 1 3.148 3.03v1.56h6.67A3.519 3.519 0 0 1 34 8.04v15.52A3.511 3.511 0 0 1 30.432 27H3.568zm-1.469-3.44a1.449 1.449 0 0 0 1.469 1.42h26.864a1.449 1.449 0 0 0 1.469-1.42v-8.71l-10.859 1.43v.13a3.106 3.106 0 0 1-3.147 3.04h-1.34a3.105 3.105 0 0 1-3.148-3.04v-.05L2.099 14.81v8.75zm14.456-9.46a1.029 1.029 0 0 0-1.049 1.01v1.3a1.029 1.029 0 0 0 1.049 1.01h1.339a1.029 1.029 0 0 0 1.049-1.01v-1.3a1.029 1.029 0 0 0-1.049-1.01h-1.339zm-3.035.21a3.161 3.161 0 0 1 3.034-2.24h1.323a3.135 3.135 0 0 1 3.015 2.18l11.009-1.47V8.04a1.442 1.442 0 0 0-1.469-1.42H3.568a1.442 1.442 0 0 0-1.469 1.42v4.73zm8.144-9.72V3.04a1.038 1.038 0 0 0-1.05-1.02H13.34a1.038 1.038 0 0 0-1.05 1.02v1.55h9.374z"/></symbol><symbol id="icon-briefcase" viewBox="-377 258.3 87 79"><path d="M-357.6 337.3c-10.7 0-19.4-8.6-19.4-19.3 0-10 7.5-18.4 17.5-19.3l.6-.1v-21.9c.1-4 3.3-7.3 7.3-7.3h14.8v-3.7c.1-4 3.3-7.3 7.3-7.3h10c4 .1 7.3 3.3 7.3 7.3v3.7h14.8c4 .1 7.3 3.3 7.3 7.3v36.2c-.1 4-3.3 7.3-7.3 7.3h-41l-.1.6c-1.4 9.4-9.5 16.4-19.1 16.5zm0-36.2c-9.3 0-16.8 7.5-16.8 16.8s7.5 16.8 16.8 16.8 16.8-7.5 16.8-16.8-7.5-16.8-16.8-16.8zm1.6-25.8c-.2.4-.3.9-.3 1.4v21.9l.6.1c9.5 1 16.9 8.8 17.4 18.3v.7h40.9c2.6-.1 4.6-2.2 4.7-4.7v-36.2c0-.5-.1-1-.3-1.4l-.5-1.5-10.8 20.6c-.1.2-.3.5-.6.6l-6 3c-.2.1-.4.1-.6.1h-8.7v1.7c0 1.8-1.5 3.3-3.3 3.3h-2c-1.8 0-3.3-1.5-3.3-3.3v-1.7h-8.7c-.2 0-.4 0-.6-.1l-6-3c-.2-.1-.4-.3-.6-.6l-10.8-20.6-.5 1.4zm29.8 25.2h3.4V293h-3.4v7.5zm2.7-10.1c1.8 0 3.3 1.5 3.3 3.3v1.7h8.4l5.4-2.7 10.7-20.5-.9-.2c-.3-.1-.6-.1-.8-.1h-54.2c-.3 0-.6 0-.8.1l-.9.2 10.7 20.5 5.4 2.7h8.4v-1.7c0-1.8 1.5-3.3 3.3-3.3h2zm-6-29.5c-2.5.2-4.6 2.2-4.7 4.7v3.7h19.5v-3.7c-.2-2.5-2.2-4.6-4.7-4.7h-10.1zm-19 67.3c-.4 0-.7-.1-.9-.4l-5.2-5.2-.5.3c-1.3.8-2.9 1.3-4.4 1.3-4.6 0-8.3-3.7-8.3-8.3 0-4.6 3.7-8.3 8.3-8.3s8.3 3.7 8.3 8.3c0 1.6-.4 3.1-1.3 4.4l-.3.5 5.2 5.2c.5.5.6 1.3.1 1.9-.4.2-.7.3-1 .3zm-11.1-18.1c-3.2 0-5.7 2.6-5.7 5.7s2.6 5.7 5.7 5.7c3.2 0 5.7-2.6 5.7-5.7s-2.5-5.7-5.6-5.7h-.1zm11.1 18.1c-.4 0-.7-.1-.9-.4l-5.2-5.2-.5.3c-1.3.8-2.9 1.3-4.4 1.3-4.6 0-8.3-3.7-8.3-8.3 0-4.6 3.7-8.3 8.3-8.3s8.3 3.7 8.3 8.3c0 1.6-.4 3.1-1.3 4.4l-.3.5 5.2 5.2c.5.5.6 1.3.1 1.9-.4.2-.7.3-1 .3zm-11.1-18.1c-3.2 0-5.7 2.6-5.7 5.7s2.6 5.7 5.7 5.7c3.2 0 5.7-2.6 5.7-5.7s-2.5-5.7-5.6-5.7h-.1zm11.1 18.1c-.4 0-.7-.1-.9-.4l-5.2-5.2-.5.3c-1.3.8-2.9 1.3-4.4 1.3-4.6 0-8.3-3.7-8.3-8.3 0-4.6 3.7-8.3 8.3-8.3s8.3 3.7 8.3 8.3c0 1.6-.4 3.1-1.3 4.4l-.3.5 5.2 5.2c.5.5.6 1.3.1 1.9-.4.2-.7.3-1 .3zm-11.1-18.1c-3.2 0-5.7 2.6-5.7 5.7s2.6 5.7 5.7 5.7c3.2 0 5.7-2.6 5.7-5.7s-2.5-5.7-5.6-5.7h-.1z" fill="#a5b1bc"/></symbol><symbol id="icon-building--small" viewBox="0 0 25 37.97"><path fill="#a5b1bc" fill-rule="evenodd" d="M24.931 12.78a.969.969 0 0 1-.926.65h-3.948v16.04h.659a.981.981 0 0 1 .957.74l1.645 6.55a.972.972 0 0 1-.18.84.983.983 0 0 1-.777.38H2.621a.986.986 0 0 1-.778-.38.969.969 0 0 1-.179-.84l1.645-6.55a.978.978 0 0 1 .957-.74h.658V13.43H.976a.965.965 0 0 1-.925-.65.945.945 0 0 1 .283-1.08l11.17-9.53V.99a.987.987 0 1 1 1.974 0v1.18l11.168 9.53a.944.944 0 0 1 .285 1.08zM3.885 36.01H21.1l-1.151-4.58H5.036zm3.013-6.54h11.186V13.43H6.9v16.04zm5.593-25.56l-8.847 7.55h17.693zm0 22.61a.984.984 0 0 1-.987-.98V23.9a.987.987 0 0 1 1.974 0v1.64a.985.985 0 0 1-.987.98zm0-6.55a.984.984 0 0 1-.987-.98v-1.64a.987.987 0 0 1 1.974 0v1.64a.985.985 0 0 1-.987.98z"/></symbol><symbol id="icon-building" viewBox="0 0 42 58"><path fill="#a5b1bc" fill-rule="evenodd" d="M1.166 58a1.068 1.068 0 0 1-1.055-.693 1.04 1.04 0 0 1 .234-1.2L4.1 52.353a1.48 1.48 0 0 1 .822-.306h.754v-25.21h-2.63a3.01 3.01 0 0 1-3.007-3.01 3.093 3.093 0 0 1 1.132-2.4l.052-.043h.023a.26.26 0 0 1 .074-.044l.09-.088 18.2-10.19a1.336 1.336 0 0 1 .34-.13v-9.8a1.127 1.127 0 1 1 2.256 0v.36h.034l.05.03a2.63 2.63 0 0 0 1.222.278 8.316 8.316 0 0 0 1.416-.17l.23-.037a11.546 11.546 0 0 1 1.9-.194 6.372 6.372 0 0 1 2.488.492 1.174 1.174 0 0 1 .68 1.052v4.64a1.133 1.133 0 0 1-.514.9 1.1 1.1 0 0 1-.66.23 1.067 1.067 0 0 1-.4-.08 4.573 4.573 0 0 0-1.677-.308 10.084 10.084 0 0 0-1.683.187c-.225.028-.4.052-.577.077a9.49 9.49 0 0 1-1.316.12 5.612 5.612 0 0 1-1.254-.138v2.358a1.578 1.578 0 0 1 .334.12l18.144 10.222v.028l.133.133a3.01 3.01 0 0 1-1.823 5.4H36.3v25.21h.752a1.113 1.113 0 0 1 .82.306l3.82 3.76a1.112 1.112 0 0 1-.82 1.89H1.166zM38.1 55.81l-1.5-1.51H5.378l-1.5 1.505H38.1zm-4.055-3.762v-26.34a1.157 1.157 0 0 1 1.127-1.128h3.758a.772.772 0 0 0 .752-.752.7.7 0 0 0-.26-.57l-.083-.02L21.6 13.23h-1.282L2.574 23.24a.7.7 0 0 0-.28.59.772.772 0 0 0 .752.752H6.8a1.04 1.04 0 0 1 .837.36.94.94 0 0 1 .16.81v26.234h3.453V28.53a1.157 1.157 0 0 1 1.127-1.13h5.7a1.157 1.157 0 0 1 1.123 1.13v23.454h3.445V28.53a1.157 1.157 0 0 1 1.13-1.13h5.7a1.157 1.157 0 0 1 1.125 1.13v23.517h3.445zm-5.637-.063V29.66h-3.442v22.324h3.445zm-11.337 0V29.66h-3.44v22.324h3.445zM22.12 6.13l.05.032a2.634 2.634 0 0 0 1.223.278 8.336 8.336 0 0 0 1.416-.17c.162-.022.32-.046.484-.07a11.038 11.038 0 0 1 1.69-.166 5.878 5.878 0 0 1 .926.07v-2.32a4.64 4.64 0 0 0-.99-.1 8.61 8.61 0 0 0-1.666.2l-.268.035a11.627 11.627 0 0 1-1.527.128 5.594 5.594 0 0 1-1.374-.164v2.25h.034z"/></symbol><symbol id="icon-city" viewBox="0 0 11 13"><path class="cls-1" d="M1.613 1.61A5.5 5.5 0 0 1 11 5.5a5.386 5.386 0 0 1-1.614 3.87 2.319 2.319 0 0 1-.222.23l-3.228 3.22a.638.638 0 0 1-.888 0L1.569 9.35a5.5 5.5 0 0 1 .044-7.74zm.889.89a4.228 4.228 0 0 0-.03 5.96l3.02 3.02 2.769-2.77c.089-.07.163-.15.237-.22A4.238 4.238 0 0 0 2.5 2.5zm3 1.17A1.825 1.825 0 1 1 3.666 5.5a1.832 1.832 0 0 1 1.841-1.83z"/></symbol><symbol id="icon-clock" viewBox="0 0 32 32"><path fill="#a5b1bc" fill-rule="evenodd" d="M15.963 32a16 16 0 1 1 11.341-4.68A16.076 16.076 0 0 1 15.963 32zm0-29.52a13.548 13.548 0 1 0 9.579 3.95 13.444 13.444 0 0 0-9.579-3.95zm-1.321 16.5a1.232 1.232 0 0 1-1.233-1.23V8.96a1.233 1.233 0 1 1 2.466 0v7.56h5.814a1.23 1.23 0 1 1 0 2.46h-7.047z"/></symbol><symbol id="icon-copyright" viewBox="0 0 52 52"><path fill-rule="evenodd" d="M26 52.009A26 26 0 1 1 52 26a26.037 26.037 0 0 1-26 26.009zm0-49.234a23.231 23.231 0 1 0 23.225 23.231A23.318 23.318 0 0 0 26 2.775zM26 39.1a13.1 13.1 0 1 1 8.566-23.01l-1.95 1.951a10.349 10.349 0 1 0 0 15.923l1.951 1.952a12.979 12.979 0 0 1-8.55 3.183H26z"/></symbol><symbol id="icon-document" viewBox="0 0 30 32"><path fill="#a5b1bc" fill-rule="evenodd" d="M2.97 32A3.04 3.04 0 0 1 0 28.9V3.11A3.049 3.049 0 0 1 2.97 0h24.057a3.049 3.049 0 0 1 2.971 3.11v20.12a5.3 5.3 0 0 1-1.408 3.65l-3.3 3.57a4.694 4.694 0 0 1-3.5 1.55H2.97zm0-29.94a.965.965 0 0 0-.88 1.05v25.82a.989.989 0 0 0 .88 1.05h18.593V25a1.043 1.043 0 0 1 1.064-1.04h5.2l.041-.17a2.166 2.166 0 0 0 .043-.52V3.11a.989.989 0 0 0-.88-1.05H2.97zm20.684 27.1l2.923-3.11h-2.923v3.11zM5.867 8.05a1.045 1.045 0 1 1 0-2.09H24.13A1.019 1.019 0 0 1 25.194 7a1.045 1.045 0 0 1-1.064 1.05H5.867zm0 6.02a1.068 1.068 0 0 1-1.063-1.04 1.045 1.045 0 0 1 1.063-1.05H24.13a1.045 1.045 0 1 1 0 2.09H5.867zm0 5.99a1.045 1.045 0 1 1 0-2.09H24.13a1.045 1.045 0 1 1 0 2.09H5.867z"/></symbol><symbol id="icon-equalizer" viewBox="0 0 16 17"><path fill="#ffa700" fill-rule="evenodd" d="M8.02 17a.7.7 0 0 1-.69-.712V13.1a2.627 2.627 0 0 1 0-5.007V.707a.69.69 0 1 1 1.38 0V8.1a2.632 2.632 0 0 1 0 5.007v3.18a.7.7 0 0 1-.69.713zm0-7.574a1.179 1.179 0 1 0 1.14 1.179 1.16 1.16 0 0 0-1.14-1.183zM2.52 17a.7.7 0 0 1-.69-.712v-7.07a2.627 2.627 0 0 1 0-5.007v-3.5a.69.69 0 1 1 1.38 0v3.5a2.625 2.625 0 0 1 0 5v7.073a.7.7 0 0 1-.69.716zm0-11.464a1.179 1.179 0 1 0 1.14 1.179 1.16 1.16 0 0 0-1.14-1.183zM13.48 17a.7.7 0 0 1-.69-.711V9.215a2.627 2.627 0 0 1 0-5.007v-3.5a.69.69 0 1 1 1.38 0v3.5a2.625 2.625 0 0 1 0 5v7.077a.7.7 0 0 1-.69.715zm0-11.467a1.179 1.179 0 1 0 1.14 1.179 1.16 1.16 0 0 0-1.14-1.18z"/></symbol><symbol id="icon-fb--big" viewBox="0 0 12.97 25"><path fill-rule="evenodd" d="M12.98 7.753H7.99V5.165c0-.975 1.29-.873 1.8-.873s3.19.01 3.19.01V-.012H7.99c-4.78 0-5 3.132-5 5.177v2.588H0v4.314h2.99v12.94h5v-12.94h3.99z"/></symbol><symbol id="icon-fb-gray" viewBox="0 0 16 16"><path d="M12 .003L9.924 0C7.594 0 6.087 1.546 6.087 3.938v1.815H4.001a.326.326 0 0 0-.326.327v2.63c0 .18.146.326.326.326h2.086v6.638c0 .18.146.326.326.326h2.722c.18 0 .326-.146.326-.326V9.036h2.44c.18 0 .326-.146.326-.326V6.08a.327.327 0 0 0-.325-.327h-2.44V4.214c0-.74.176-1.115 1.14-1.115h1.397c.18 0 .326-.147.326-.327V.33A.326.326 0 0 0 12 .003z"/></symbol><symbol id="icon-fb" viewBox="0 0 8 16"><path fill-rule="evenodd" d="M7.99 4.96H4.916V3.31c0-.63.8-.56 1.11-.56H7.99V-.01H4.916C1.978-.01 1.842 2 1.842 3.31v1.65H0v2.76h1.844v8.29h3.074V7.72h2.459z"/></symbol><symbol id="icon-file-red"><path d="M1.046.01A1.166 1.166 0 0 0 .002 1.19v49.62a1.168 1.168 0 0 0 1.152 1.18h35.7a1.167 1.167 0 0 0 1.151-1.18V10.64a1.187 1.187 0 0 0-.341-.85L28.45.34a1.086 1.086 0 0 0-.81-.33H1.04zm1.26 2.36h24.186v8.27a1.167 1.167 0 0 0 1.152 1.18h8.062v37.81h-33.4V2.37zm26.49 1.66l5.29 5.43H28.8V4.03zM6.229 13.59a1.187 1.187 0 0 0 .108 2.37h12.669a1.186 1.186 0 0 0 .033-2.37H6.229zm0 8.5a1.176 1.176 0 0 0-1.1 1.24 1.156 1.156 0 0 0 1.206 1.12h25.338a1.18 1.18 0 0 0 .032-2.36H6.229zm0 8.5a1.182 1.182 0 0 0 .108 2.36h25.338a1.18 1.18 0 0 0 .032-2.36H6.229zm0 8.5a1.182 1.182 0 0 0 .108 2.36h25.338a1.18 1.18 0 0 0 .032-2.36H6.229z" fill="#ff1037" fill-rule="evenodd"/></symbol><symbol id="icon-file" viewBox="0 0 38 52"><path fill-rule="evenodd" d="M1.046.009A1.17 1.17 0 0 0 0 1.19v49.621a1.167 1.167 0 0 0 1.152 1.181h35.7a1.167 1.167 0 0 0 1.152-1.181V10.642a1.2 1.2 0 0 0-.342-.849L28.454.341a1.134 1.134 0 0 0-.81-.332H1.154a1.04 1.04 0 0 0-.108 0zm1.26 2.363h24.186v8.27a1.167 1.167 0 0 0 1.152 1.181h8.062V49.63h-33.4V2.371zM28.8 4.033l5.286 5.427H28.8V4.033zM6.229 13.6a1.183 1.183 0 0 0 .108 2.363h12.669a1.182 1.182 0 0 0 .033-2.363H6.337a.326.326 0 0 0-.108 0zm0 8.5a1.183 1.183 0 0 0 .108 2.363h25.338a1.182 1.182 0 0 0 .032-2.363H6.337a1.024 1.024 0 0 0-.108-.007zm0 8.5a1.183 1.183 0 0 0 .108 2.363h25.338a1.182 1.182 0 0 0 .032-2.363H6.337a.362.362 0 0 0-.108-.009zm0 8.5a1.183 1.183 0 0 0 .108 2.363h25.338a1.182 1.182 0 0 0 .032-2.363H6.337a1.024 1.024 0 0 0-.108-.01z"/></symbol><symbol id="icon-globe" viewBox="0 0 27 35"><path fill="#a5b1bc" fill-rule="evenodd" d="M23.12 19.2A11.188 11.188 0 0 0 13.5 2.365a11 11 0 0 0-6.18 1.89L5.58 2.609A13.288 13.288 0 0 1 13.5 0a13.563 13.563 0 0 1 11.37 20.859zM7.7 35a1.183 1.183 0 0 1 0-2.365h4.62v-5.551l-.17-.017a13.544 13.544 0 0 1-9.66-21.3l.09-.137-1.3-1.232a1.2 1.2 0 0 1-.05-1.672 1.18 1.18 0 0 1 1.67-.05l22.03 20.842a1.186 1.186 0 0 1 .05 1.672 1.168 1.168 0 0 1-.85.372 1.183 1.183 0 0 1-.81-.322l-1.26-1.2-.13.106a13.412 13.412 0 0 1-7.08 2.916l-.18.016v5.552h4.63a1.183 1.183 0 0 1 0 2.365H7.7zM4.18 7.456a11.184 11.184 0 0 0 9.32 17.315 11.016 11.016 0 0 0 6.64-2.226l.18-.139L4.31 7.263z"/></symbol><symbol id="icon-google-plus" viewBox="0 0 17.031 15.97"><path fill-rule="evenodd" d="M16.473 8.29h-2.271v2.37a.9.9 0 0 1-.568.59h-.568a.9.9 0 0 1-.568-.59V8.29h-2.267a.791.791 0 0 1-.482-.59l-.086-.59a.9.9 0 0 1 .568-.59h2.27V4.15a.9.9 0 0 1 .568-.59h.562a.9.9 0 0 1 .568.59v2.37h2.271a.9.9 0 0 1 .567.59v.59a.9.9 0 0 1-.564.59zm-7.3-7c-.327.26-.409.17-.409.17h-.333c-.164 0 0 .09 0 .09s.737.34.737 2.48-2.294 2.56-2.212 3.59 3.524 1.88 2.786 5.21-5.655 3.76-7.95 2.48-2.13-3.16-.9-4.7 3.934-1.54 3.934-1.54a1.938 1.938 0 0 1-.246-.77 3.327 3.327 0 0 1 .082-.68H4.17a3.82 3.82 0 0 1-3.2-3.76C.97.61 4.822.01 4.822.01h5.081a1.244 1.244 0 0 1 .246.34 1.169 1.169 0 0 1-.246.35s-.403.34-.731.59zm-4.589.09a1.681 1.681 0 0 0-1.311 1.88c0 1.71 1.229 3.16 2.212 3.16s1.394-1.37 1.394-2.05-.739-2.99-2.296-2.99zm1.557 8.97a3.828 3.828 0 0 0-.983-.17s-2.869.35-2.869 2.23 2.459 2.05 2.787 2.05a3.1 3.1 0 0 0 2.294-.69 2.237 2.237 0 0 0 .492-1.88 6.974 6.974 0 0 0-1.722-1.54z"/></symbol><symbol id="icon-guarantees"><path d="M18.885 40.533a1.216 1.216 0 0 0 .576.231.879.879 0 0 0 .575-.231c.691-.46 14.514-9.327 14.514-24.066v-3.915a1.234 1.234 0 0 0-1.04-1.152 24.537 24.537 0 0 1-13.243-6.333 1.568 1.568 0 0 0-1.728 0c-3.8 3.915-8.406 5.066-13.242 6.333a1.144 1.144 0 0 0-.806 1.152v3.915c0 14.739 13.818 23.606 14.394 24.066zM6.794 13.473c4.376-1.152 8.867-2.534 12.782-5.988a28.185 28.185 0 0 0 12.664 6.1v2.994c0 11.745-10.131 19.806-12.779 21.648-2.649-1.842-12.782-9.788-12.782-21.648V13.47h.115zm12.091 22.339a1.153 1.153 0 0 0 1.382 0 25.529 25.529 0 0 0 10.248-20.036 1.106 1.106 0 0 0-.806-1.037c-.461-.115-.921-.345-1.267-.46a24.876 24.876 0 0 1-7.945-3.8 1.206 1.206 0 0 0-1.5 0c-2.073 1.612-4.491 2.418-7.255 3.339-.69.23-1.5.461-2.187.691a1.106 1.106 0 0 0-.807 1.036 25.6 25.6 0 0 0 10.137 20.267zm-6.564-19.921a25.455 25.455 0 0 0 7.255-3.224 30.388 30.388 0 0 0 7.945 3.684c.115 0 .346.116.461.116a23.336 23.336 0 0 1-8.406 16.927 23.663 23.663 0 0 1-8.521-17.043c.46-.115.806-.345 1.266-.46zm5.758 12.091a1.045 1.045 0 0 0 .806-.346l7.485-8.06a1.144 1.144 0 0 0-1.728-1.5L18.194 25.1l-2.418-3.57a1.166 1.166 0 0 0-1.958 1.267l3.224 4.721a1.459 1.459 0 0 0 1.037.461zM71.97 63.794h-9.44V1.151A1.087 1.087 0 0 0 61.38 0H1.151A1.088 1.088 0 0 0 0 1.151v63.794C0 71.045 5.3 76 11.745 76H61.38c6.44 0 11.63-4.836 11.74-10.939v-.346a1.228 1.228 0 0 0-1.15-.921zm-60.225 9.9c-5.181 0-9.442-3.915-9.442-8.752V2.3H60.22v61.491H22.339a1.087 1.087 0 0 0-1.151 1.151c0 4.84-4.261 8.758-9.443 8.758zm49.635 0h-42.5a11.152 11.152 0 0 0 4.491-7.6H70.7a9.157 9.157 0 0 1-9.32 7.606zm9.21-60.339a5.4 5.4 0 0 0-5.41 5.412v28.212l4.26 13.473a1.135 1.135 0 0 0 1.15.806 1.386 1.386 0 0 0 1.15-.806L76 46.864v-28.1a5.406 5.406 0 0 0-5.41-5.406zm-3 10.709h6.11v21.3h-6.11v-21.3zm3-8.406a3.1 3.1 0 0 1 3.11 3.109v3.109h-6.11V18.77a3.079 3.079 0 0 1 3-3.109zm0 40.533l-2.65-8.521h5.3zm-32.01-41.8H57a1.152 1.152 0 0 0 0-2.3H38.58a1.152 1.152 0 1 0 0 2.303zm0 8.867H57a1.152 1.152 0 0 0 0-2.3H38.58a1.152 1.152 0 1 0 0 2.303zM57 29.821H33.97a1.152 1.152 0 0 0 0 2.3H57a1.152 1.152 0 0 0 0-2.297zm0 8.867H25.909a1.152 1.152 0 0 0 0 2.3H57a1.152 1.152 0 0 0 0-2.297zm0 8.751H6.333a1.152 1.152 0 0 0 0 2.3H57a1.087 1.087 0 0 0 1.15-1.151A1.153 1.153 0 0 0 57 47.442zm1.15 10.019A1.088 1.088 0 0 0 57 56.306H6.333a1.152 1.152 0 0 0 0 2.3H57a1.087 1.087 0 0 0 1.15-1.145z" fill="#a5b1bc" fill-rule="evenodd"/></symbol><symbol id="icon-hamburger" viewBox="0 0 15 13"><path fill="#fff" fill-rule="evenodd" d="M0 13v-3h15v3H0z"/><path data-name="Shape 525 copy" fill="#fff" fill-rule="evenodd" d="M0 8V5h15v3H0z"/><path data-name="Shape 525 copy 2" fill="#fff" fill-rule="evenodd" d="M0 3V0h15v3H0z"/></symbol><symbol id="icon-handshake" viewBox="0 0 90 58"><path fill="#a5b1bc" fill-rule="evenodd" d="M35.7 58a4.011 4.011 0 0 1-1.6-.32l-.71-.29a4.133 4.133 0 0 1-1.93-1.63l-.16-.25-.26.14a4.187 4.187 0 0 1-1.96.49 4.236 4.236 0 0 1-1.97-.5l-1.55-.83A4.033 4.033 0 0 1 23.81 53l-.12-.25-.27.09a3.555 3.555 0 0 1-.56.16 3.808 3.808 0 0 1-.75.07 4.092 4.092 0 0 1-2.39-.76l-1.43-1a4.146 4.146 0 0 1-1.76-3.42v-.28l-.28-.04a4.1 4.1 0 0 1-1.92-.73l-1.41-1a4.134 4.134 0 0 1-1-5.75l2.41-3.42-5.84-7.66-.25.23a4.251 4.251 0 0 1-2.76 1.03 4.181 4.181 0 0 1-2.22-.64l-1.33-.84A4.134 4.134 0 0 1 .09 26.2a4.034 4.034 0 0 1 .54-3.12L13.6 2.63A4.2 4.2 0 0 1 16.21.8a4.9 4.9 0 0 1 .93-.1 4.147 4.147 0 0 1 2.21.64l1.34.84a4.168 4.168 0 0 1 1.77 4.63l-.07.25 3.36 1.74a1.822 1.822 0 0 0 .5.16l6.5 1.03.12-.11a9.325 9.325 0 0 1 4.74-2.39l6.77-1.25a31.818 31.818 0 0 1 12.38.14l7.2 1.5a1.242 1.242 0 0 0 .33.04 1.668 1.668 0 0 0 .62-.12l2.82-1.13-.11-.29a4.164 4.164 0 0 1 1.69-4.9l1.34-.84a4.191 4.191 0 0 1 2.22-.65 4.259 4.259 0 0 1 3.53 1.94l12.98 20.44a4.135 4.135 0 0 1-1.3 5.72l-1.34.84a4.245 4.245 0 0 1-2.22.64 4.3 4.3 0 0 1-1.85-.44l-.2-.1-6.92 6.52.09.2a4.367 4.367 0 0 1 .3.88 4.077 4.077 0 0 1-.6 3.13l-1.48 2.23a4.147 4.147 0 0 1-3.47 1.87 2.458 2.458 0 0 1-.28-.02l-.19-.02-.17.15-2.24 3.39a4.173 4.173 0 0 1-3.5 1.87h-.17l-.21.13c-.46.67-1.22 1.84-2.27 3.48a4.122 4.122 0 0 1-3.5 1.93 3.933 3.933 0 0 1-1.25-.2l-.2-.06-1.59 1.85a4.19 4.19 0 0 1-3.16 1.45 4.72 4.72 0 0 1-.64-.05l-11.74-1.79-.18.25A4.142 4.142 0 0 1 35.7 58zm2.23-10.28c-.07 0-.15.01-.22.01a1.645 1.645 0 0 0-1.05.62l-3.19 4.61a1.588 1.588 0 0 0-.06 1.06 1.563 1.563 0 0 0 .94 1.04l.71.29a1.639 1.639 0 0 0 .62.13 1.614 1.614 0 0 0 1.34-.7l2.83-4.03a1.628 1.628 0 0 0-.3-2.18l-.59-.48a1.606 1.606 0 0 0-1.03-.37zM28.4 32.58a4.164 4.164 0 0 1 2.25.66l1.46.95a4.09 4.09 0 0 1 1.81 2.66 3.5 3.5 0 0 1 .06 1.05l-.01.29.28.04a4.21 4.21 0 0 1 2.04.86l1.35 1.09a4.163 4.163 0 0 1 1.23 4.77l-.13.32.34.1a4.23 4.23 0 0 1 1.49.77l.59.48a4.159 4.159 0 0 1 .77 5.57l-1.04 1.48 10.52 1.6a2.105 2.105 0 0 0 .25.02 1.629 1.629 0 0 0 1.23-.57l1.17-1.36-7.97-4.02a1.278 1.278 0 0 1-.63-.74 1.233 1.233 0 0 1 .07-.96 1.276 1.276 0 0 1 1.13-.69 1.3 1.3 0 0 1 .58.14l9.87 4.98a1.614 1.614 0 0 0 2.11-.58c.83-1.3 1.43-2.22 1.87-2.89l.19-.28-11.87-6.44a1.26 1.26 0 0 1-.51-1.71 1.286 1.286 0 0 1 1.12-.65 1.242 1.242 0 0 1 .6.15l12.62 6.84a1.645 1.645 0 0 0 .78.2 1.62 1.62 0 0 0 1.37-.73l2.09-3.17-14.63-8.7a1.254 1.254 0 0 1-.57-.78 1.183 1.183 0 0 1 .14-.95 1.255 1.255 0 0 1 1.09-.62 1.351 1.351 0 0 1 .65.18l15.39 9.16a1.638 1.638 0 0 0 2.2-.5l1.48-2.22a1.629 1.629 0 0 0-.48-2.26L45.21 18.37a1.653 1.653 0 0 0-1.64-.08L31.3 24.67a4.244 4.244 0 0 1-1.92.46 4.185 4.185 0 0 1-2.52-.83 4.118 4.118 0 0 1-.79-5.83l4.81-6.23-5.03-.79a4.069 4.069 0 0 1-1.26-.42l-3.46-1.78L9.99 26.81l5.86 7.69.25-.34a4.221 4.221 0 0 1 3.34-1.66 4.144 4.144 0 0 1 2.17.62l1.41.86a4.414 4.414 0 0 1 1.05.95l.27.33.6-.88a4.163 4.163 0 0 1 3.46-1.8zm5.27 8.1a1.942 1.942 0 0 0-.24.02 1.592 1.592 0 0 0-1.08.66l-6.26 9.12a1.561 1.561 0 0 0 .67 2.11l1.55.83a1.6 1.6 0 0 0 .77.19 1.646 1.646 0 0 0 1.35-.7l.91-1.33.1-.18a2.247 2.247 0 0 1 .12-.21l2.95-4.22.1-.11 1.76-2.54a1.622 1.622 0 0 0-.32-2.18l-1.36-1.09a1.6 1.6 0 0 0-1.02-.37zm-5.28-5.58a1.637 1.637 0 0 0-1.36.7l-2.7 3.93-.05.1c-1.22 1.79-2.87 4.21-4.1 5.98l-.12.15-.72 1.04a1.63 1.63 0 0 0 .41 2.25l1.43 1a1.635 1.635 0 0 0 .93.3 1.526 1.526 0 0 0 .3-.03 1.651 1.651 0 0 0 1.06-.68l.39-.58.09-.17a2.487 2.487 0 0 1 .15-.28l7.09-10.23a1.6 1.6 0 0 0 .25-1.24 1.626 1.626 0 0 0-.71-1.04l-1.46-.94a1.617 1.617 0 0 0-.88-.26zm-8.97-.08a1.61 1.61 0 0 0-1.33.7L14 41.53a1.621 1.621 0 0 0 .39 2.26l1.41 1a1.7 1.7 0 0 0 .95.3 2.635 2.635 0 0 0 .28-.02 1.608 1.608 0 0 0 .97-.59l4.2-6.12a1.59 1.59 0 0 0 .23-1.19 1.618 1.618 0 0 0-.74-1.04l-1.41-.87a1.712 1.712 0 0 0-.86-.24zm24.9-19.43a4.231 4.231 0 0 1 2.27.66l27.17 17.51 6.96-6.55L69.07 8.85l-3.22 1.29a4.154 4.154 0 0 1-2.41.21l-7.2-1.51a29.958 29.958 0 0 0-6.03-.62 30.388 30.388 0 0 0-5.37.49l-6.77 1.25a6.952 6.952 0 0 0-4.22 2.58L28.08 20a1.608 1.608 0 0 0-.33 1.21 1.631 1.631 0 0 0 2.38 1.22l12.26-6.37a4.169 4.169 0 0 1 1.93-.47zM17.13 3.22a2.2 2.2 0 0 0-.36.04 1.61 1.61 0 0 0-1.02.72L2.77 24.42a1.62 1.62 0 0 0 .51 2.24l1.34.84a1.575 1.575 0 0 0 .87.25A1.632 1.632 0 0 0 6.87 27L19.85 6.55a1.625 1.625 0 0 0-.51-2.24L18 3.47a1.661 1.661 0 0 0-.87-.25zm55.74-.7a1.623 1.623 0 0 0-.87.25l-1.33.84a1.614 1.614 0 0 0-.51 2.24l12.97 20.44a1.658 1.658 0 0 0 1.39.76 1.584 1.584 0 0 0 .87-.26l1.33-.83a1.625 1.625 0 0 0 .51-2.25L74.26 3.27a1.648 1.648 0 0 0-1.02-.71 1.553 1.553 0 0 0-.37-.04z"/></symbol><symbol id="icon-info--red" viewBox="0 0 76 76"><path fill="#ff1037" fill-rule="evenodd" d="M36.82 20.98v22.44h2.93V20.98h-2.93zm0 32.79v2.88h2.93v-2.88h-2.93zM37.99.01a38 38 0 1 0 0 75.99h1.82v.02a37.989 37.989 0 0 0 36.17-37.96A38.049 38.049 0 0 0 37.99.01zm-.01 73.12a35.075 35.075 0 1 1 .01 0h-.01z"/></symbol><symbol id="icon-info" viewBox="0 0 76 76"><path fill="#a5b1bc" fill-rule="evenodd" d="M36.82 55.05V32.6h2.93v22.45h-2.93zm0-32.8v-2.87h2.93v2.87h-2.93zm1.17 53.76a37.99 37.99 0 1 1 0-75.98h1.82V.01a37.989 37.989 0 0 1 36.17 37.96 38.041 38.041 0 0 1-37.99 38.04zM37.98 2.9a35.075 35.075 0 1 0 .01 0h-.01z"/></symbol><symbol id="icon-laurel"><path data-name="Forma 1" d="M127.138 27.58a.181.181 0 0 0-.142-.03 1.218 1.218 0 0 1-.152.05l-.023.01a2.531 2.531 0 0 0-.318.1 7.815 7.815 0 0 0-3.8 3.33 6.576 6.576 0 0 0-.578 1.22 18.717 18.717 0 0 0 .344-3.47v-.19a2.22 2.22 0 0 1 .038-.51 2.78 2.78 0 0 1 .23-.54l.071-.14a.069.069 0 0 1 .04-.02 2.342 2.342 0 0 0 1.221-.6 3.939 3.939 0 0 0 .912-1.21 12.3 12.3 0 0 0 1.239-5.56 4.886 4.886 0 0 0-.047-.58 8.883 8.883 0 0 1-.032-.28.168.168 0 0 0-.085-.13.156.156 0 0 0-.148.01.4.4 0 0 1-.074.04c-.043.03-.075.05-.106.07a8.172 8.172 0 0 0-1.863 1.91 8.391 8.391 0 0 0-1.491 4.14l-.041-.51v-.06c-.053-.67-.107-1.36-.151-2.04a4.316 4.316 0 0 0-.076-.5 1.847 1.847 0 0 1-.026-.91c.021-.07.039-.14.056-.21a1.94 1.94 0 0 1 .576-.73l.012-.01a3.919 3.919 0 0 0 1.075-1.79 9.956 9.956 0 0 0 .306-3.19v-.02a10.17 10.17 0 0 0-.412-2.91 4.566 4.566 0 0 0-.116-.32c-.021-.06-.044-.11-.067-.18a.132.132 0 0 0-.117-.09l-.026-.01a.143.143 0 0 0-.118.06l-.252.31a7.807 7.807 0 0 0-1.765 5.2 10.251 10.251 0 0 0 .078 1.07 30.654 30.654 0 0 0-1.077-3.13.173.173 0 0 1-.015-.07v-.13c0-.2-.009-.41 0-.61a.324.324 0 0 1 .067-.15c.064-.09.134-.17.207-.26a3.144 3.144 0 0 0 .353-.46 3.971 3.971 0 0 0 .482-2.06 12.562 12.562 0 0 0-.481-3.32 8.667 8.667 0 0 0-.966-2.4l-.115-.16a.489.489 0 0 1-.057-.07.149.149 0 0 0-.134-.06.139.139 0 0 0-.123.08 7.932 7.932 0 0 0-.975 3.82 10.444 10.444 0 0 0 .393 2.97 30.6 30.6 0 0 0-1.908-3.07l-.016-.02c-.016-.02-.022-.03-.021-.02-.044-.32-.074-.57-.1-.79a.243.243 0 0 1 .037-.08c.046-.08.1-.16.149-.24a2.571 2.571 0 0 0 .289-.52 3.981 3.981 0 0 0 .146-2 8.994 8.994 0 0 0-2.26-4.68 5.32 5.32 0 0 0-.428-.42l-.042-.03a2.221 2.221 0 0 0-.183-.17.141.141 0 0 0-.15-.04.164.164 0 0 0-.1.11l-.028.13c-.019.08-.034.14-.044.21a10.4 10.4 0 0 0 .038 3.37 8.194 8.194 0 0 0 1.179 3.22 24.862 24.862 0 0 0-2.671-2.76.047.047 0 0 1-.01-.02 2.6 2.6 0 0 0-.462-1.78 4.614 4.614 0 0 0-2.069-1.73c-.521-.23-1.062-.44-1.591-.63-.254-.1-.507-.2-.769-.3a.453.453 0 0 0-.435-.06.2.2 0 0 0-.026.25l.012.04a7.352 7.352 0 0 0 1.3 2.63 4.77 4.77 0 0 0 3.634 1.96.142.142 0 0 1 .105.03 6.068 6.068 0 0 1 .48.39c.413.38.821.79 1.22 1.22a3.636 3.636 0 0 0-2.134-.5 11.378 11.378 0 0 0-1.318.16h-.016c-.127.02-.253.03-.379.05-.275.04-.553.09-.8.13a.645.645 0 0 0-.391.19.145.145 0 0 0 0 .13c.019.03.039.06.062.09a5.216 5.216 0 0 0 2.469 1.87 3.947 3.947 0 0 0 3.188-.1 1.09 1.09 0 0 1 .526-.12 1.375 1.375 0 0 1 .305.03.351.351 0 0 1 .15.06 27.931 27.931 0 0 1 1.691 2.54 3.723 3.723 0 0 0-1.823-.93 10.733 10.733 0 0 0-2.094-.24l-.23-.01a13.75 13.75 0 0 0-.654-.04l-.372-.03a.156.156 0 0 0-.122.07.143.143 0 0 0-.02.14 1.157 1.157 0 0 0 .056.14 6.423 6.423 0 0 0 2.6 2.6 4.008 4.008 0 0 0 2.824.42 1.327 1.327 0 0 1 .355-.04.889.889 0 0 1 .717.23 30.945 30.945 0 0 1 1.339 3.26 4.382 4.382 0 0 0-1.693-1.38c-.714-.34-1.458-.65-2.19-.96-.314-.13-.63-.26-.944-.4a.154.154 0 0 0-.146.02.148.148 0 0 0-.068.13c0 .1 1.044 3.03 2.559 4.18a3.954 3.954 0 0 0 2.34.98 1.025 1.025 0 0 1 .809.31.335.335 0 0 0 .129.09c.077.02.1.07.136.23a32.112 32.112 0 0 1 .677 4.07q-.063-.21-.147-.42a6.031 6.031 0 0 0-1.8-2.4c-.457-.4-.935-.78-1.4-1.15l-.022-.02-.631-.51c-.043-.03-.085-.07-.134-.11l-.131-.12a.2.2 0 0 0-.167-.02.161.161 0 0 0-.084.15l.017.27v.04c.01.17.02.34.037.5a8.4 8.4 0 0 0 1.424 4.05 5.049 5.049 0 0 0 2.3 1.97 1.433 1.433 0 0 1 .669.52 1.1 1.1 0 0 1 .228.78 32.346 32.346 0 0 1-.256 3.61 4.937 4.937 0 0 0-.225-1.02 7.868 7.868 0 0 0-1.135-2.17c-.453-.64-.925-1.27-1.381-1.88l-.031-.04c-.181-.25-.362-.49-.538-.73a.145.145 0 0 0-.108-.07.143.143 0 0 0-.127-.01.152.152 0 0 0-.086.1v.01a.611.611 0 0 0-.017.06 8.9 8.9 0 0 0 .59 5.21 5.788 5.788 0 0 0 1.636 2.31 2.577 2.577 0 0 1 .835 1.15.315.315 0 0 1 .029.16 28.031 28.031 0 0 1-1.355 4.2 5.391 5.391 0 0 0-.03-2.21 19.618 19.618 0 0 0-.98-3.03l-.106-.27c-.166-.42-.333-.84-.5-1.28a.149.149 0 0 0-.145-.1.151.151 0 0 0-.133.08l-.055.11a1.338 1.338 0 0 0-.067.13 9.01 9.01 0 0 0-.713 4.95 6.457 6.457 0 0 0 .934 2.76 2.726 2.726 0 0 1 .523 1.29.471.471 0 0 1-.048.3 22.8 22.8 0 0 1-2.01 3 .07.07 0 0 1 .008-.01 5.379 5.379 0 0 0 .492-2.95c-.047-.78-.135-1.56-.22-2.31v-.05c-.034-.3-.068-.6-.1-.9-.018-.17-.038-.34-.058-.51l-.028-.24a.153.153 0 0 0-.082-.12.378.378 0 0 0-.365.2 8.188 8.188 0 0 0-1.856 4.05 7.229 7.229 0 0 0 .388 4.01.41.41 0 0 1 .013.12l-.027.67a.209.209 0 0 1-.05.12 17.8 17.8 0 0 1-3.3 2.54 4.4 4.4 0 0 0 1.227-2.03 20 20 0 0 0 .584-2.88l.012-.08.159-1.01.062-.38a.157.157 0 0 0-.056-.15.169.169 0 0 0-.154-.02l-.054.02c-.057.03-.107.05-.154.07a6.675 6.675 0 0 0-3.511 6.29 3.047 3.047 0 0 1-.109 1.13.227.227 0 0 1-.055.08 18.155 18.155 0 0 1-3.1 1.01.15.15 0 0 0-.111.1.157.157 0 0 0 .029.15 2.841 2.841 0 0 1 .286.43.17.17 0 0 0 .168.08 20.036 20.036 0 0 0 2.4-.74.232.232 0 0 1 .154-.03 4.4 4.4 0 0 1 .549.11l.076.02a3.263 3.263 0 0 0 2.293 1.72 6.057 6.057 0 0 0 .738.13c.261.02.552.04.864.04.433 0 .742-.03.745-.03a7.964 7.964 0 0 0 2.5-.67 2.391 2.391 0 0 0 .9-.66.154.154 0 0 0-.019-.21 7.9 7.9 0 0 0-2.295-1.47 5.788 5.788 0 0 0-3.353-.4 3.59 3.59 0 0 0-.467.12 19.49 19.49 0 0 0 2.858-2.13.1.1 0 0 1 .068-.03 3.772 3.772 0 0 1 .545-.07.192.192 0 0 1 .045.01 2.711 2.711 0 0 0 2.143.91h.138a6.632 6.632 0 0 0 2.919-.81 7.249 7.249 0 0 0 2.015-1.43c.131-.15.248-.31.351-.45l.01-.01c.046-.07.092-.13.139-.19a.165.165 0 0 0 .03-.12.177.177 0 0 0-.073-.11c-.01 0-.26-.14-.488-.23a6.587 6.587 0 0 0-4.539-.18 4.782 4.782 0 0 0-1.376.72 23.818 23.818 0 0 0 2.258-3.15l.033-.05c.06-.04.121-.07.182-.11a2.684 2.684 0 0 0 .33-.21.135.135 0 0 1 .207-.01 1.362 1.362 0 0 0 .408.16 3.351 3.351 0 0 0 2.385-.31 6.279 6.279 0 0 0 1.905-1.52 7.72 7.72 0 0 0 1.587-2.39 4.291 4.291 0 0 0 .16-.51c.02-.08.041-.15.062-.22a.15.15 0 0 0-.094-.19l-.064-.01c-.315 0-3.121.05-4.763 1.66a8.3 8.3 0 0 0-.969 1.13 30.744 30.744 0 0 0 1.643-4.38l.007-.02a.45.45 0 0 1 .018-.06l.43-.6a.038.038 0 0 1 .043-.02h.038l.091.01a2.709 2.709 0 0 0 .663-.01 3 3 0 0 0 1.686-.95 10.529 10.529 0 0 0 2.577-4.85 3.7 3.7 0 0 0 .086-.66c.008-.1.016-.21.027-.32a.174.174 0 0 0-.049-.14zM21.188 50.74a18.212 18.212 0 0 1-3.1-1.01.227.227 0 0 1-.054-.08 3.089 3.089 0 0 1-.109-1.13 6.675 6.675 0 0 0-3.511-6.29c-.048-.02-.1-.05-.155-.07l-.053-.02a.166.166 0 0 0-.153.02.145.145 0 0 0-.057.14l.062.39c.054.34.107.67.159 1.01l.012.09a20.288 20.288 0 0 0 .583 2.87 4.41 4.41 0 0 0 1.228 2.03 17.8 17.8 0 0 1-3.3-2.54.209.209 0 0 1-.05-.12l-.027-.67a.41.41 0 0 1 .013-.12 7.229 7.229 0 0 0 .388-4.01 8.157 8.157 0 0 0-1.856-4.05.468.468 0 0 0-.309-.21.1.1 0 0 0-.055.01.152.152 0 0 0-.084.12l-.027.23c-.02.18-.041.35-.058.52-.031.3-.065.6-.1.9v.05c-.085.75-.173 1.53-.22 2.31a5.393 5.393 0 0 0 .492 2.95s0 .01.008.01a23.381 23.381 0 0 1-2.01-3 .478.478 0 0 1-.048-.3 2.726 2.726 0 0 1 .523-1.29 6.457 6.457 0 0 0 .934-2.76 9.01 9.01 0 0 0-.713-4.95c-.02-.04-.043-.09-.067-.13l-.056-.11a.152.152 0 0 0-.277.02l-.505 1.28-.106.27a19.618 19.618 0 0 0-.981 3.03 5.408 5.408 0 0 0-.029 2.21 28.034 28.034 0 0 1-1.356-4.2.322.322 0 0 1 .03-.16 2.575 2.575 0 0 1 .834-1.15 5.778 5.778 0 0 0 1.636-2.31 8.893 8.893 0 0 0 .591-5.21.45.45 0 0 0-.017-.06l-.006-.01a.147.147 0 0 0-.086-.1.171.171 0 0 0-.122 0 .194.194 0 0 0-.11.08c-.178.24-.359.48-.54.72l-.03.05c-.457.61-.929 1.24-1.382 1.88a7.961 7.961 0 0 0-1.135 2.16 5.248 5.248 0 0 0-.226 1.03 32.838 32.838 0 0 1-.255-3.62 1.091 1.091 0 0 1 .228-.77 1.433 1.433 0 0 1 .669-.52 5.049 5.049 0 0 0 2.3-1.97 8.389 8.389 0 0 0 1.423-4.05c.018-.16.028-.33.038-.5v-.04c0-.09.011-.18.017-.27a.161.161 0 0 0-.084-.15.167.167 0 0 0-.167.02l-.131.12c-.049.04-.091.07-.134.11l-.631.51-.022.02c-.463.37-.941.75-1.4 1.15a5.951 5.951 0 0 0-1.8 2.4c-.057.14-.106.28-.148.42a31.934 31.934 0 0 1 .677-4.07c.038-.16.059-.21.137-.23a.328.328 0 0 0 .127-.09 1.029 1.029 0 0 1 .81-.31 4.017 4.017 0 0 0 2.34-.98c1.516-1.15 2.559-4.09 2.559-4.18a.137.137 0 0 0-.069-.13.151.151 0 0 0-.144-.02c-.315.14-.631.27-.958.41-.719.3-1.463.61-2.177.95a4.451 4.451 0 0 0-1.693 1.37 31.9 31.9 0 0 1 1.338-3.25.894.894 0 0 1 .718-.23 1.327 1.327 0 0 1 .355.04 4.008 4.008 0 0 0 2.824-.42 6.423 6.423 0 0 0 2.6-2.6c.014-.03.041-.1.056-.14a.145.145 0 0 0-.019-.14.161.161 0 0 0-.132-.07l-.363.03c-.222.01-.437.02-.653.04l-.23.01a10.752 10.752 0 0 0-2.1.24 3.639 3.639 0 0 0-1.822.93 27.931 27.931 0 0 1 1.691-2.54.349.349 0 0 1 .156-.06 1.25 1.25 0 0 1 .3-.03 1.1 1.1 0 0 1 .528.12 3.982 3.982 0 0 0 3.186.1 5.213 5.213 0 0 0 2.468-1.87q.035-.045.063-.09a.149.149 0 0 0 0-.13.648.648 0 0 0-.392-.19c-.245-.04-.522-.09-.8-.13-.126-.02-.253-.03-.379-.05l-.017-.01c-.428-.06-.871-.13-1.318-.15a3.633 3.633 0 0 0-2.133.5c.4-.43.806-.84 1.22-1.22a5.721 5.721 0 0 1 .48-.39.137.137 0 0 1 .1-.03 4.77 4.77 0 0 0 3.635-1.96 7.353 7.353 0 0 0 1.3-2.64l.011-.03a.216.216 0 0 0-.026-.26.508.508 0 0 0-.444.08c-.252.09-.5.19-.766.29-.522.19-1.063.4-1.585.63a4.662 4.662 0 0 0-2.069 1.72 2.62 2.62 0 0 0-.461 1.78.23.23 0 0 1-.007.03 24.522 24.522 0 0 0-2.674 2.76 8.194 8.194 0 0 0 1.179-3.22 10.457 10.457 0 0 0 .038-3.37c-.011-.07-.026-.13-.044-.21l-.028-.13a.147.147 0 0 0-.1-.11.16.16 0 0 0-.15.03c-.062.06-.123.12-.183.17l-.042.04a5.145 5.145 0 0 0-.427.42 9 9 0 0 0-2.261 4.68 3.981 3.981 0 0 0 .146 2 2.794 2.794 0 0 0 .292.53c.05.07.1.15.147.23a.317.317 0 0 1 .036.07c-.021.23-.051.48-.091.78a.09.09 0 0 1-.026.04l-.014.02a30.792 30.792 0 0 0-1.909 3.07 10.37 10.37 0 0 0 .394-2.97 7.99 7.99 0 0 0-.976-3.83.187.187 0 0 0-.135-.08.157.157 0 0 0-.121.07c-.019.02-.039.05-.058.07-.041.06-.08.11-.114.16a8.7 8.7 0 0 0-.967 2.4 12.6 12.6 0 0 0-.48 3.32 3.9 3.9 0 0 0 .482 2.05 2.967 2.967 0 0 0 .358.48c.068.08.138.16.2.25a.314.314 0 0 1 .067.15c.009.2 0 .41 0 .6v.14a.174.174 0 0 1-.014.07 30.413 30.413 0 0 0-1.077 3.13 10.244 10.244 0 0 0 .077-1.07 7.8 7.8 0 0 0-1.765-5.2l-.251-.31a.145.145 0 0 0-.118-.06h-.026a.162.162 0 0 0-.118.1c-.022.07-.045.12-.067.18-.042.11-.082.21-.116.32a10.17 10.17 0 0 0-.412 2.91v.02a9.924 9.924 0 0 0 .305 3.19 3.928 3.928 0 0 0 1.075 1.79l.013.01a1.924 1.924 0 0 1 .575.73c.017.07.035.14.056.21a1.866 1.866 0 0 1-.027.92 4.039 4.039 0 0 0-.075.49c-.044.68-.1 1.37-.151 2.04v.06l-.04.51a8.392 8.392 0 0 0-1.492-4.14 8.172 8.172 0 0 0-1.863-1.91c-.031-.02-.063-.04-.106-.07a.472.472 0 0 1-.075-.04.15.15 0 0 0-.232.12c-.009.09-.02.18-.032.28a5.106 5.106 0 0 0-.047.58 12.33 12.33 0 0 0 1.239 5.56 3.924 3.924 0 0 0 .912 1.21 2.254 2.254 0 0 0 1.22.59.1.1 0 0 0 .037.02l.075.15a2.843 2.843 0 0 1 .23.54 2.22 2.22 0 0 1 .038.51v.19a18.632 18.632 0 0 0 .344 3.47 6.576 6.576 0 0 0-.578-1.22 7.815 7.815 0 0 0-3.8-3.33 2.531 2.531 0 0 0-.318-.1l-.023-.01a1.108 1.108 0 0 1-.151-.05.18.18 0 0 0-.143.03.174.174 0 0 0-.055.14c.012.11.02.21.027.32a3.7 3.7 0 0 0 .086.66 10.58 10.58 0 0 0 2.577 4.85 3 3 0 0 0 1.687.95 3.328 3.328 0 0 0 .662.01l.092-.01h.037c.025 0 .027 0 .045.03l.427.59a.329.329 0 0 1 .019.06l.007.02a30.627 30.627 0 0 0 1.644 4.38 8.379 8.379 0 0 0-.97-1.13c-1.641-1.61-4.448-1.66-4.763-1.66h-.064a.16.16 0 0 0-.1.19c.022.08.043.15.066.24a4.151 4.151 0 0 0 .157.5 7.72 7.72 0 0 0 1.587 2.39 6.434 6.434 0 0 0 1.9 1.52 3.351 3.351 0 0 0 2.385.31 1.709 1.709 0 0 0 .408-.16.133.133 0 0 1 .206.01c.107.08.221.14.331.21a1.388 1.388 0 0 1 .179.11.52.52 0 0 1 .036.05 24.5 24.5 0 0 0 2.258 3.15 4.782 4.782 0 0 0-1.376-.72A6.587 6.587 0 0 0 5 44.77c-.228.09-.478.22-.5.23a.165.165 0 0 0-.036.23c.047.06.093.12.139.19l.01.01a4.826 4.826 0 0 0 .351.44 7.274 7.274 0 0 0 2.015 1.44 6.631 6.631 0 0 0 2.918.81h.138a2.7 2.7 0 0 0 2.14-.91.067.067 0 0 1 .043-.02 5.5 5.5 0 0 1 .549.08.1.1 0 0 1 .07.03 18.729 18.729 0 0 0 2.858 2.12 6.506 6.506 0 0 0-.467-.11 5.787 5.787 0 0 0-3.353.4 8.068 8.068 0 0 0-2.3 1.46.167.167 0 0 0-.019.22 2.391 2.391 0 0 0 .9.66 7.957 7.957 0 0 0 2.5.67s.312.03.745.03a7.55 7.55 0 0 0 .863-.05 6.006 6.006 0 0 0 .738-.12 3.254 3.254 0 0 0 2.287-1.71.183.183 0 0 1 .083-.04c.2-.05.379-.08.55-.11a.533.533 0 0 1 .154.03 16.968 16.968 0 0 0 2.4.74.05.05 0 0 0 .036.01.151.151 0 0 0 .134-.08 2.369 2.369 0 0 1 .287-.43.157.157 0 0 0 .028-.15.148.148 0 0 0-.073-.1z" fill="#c5cadd" fill-rule="evenodd"/></symbol><symbol id="icon-lock" viewBox="0 0 26 37"><path fill="#a5b1bc" fill-rule="evenodd" d="M5.86 36.99A5.9 5.9 0 0 1 0 31.06V18.99a5.91 5.91 0 0 1 2.25-4.67l.13-.11v-3.45a10.616 10.616 0 1 1 21.23 0v3.45l.13.11a5.91 5.91 0 0 1 2.25 4.67v12.07a5.894 5.894 0 0 1-5.85 5.93H5.86zm0-21.74a3.7 3.7 0 0 0-3.67 3.72v12.07a3.688 3.688 0 0 0 3.67 3.71h14.28a3.685 3.685 0 0 0 3.66-3.71V18.97a3.694 3.694 0 0 0-3.66-3.72H5.86zm14.28-2.2a5.473 5.473 0 0 1 .9.08l.38.06v-2.43a8.426 8.426 0 1 0-16.85 0v2.43l.39-.06a5.378 5.378 0 0 1 .9-.08h14.28zM13 30.69a3.018 3.018 0 0 1-3-3.04v-1.68l-.08-.09a4.075 4.075 0 0 1-.87-2.52 3.976 3.976 0 0 1 3.95-4 3.907 3.907 0 0 1 2.47.88 4.052 4.052 0 0 1 .6 5.64l-.07.09v1.68a3.024 3.024 0 0 1-3 3.04zm0-9.13a1.773 1.773 0 0 0-1.76 1.78 1.8 1.8 0 0 0 .58 1.33 1.128 1.128 0 0 1 .37.83v2.12a.81.81 0 1 0 1.62 0V25.5a1.091 1.091 0 0 1 .36-.81 1.816 1.816 0 0 0 .59-1.35A1.773 1.773 0 0 0 13 21.56z"/></symbol><symbol id="icon-magnifier--big" viewBox="0 0 52 52"><path fill="#a5b1bc" fill-rule="evenodd" d="M7.633 52a7.03 7.03 0 0 1-5.04-2.09l-.536-.543a7.328 7.328 0 0 1 0-10.194l9.614-9.724h-1.117l1.375-.916A20.706 20.706 0 1 1 31.28 41.912a20.335 20.335 0 0 1-8.18-1.737l-.558-.244-9.865 9.98A7.03 7.03 0 0 1 7.633 52zM3.955 41.09a4.492 4.492 0 0 0 0 6.295l.538.544a4.467 4.467 0 0 0 6.223 0L20 38.47l-.857-.62a20.887 20.887 0 0 1-5.15-5.38l-.606-.92zM31.22 2.776a18.18 18.18 0 1 0 17.973 18.18A18.1 18.1 0 0 0 31.22 2.775zm9.43 12.86a9.656 9.656 0 0 0-7.22-5.076V7.814a10.98 10.98 0 0 1 9.807 6.826z"/></symbol><symbol id="icon-magnifier--small" viewBox="0 0 34 34"><path fill="#a5b1bc" fill-rule="evenodd" d="M32.809 34a1.191 1.191 0 0 1-.84-.34l-7.925-7.79-.229.17a14.837 14.837 0 0 1-9.024 3.05 14.547 14.547 0 1 1 0-29.09 14.858 14.858 0 0 1 5.75 1.14 15.018 15.018 0 0 1 4.7 3.12 14.6 14.6 0 0 1 3.175 4.63 14.213 14.213 0 0 1 1.165 5.66 14.064 14.064 0 0 1-.966 5.14 14.542 14.542 0 0 1-2.649 4.35l-.2.22 7.877 7.75a1.138 1.138 0 0 1 .349.82 1.161 1.161 0 0 1-.349.83 1.193 1.193 0 0 1-.834.34zM14.794 2.34a12.207 12.207 0 1 0 12.416 12.2 12.323 12.323 0 0 0-12.416-12.2zm0 19.07a1.177 1.177 0 0 1-1.188-1.17v-4.7H8.821a1.17 1.17 0 1 1 0-2.34h4.785V8.5a1.189 1.189 0 0 1 2.377 0v4.7h4.783a1.17 1.17 0 1 1 0 2.34h-4.783v4.7a1.178 1.178 0 0 1-1.189 1.17z"/></symbol><symbol id="icon-magnifier-red" viewBox="0 0 49 48"><path fill="#ff1037" fill-rule="evenodd" d="M4.847 48a4.686 4.686 0 0 1-3.455-8.026l4.215-4.04V1.139A1.094 1.094 0 0 1 6.773-.006h15.213a1.952 1.952 0 0 1 1 .422l2.434 3.761h22.427a1.1 1.1 0 0 1 1.167 1.145v36.056a1.107 1.107 0 0 1-1.167 1.145H12.415L8.3 46.661A5.339 5.339 0 0 1 4.847 48zm3.942-10.9a3.026 3.026 0 0 0-1.821.716l-3.94 3.871a2.457 2.457 0 0 0 0 3.474 2.5 2.5 0 0 0 1.769.7 2.5 2.5 0 0 0 1.768-.7l3.955-3.884a2.457 2.457 0 0 0 0-3.473 2.714 2.714 0 0 0-1.731-.704zm37.891 3.232V11.747H28.375a1.182 1.182 0 0 1-.938-.564L21.5 2.284H8.143v32.624a3.646 3.646 0 0 1 .757-.054h.042l3.12-3.064a11.963 11.963 0 0 1-1.587-5.85 12.163 12.163 0 0 1 12.221-12 12.614 12.614 0 0 1 8.623 3.528 11.636 11.636 0 0 1 3.6 8.475 12.159 12.159 0 0 1-3.592 8.469 11.9 11.9 0 0 1-8.627 3.53 12.531 12.531 0 0 1-5.957-1.558l-3.12 3.065a4.344 4.344 0 0 1-.064.883H46.68zm-35.3-4.762a4.738 4.738 0 0 1 1.5 1.487l1.891-1.857a9.428 9.428 0 0 0-.336-.285c-.155-.127-.312-.255-.467-.407a8.308 8.308 0 0 1-.723-.774zm11.215-19.441a9.913 9.913 0 0 0-6.995 2.844 9.527 9.527 0 0 0-2.2 10.417 9.924 9.924 0 0 0 16.179 3.416 9.761 9.761 0 0 0-6.984-16.677zM46.68 9.456V6.468H26.834l2.028 2.988H46.68zM17.422 22.005a1.168 1.168 0 0 1-.818-.342 1.1 1.1 0 0 1 0-1.606 8.589 8.589 0 0 1 11.98 0 1.1 1.1 0 0 1 0 1.606 1.149 1.149 0 0 1-1.636 0 6 6 0 0 0-4.354-1.749 6 6 0 0 0-4.355 1.749 1.167 1.167 0 0 1-.817.342z"/></symbol><symbol id="icon-magnifier" viewBox="0 0 49 48"><path fill-rule="evenodd" d="M4.847 48a4.686 4.686 0 0 1-3.455-8.026l4.215-4.04V1.139A1.094 1.094 0 0 1 6.773-.006h15.213a1.952 1.952 0 0 1 1 .422l2.434 3.761h22.427a1.1 1.1 0 0 1 1.167 1.145v36.056a1.107 1.107 0 0 1-1.167 1.145H12.415L8.3 46.661A5.339 5.339 0 0 1 4.847 48zm3.942-10.9a3.026 3.026 0 0 0-1.821.716l-3.94 3.871a2.457 2.457 0 0 0 0 3.474 2.5 2.5 0 0 0 1.769.7 2.5 2.5 0 0 0 1.768-.7l3.955-3.884a2.457 2.457 0 0 0 0-3.473 2.714 2.714 0 0 0-1.731-.704zm37.891 3.232V11.747H28.375a1.182 1.182 0 0 1-.938-.564L21.5 2.284H8.143v32.624a3.646 3.646 0 0 1 .757-.054h.042l3.12-3.064a11.963 11.963 0 0 1-1.587-5.85 12.163 12.163 0 0 1 12.221-12 12.614 12.614 0 0 1 8.623 3.528 11.636 11.636 0 0 1 3.6 8.475 12.159 12.159 0 0 1-3.592 8.469 11.9 11.9 0 0 1-8.627 3.53 12.531 12.531 0 0 1-5.957-1.558l-3.12 3.065a4.344 4.344 0 0 1-.064.883H46.68zm-35.3-4.762a4.738 4.738 0 0 1 1.5 1.487l1.891-1.857a9.428 9.428 0 0 0-.336-.285c-.155-.127-.312-.255-.467-.407a8.308 8.308 0 0 1-.723-.774zm11.215-19.441a9.913 9.913 0 0 0-6.995 2.844 9.527 9.527 0 0 0-2.2 10.417 9.924 9.924 0 0 0 16.179 3.416 9.761 9.761 0 0 0-6.984-16.677zM46.68 9.456V6.468H26.834l2.028 2.988H46.68zM17.422 22.005a1.168 1.168 0 0 1-.818-.342 1.1 1.1 0 0 1 0-1.606 8.589 8.589 0 0 1 11.98 0 1.1 1.1 0 0 1 0 1.606 1.149 1.149 0 0 1-1.636 0 6 6 0 0 0-4.354-1.749 6 6 0 0 0-4.355 1.749 1.167 1.167 0 0 1-.817.342z"/></symbol><symbol id="icon-map--big" viewBox="0 0 84 72"><path fill="#a5b1bc" fill-rule="evenodd" d="M0 59.85l10.991-39.2 11.1 6.6a1.456 1.456 0 0 1 .694.91 1.23 1.23 0 0 1-.181.96 1.553 1.553 0 0 1-1.3.67 1.632 1.632 0 0 1-.747-.18l-7.781-4.6L3.341 58.5l16.539 9.92 3.677-31.6a1.436 1.436 0 0 1 1.435-1.28c.044 0 .089.01.133.01a1.421 1.421 0 0 1 1.274 1.55l-3.678 31.12 18.049-5.85v-6.8a1.418 1.418 0 0 1 2.836 0v6.89l18.048 5.95-3.678-31.32a1.405 1.405 0 0 1 .322-1.03 1.353 1.353 0 0 1 .952-.51c.045 0 .09-.01.133-.01a1.433 1.433 0 0 1 1.434 1.27l3.679 31.33 16.16-9.64-9.434-33.49-7.813 4.62a1.479 1.479 0 0 1-.777.22 1.42 1.42 0 0 1-1.222-.71 1.3 1.3 0 0 1-.179-1.07 1.228 1.228 0 0 1 .646-.8l11.131-6.62 10.993 39.2L63.593 72l-20.975-6.86a2.038 2.038 0 0 1-.287-.17l-.24-.22-.306.14a2.463 2.463 0 0 0-.283.16 1.709 1.709 0 0 1-.188.12L20.4 72zm41.2-11.62C25.712 33.09 24.508 22.17 24.508 19.18v-1.87a17.686 17.686 0 0 1 35.364 0v1.87c0 2.99-1.2 13.91-16.69 29.05l-.992.98zm.99-45.42a14.69 14.69 0 0 0-14.846 14.5v1.87c0 1.82.7 11.64 14.507 25.68l.339.34.339-.34C56.336 30.82 57.035 21 57.035 19.18v-1.87a14.689 14.689 0 0 0-14.848-14.5zm.473 23.39a8.892 8.892 0 1 1 9.077-8.89 9 9 0 0 1-9.08 8.89zm0-14.97a6.082 6.082 0 1 0 6.24 6.08 6.164 6.164 0 0 0-6.243-6.08z"/></symbol><symbol id="icon-map--red" viewBox="0 0 11 13"><path data-name="Shape 10 copy" fill="#ff1037" fill-rule="evenodd" d="M1.614 1.611a5.491 5.491 0 0 1 7.773 0 5.477 5.477 0 0 1 0 7.764 3 3 0 0 1-.222.222l-3.228 3.225a.644.644 0 0 1-.888 0l-3.48-3.476a5.5 5.5 0 0 1 .044-7.735zM2.5 2.5a4.228 4.228 0 0 0-.03 5.96l3.02 3.017L8.261 8.71c.089-.074.163-.148.239-.221a4.238 4.238 0 0 0-6-5.989zm3.007 1.167A1.826 1.826 0 1 1 3.671 5.5a1.831 1.831 0 0 1 1.836-1.833z"/></symbol><symbol id="icon-map" viewBox="0 0 11 13"><path data-name="Shape 10 copy" fill="#fff" fill-rule="evenodd" d="M1.614 1.611a5.491 5.491 0 0 1 7.773 0 5.477 5.477 0 0 1 0 7.764 3 3 0 0 1-.222.222l-3.228 3.225a.644.644 0 0 1-.888 0l-3.48-3.476a5.5 5.5 0 0 1 .044-7.735zM2.5 2.5a4.228 4.228 0 0 0-.03 5.96l3.02 3.017L8.261 8.71c.089-.074.163-.148.239-.221a4.238 4.238 0 0 0-6-5.989zm3.007 1.167A1.826 1.826 0 1 1 3.671 5.5a1.831 1.831 0 0 1 1.836-1.833z"/></symbol><symbol id="icon-play-btn" viewBox="0 0 32.12 35.93"><path fill="#c62b4d" fill-rule="evenodd" d="M31.26 19.08C21.03 25.34 13.2 29.89 3.12 35.29c-3.52 1.89-3.13-.96-3.13-1.42V2.2c0-.46-.33-3.56 3.13-1.56 9.91 5.74 15.86 9.09 28.14 16.08 1.05.59 1.21 1.62 0 2.36z"/></symbol><symbol id="icon-policeman" viewBox="0 0 46 53"><path fill="#a5b1bc" fill-rule="evenodd" d="M22.47 30.193A12.872 12.872 0 0 1 10.384 17.24V2.6A2.582 2.582 0 0 1 13-.005h20.068a2.582 2.582 0 0 1 2.615 2.6v14.927a12.65 12.65 0 0 1-12.65 12.67h-.564zM12.716 17.17a10.428 10.428 0 0 0 9.776 10.56c.17.01.342.012.513.012a10.238 10.238 0 0 0 10.263-9.726h-.06V13.07a17.275 17.275 0 0 1-10.247 3.116 17.275 17.275 0 0 1-10.246-3.116v4.1zm1.95-5.63a15.23 15.23 0 0 0 8.367 2.322 14.918 14.918 0 0 0 8.326-2.322H14.666zM33.35 9.216V2.6a.18.18 0 0 0-.212-.21H13a.18.18 0 0 0-.212.21v6.616H33.35zM22.546 52.93l20.04-19.964 1.262 1.644A8.85 8.85 0 0 1 46 40.4v9.222a3.32 3.32 0 0 1-3.322 3.308H22.546zm20.2-2.394a.918.918 0 0 0 .918-.915V40.4a6.62 6.62 0 0 0-1.25-3.83L28.4 50.537h14.35zM3.32 53A3.32 3.32 0 0 1 0 49.692v-9.22a9.11 9.11 0 0 1 9.113-9.082h26.633L14.413 52.64v.29l-.495.07h-10.6zm5.793-19.287A6.707 6.707 0 0 0 2.4 40.4v9.222a.918.918 0 0 0 .918.915h9.83l16.82-16.824H9.114z"/></symbol><symbol id="icon-rating" viewBox="0 0 34 34"><path fill="#a5b1bc" fill-rule="evenodd" d="M14.85 34a14.781 14.781 0 0 0 10.51-4.35.914.914 0 0 0 0-1.29v-.01l-9.59-9.58V5.2a.915.915 0 0 0-.92-.91 14.855 14.855 0 0 0 0 29.71zm-.91-27.85v13a.909.909 0 0 0 .27.64l9.19 9.19a13.029 13.029 0 1 1-9.46-22.83zm19.15 12.08h-11.8a.912.912 0 0 0-.63 1.57l8.87 8.53a.894.894 0 0 0 .63.26h.07a.891.891 0 0 0 .65-.37A14.644 14.644 0 0 0 34 19.15a.915.915 0 0 0-.91-.92zm-3.05 8.04l-6.46-6.21h8.56a12.865 12.865 0 0 1-2.1 6.21zM18.23.91v13.95a.913.913 0 0 0 .91.91h13.95a.913.913 0 0 0 .91-.91A14.875 14.875 0 0 0 19.14 0a.913.913 0 0 0-.91.91zm9.45 4.12l-7.62 7.62v-4.1l5.19-5.19a12.631 12.631 0 0 1 2.43 1.67zm.36 8.91l3.41-3.4a13.186 13.186 0 0 1 .7 3.4h-4.11zm2.62-5.2l-5.21 5.2h-4.1l7.62-7.62a12.561 12.561 0 0 1 1.67 2.42h.02zm-7.2-6.17l-3.4 3.4V1.86a12.8 12.8 0 0 1 3.4.71z"/></symbol><symbol id="icon-scales--big" viewBox="0 0 66 69"><path fill="#a5b1bc" fill-rule="evenodd" d="M15.2 69a1.346 1.346 0 0 1-1.25-.82 1.309 1.309 0 0 1 .3-1.45l7.91-7.8a1.3 1.3 0 0 1 .95-.39h8.54V10.18L14.56 6.29v2.54l11.75 25.12a1.488 1.488 0 0 1 .09.3l.01.06c.01.09.02.13.02.18l-.01.12a13.208 13.208 0 0 1-26.41.03v-.13c0-.07.01-.11.01-.16l.02-.13a.943.943 0 0 1 .09-.27l.02-.06L11.87 8.83V5.68L6.98 4.56a1.342 1.342 0 0 1-.84-.59 1.3 1.3 0 0 1-.17-1 1.338 1.338 0 0 1 1.31-1.03 1.1 1.1 0 0 1 .31.04l24.06 5.48V1.32a1.345 1.345 0 0 1 2.69 0v6.75l24.67 5.62a1.292 1.292 0 0 1 .84.58 1.331 1.331 0 0 1-1.14 2.04 1.544 1.544 0 0 1-.3-.04l-4.29-.97v1.34l11.74 25.1a1.39 1.39 0 0 1 .1.31l.01.07a1.277 1.277 0 0 1 .02.17l-.01.12a13.208 13.208 0 0 1-26.41.03v-.13a.488.488 0 0 1 .01-.17l.01-.11a2.127 2.127 0 0 1 .09-.27l.03-.07 11.72-25.05v-1.96l-17.09-3.89v47.75h8.55a1.314 1.314 0 0 1 .95.39l7.91 7.8a1.306 1.306 0 0 1 .29 1.45 1.342 1.342 0 0 1-1.24.82H15.2zm3.24-2.66h29.11l-5.22-5.15H23.66zm24.03-21.96a10.553 10.553 0 0 0 20.62 0l.15-.75H42.31zM2.91 36.57a10.551 10.551 0 0 0 20.62 0l.15-.75H2.75zm40.1 4.4h19.53L52.78 20.1zm-39.56-7.8h19.53l-9.76-20.88z"/></symbol><symbol id="icon-scales" viewBox="0 0 52 52"><path fill="#a5b1bc" fill-rule="evenodd" d="M9.027 52.005a1.114 1.114 0 1 1 0-2.227h33.862a1.114 1.114 0 1 1 0 2.227H9.027zM18.1 47.25a1.116 1.116 0 0 1-1.116-1.113v-.655a5.514 5.514 0 0 1 5.25-5.523V7.611a16.936 16.936 0 0 0-9.172 3.6 10.547 10.547 0 0 1-3.372 1.85l6.488 14.045a1.14 1.14 0 0 1 .046.131l.005.107v.079a1.072 1.072 0 0 1 0 .125v.454a8.068 8.068 0 0 1-8.111 7.869h-.237A8.118 8.118 0 0 1 0 27.539a.865.865 0 0 1 0-.122v-.142a.833.833 0 0 1 .05-.162l6.392-14a16.316 16.316 0 0 1-3.852-1.43 1.114 1.114 0 0 1 .992-2 10.569 10.569 0 0 0 4.43 1.395h.149c1.325-.031 2.238-.653 3.617-1.664a19.443 19.443 0 0 1 10.869-4.075A3.712 3.712 0 0 1 27.794.471a3.7 3.7 0 0 1 1.521 4.868A19.442 19.442 0 0 1 40.143 9.4c1.32.959 2.264 1.644 3.629 1.676h.141a10.661 10.661 0 0 0 4.431-1.394 1.114 1.114 0 1 1 .989 2 16.253 16.253 0 0 1-3.849 1.418l6.41 14.026a1.118 1.118 0 0 1 .046.129v.148c.016.025.06.107.06.107v.035a8.116 8.116 0 0 1-7.882 7.866h-.236a8.068 8.068 0 0 1-8.111-7.87.99.99 0 0 1 0-.13v-.136a.833.833 0 0 1 .049-.162l6.418-14.049a10.552 10.552 0 0 1-3.374-1.851 16.935 16.935 0 0 0-9.2-3.608v32.354a5.514 5.514 0 0 1 5.25 5.523v.655a1.116 1.116 0 0 1-1.116 1.113H18.1zm14.559-2.2a3.3 3.3 0 0 0-3.284-2.868h-6.831a3.3 3.3 0 0 0-3.291 2.868h13.409zm-5.22-5.1V7.46c-.475-.03-.966-.03-1.483-.03-.287 0-.565.01-.837.02-.219.008-.434.016-.646.018v32.486h2.966zm10.653-11.267a5.872 5.872 0 0 0 11.531 0H38.092zm-35.773-.039a5.878 5.878 0 0 0 5.75 4.756H8.2v.037a5.861 5.861 0 0 0 5.659-4.8H2.319zm46.791-2.182l-5.269-11.6-5.269 11.6H49.11zm-35.772 0l-5.27-11.6-5.263 11.6h10.533zm12.62-24.239A1.48 1.48 0 1 0 27.441 3.7a1.483 1.483 0 0 0-1.483-1.477z"/></symbol><symbol id="icon-scroll-red" viewBox="0 0 55 48"><path fill="#ff1037" fill-rule="evenodd" d="M8.1 48.006a7.992 7.992 0 0 1-8.108-7.853V35.21a1.218 1.218 0 0 1 1.236-1.2h6.946V7.006a2.828 2.828 0 0 1 2.87-2.779h26.092l.378.044.321-.292a6.879 6.879 0 0 1 6.281-3.992 6.768 6.768 0 0 1 6.87 6.647 6.414 6.414 0 0 1-.392 2.119l-.1.293.226.217 4.087 5.978a1.169 1.169 0 0 1 .022 1.278 1.234 1.234 0 0 1-1.046.572l-2.992-.3-.872 2.65a1.216 1.216 0 0 1-1.014.818h-.053a1.3 1.3 0 0 1-1.151-.533l-1.933-2.875V38.9a9.247 9.247 0 0 1-8.024 9 1.687 1.687 0 0 1-.517.113H8.1zm-5.638-7.855A5.556 5.556 0 0 0 8.1 45.612h23.214l-.6-.787a7.646 7.646 0 0 1-1.6-4.675V36.4H2.462v3.746zm8.1-29.729l.086.41v23.182h19.705a1.218 1.218 0 0 1 1.237 1.2v4.944a5.49 5.49 0 0 0 5.161 5.413A6.828 6.828 0 0 0 43.3 38.9V16.849l-1.94 2.871a1.25 1.25 0 0 1-1.036.545 1.288 1.288 0 0 1-1.18-.832l-.872-2.647s-2.875.3-2.885.3a1.291 1.291 0 0 1-1.155-.564 1.177 1.177 0 0 1 .02-1.28l3.757-5.589-.117-.247a6.48 6.48 0 0 1-.6-2.323l-.032-.46H10.531zm38.12 1.142a6.869 6.869 0 0 1-1.973 1.222l-.569.225 2.213 3.289.328-.988a1.31 1.31 0 0 1 1.247-1.02l1.066.11-.263-.842-1.608-2.385zm-9.55 2.736a1.236 1.236 0 0 1 1.19.832l.323.991.651-.685 1.528-2.27-.656-.188a6.873 6.873 0 0 1-2.117-1.012l-.435-.311-1.871 2.778zm4.984-11.921a4.441 4.441 0 0 0-3.108 1.249 4.16 4.16 0 0 0-1.285 3.007 4.4 4.4 0 0 0 8.791 0 4.333 4.333 0 0 0-4.398-4.256z"/></symbol><symbol id="icon-scroll" viewBox="0 0 55 48"><path fill-rule="evenodd" d="M8.1 48.006a7.992 7.992 0 0 1-8.108-7.853V35.21a1.218 1.218 0 0 1 1.236-1.2h6.946V7.006a2.828 2.828 0 0 1 2.87-2.779h26.092l.378.044.321-.292a6.879 6.879 0 0 1 6.281-3.992 6.768 6.768 0 0 1 6.87 6.647 6.414 6.414 0 0 1-.392 2.119l-.1.293.226.217 4.087 5.978a1.169 1.169 0 0 1 .022 1.278 1.234 1.234 0 0 1-1.046.572l-2.992-.3-.872 2.65a1.216 1.216 0 0 1-1.014.818h-.053a1.3 1.3 0 0 1-1.151-.533l-1.933-2.875V38.9a9.247 9.247 0 0 1-8.024 9 1.687 1.687 0 0 1-.517.113H8.1zm-5.638-7.855A5.556 5.556 0 0 0 8.1 45.612h23.214l-.6-.787a7.646 7.646 0 0 1-1.6-4.675V36.4H2.462v3.746zm8.1-29.729l.086.41v23.182h19.705a1.218 1.218 0 0 1 1.237 1.2v4.944a5.49 5.49 0 0 0 5.161 5.413A6.828 6.828 0 0 0 43.3 38.9V16.849l-1.94 2.871a1.25 1.25 0 0 1-1.036.545 1.288 1.288 0 0 1-1.18-.832l-.872-2.647s-2.875.3-2.885.3a1.291 1.291 0 0 1-1.155-.564 1.177 1.177 0 0 1 .02-1.28l3.757-5.589-.117-.247a6.48 6.48 0 0 1-.6-2.323l-.032-.46H10.531zm38.12 1.142a6.869 6.869 0 0 1-1.973 1.222l-.569.225 2.213 3.289.328-.988a1.31 1.31 0 0 1 1.247-1.02l1.066.11-.263-.842-1.608-2.385zm-9.55 2.736a1.236 1.236 0 0 1 1.19.832l.323.991.651-.685 1.528-2.27-.656-.188a6.873 6.873 0 0 1-2.117-1.012l-.435-.311-1.871 2.778zm4.984-11.921a4.441 4.441 0 0 0-3.108 1.249 4.16 4.16 0 0 0-1.285 3.007 4.4 4.4 0 0 0 8.791 0 4.333 4.333 0 0 0-4.398-4.256z"/></symbol><symbol id="icon-search-v2" viewBox="0 0 14 14"><path d="M13.9 12.4l-2.7-2.7c.7-1 1.1-2.2 1.1-3.5C12.4 2.8 9.6 0 6.2 0S0 2.8 0 6.2s2.8 6.2 6.2 6.2c1.3 0 2.5-.4 3.5-1.1l2.7 2.7 1.5-1.6zM1.7 6.2c0-2.5 2-4.5 4.5-4.5s4.5 2 4.5 4.5-2 4.5-4.5 4.5-4.5-2-4.5-4.5z" fill="#69859a"/></symbol><symbol id="icon-search" viewBox="0 0 14 14"><path fill-rule="evenodd" d="M13.039 14a.971.971 0 0 1-.7-.3L9.91 11.282l-.356.225a6.222 6.222 0 1 1 2.93-5.262 6.193 6.193 0 0 1-.953 3.313l-.224.355 2.4 2.4a.988.988 0 0 1 .017 1.418.974.974 0 0 1-.685.269zM6.237 1.959a4.242 4.242 0 0 0-4.29 4.285 4.241 4.241 0 0 0 4.29 4.284 4.241 4.241 0 0 0 4.29-4.284 4.242 4.242 0 0 0-4.29-4.285zM13.039 14a.971.971 0 0 1-.7-.3L9.91 11.282l-.356.225a6.222 6.222 0 1 1 2.93-5.262 6.193 6.193 0 0 1-.953 3.313l-.224.355 2.4 2.4a.988.988 0 0 1 .017 1.418.974.974 0 0 1-.685.269zM6.237 1.959a4.242 4.242 0 0 0-4.29 4.285 4.241 4.241 0 0 0 4.29 4.284 4.241 4.241 0 0 0 4.29-4.284 4.242 4.242 0 0 0-4.29-4.285zM13.039 14a.971.971 0 0 1-.7-.3L9.91 11.282l-.356.225a6.222 6.222 0 1 1 2.93-5.262 6.193 6.193 0 0 1-.953 3.313l-.224.355 2.4 2.4a.988.988 0 0 1 .017 1.418.974.974 0 0 1-.685.269zM6.237 1.959a4.242 4.242 0 0 0-4.29 4.285 4.241 4.241 0 0 0 4.29 4.284 4.241 4.241 0 0 0 4.29-4.284 4.242 4.242 0 0 0-4.29-4.285z"/></symbol><symbol id="icon-search2" viewBox="0 0 29 29"><path fill-rule="evenodd" d="M29 26.47L26.49 29l-7-6.98a12.082 12.082 0 0 1-7.25 2.45 12.235 12.235 0 1 1 12.14-12.29v.06A12.2 12.2 0 0 1 22 19.48zM12.24 3.57a8.665 8.665 0 1 0 8.58 8.72v-.05a8.636 8.636 0 0 0-8.58-8.67z"/></symbol><symbol id="icon-shield" viewBox="0 0 44 51"><path fill="#a5b1bc" fill-rule="evenodd" d="M21.443 50.734C21.228 50.634.006 40.469.006 20.277V4.272L22 0l22 4.272v16.005c0 20.178-21.222 30.356-21.436 30.457L22 51zM2.648 20.277c0 16.692 15.933 25.982 19.352 27.782 3.422-1.806 19.356-11.119 19.356-27.782V6.447L22 2.687 2.648 6.447v13.83zm7.892.138l2.03-1.689 7.7 9.236 12.31-14.927 2.039 1.678L20.287 32.1z"/></symbol><symbol id="icon-speech-bubbles" viewBox="0 0 80 75"><path fill="#a5b1bc" fill-rule="evenodd" d="M70.08 75a1.314 1.314 0 0 1-.88-.33l-9.1-8.28-15.5-.09a5.162 5.162 0 0 1-5.06-5.23V47.44h-9.36L13.37 64.3a1.342 1.342 0 0 1-.93.37 1.255 1.255 0 0 1-1.27-1.42l1.58-15.81h-6.3A6.464 6.464 0 0 1 0 40.97V6.47A6.464 6.464 0 0 1 6.45 0h53.29a6.464 6.464 0 0 1 6.45 6.47V32.8l8.73.03a5.16 5.16 0 0 1 5.08 5.2v23.13a5.157 5.157 0 0 1-5.08 5.22h-4.29l.72 7.19a1.34 1.34 0 0 1-.7 1.3 1.327 1.327 0 0 1-.57.13zm-9.49-11.2a1.29 1.29 0 0 1 .86.32l6.97 6.35-.51-5.26a1.293 1.293 0 0 1 .35-.96 1.277 1.277 0 0 1 .94-.45h5.72a2.547 2.547 0 0 0 2.5-2.64V38.03a2.5 2.5 0 0 0-2.5-2.61l-30.33-.09a2.544 2.544 0 0 0-2.47 2.65v23.09a2.53 2.53 0 0 0 2.5 2.65zm-46.4-18.95a1.3 1.3 0 0 1 .93.44 1.252 1.252 0 0 1 .35.97l-1.35 13.66 14.63-14.68a1.28 1.28 0 0 1 .91-.39h9.88v-6.87a5.15 5.15 0 0 1 5.06-5.23l19.01.05V6.47a3.83 3.83 0 0 0-3.87-3.88H6.45a3.83 3.83 0 0 0-3.87 3.88v34.5a3.837 3.837 0 0 0 3.87 3.88h7.74zm44.69 15.5a1.3 1.3 0 1 1 1.29-1.3 1.287 1.287 0 0 1-1.29 1.3zm0-5.18a1.285 1.285 0 0 1-1.28-1.29v-13.8a1.285 1.285 0 1 1 2.57 0v13.8a1.287 1.287 0 0 1-1.29 1.29zM30.52 40.51a1.3 1.3 0 1 1 1.29-1.29 1.293 1.293 0 0 1-1.29 1.29zm0-5.15a1.276 1.276 0 0 1-.9-.41 1.214 1.214 0 0 1-.39-.9c0-5.24 2.33-7.83 4.72-10.04l.29-.27c2-1.84 3.58-3.29 3.58-8.16 0-3.37-3.31-6.12-7.38-6.12-3.47 0-6.6 2.12-7.27 4.94a1.4 1.4 0 0 1-1.33 1.12 1.153 1.153 0 0 1-.26-.03 1.272 1.272 0 0 1-.79-.64 1.292 1.292 0 0 1-.13-1.02c.99-4.11 5-6.96 9.78-6.96 5.49 0 9.96 3.91 9.96 8.71a12.778 12.778 0 0 1-4.72 10.33l-.37.34c-1.96 1.79-3.5 3.21-3.5 7.79a1.37 1.37 0 0 1-1.29 1.32z"/></symbol><symbol id="icon-tw-lp"><path data-name="Twitter Icon" d="M16 1.42a7.3 7.3 0 0 1-1.885.48A3.114 3.114 0 0 0 15.558.22a6.966 6.966 0 0 1-2.085.74 3.406 3.406 0 0 0-2.4-.96 3.166 3.166 0 0 0-3.282 3.03 2.835 2.835 0 0 0 .085.69A9.617 9.617 0 0 1 1.112.56a2.794 2.794 0 0 0-.444 1.52 2.97 2.97 0 0 0 1.46 2.52 3.493 3.493 0 0 1-1.487-.38v.04a3.1 3.1 0 0 0 2.633 2.97 3.5 3.5 0 0 1-.865.1 3.141 3.141 0 0 1-.617-.05 3.259 3.259 0 0 0 3.066 2.1 6.893 6.893 0 0 1-4.077 1.3 6.764 6.764 0 0 1-.783-.04A9.852 9.852 0 0 0 5.029 12a8.917 8.917 0 0 0 9.339-8.62c0-.13 0-.26-.01-.39a6.412 6.412 0 0 0 1.638-1.57z" fill-rule="evenodd"/></symbol><symbol id="icon-user" viewBox="0 0 73 75"><path fill="#a5b1bc" fill-rule="evenodd" d="M0 75V65a8.259 8.259 0 0 1 5.674-7.86l.257-.08a27.833 27.833 0 0 0 5.4-2.03c.558-.27 1.041-.5 1.57-.7 1.258-.49 2.4-.97 3.4-1.44l.057-.03 4.981-4.96.032-4.39-.074-.1a26.447 26.447 0 0 1-5.567-15.45c0-.87.04-1.74.12-2.58l.034-.36-.352-.04c-.651-.09-1.13-.18-1.4-.24a38.5 38.5 0 0 1 .66-7.99c.783-4.08 2.643-9.58 7.051-12.61A22.711 22.711 0 0 1 34.953 0c6.164 0 11.1 2.46 12.917 4.11a24.143 24.143 0 0 1 4.5 5.48l.052.09a27.133 27.133 0 0 1 3.047 18.19l-.01.04v.05a26.447 26.447 0 0 1-5.567 15.45l-.074.1.03 4.19 1.925 1.91v-2.64a1.2 1.2 0 0 1 1.2-1.21h10.981a1.193 1.193 0 0 1 .855.36l7.842 7.95a1.207 1.207 0 0 1 .349.85v18.87A1.2 1.2 0 0 1 71.8 75H0zm54.173-2.42H70.6V56.13h-6.647a1.205 1.205 0 0 1-1.2-1.21v-6.75h-8.581v24.41zm-15.283 0h12.884V61.86zM16.466 55.47c-.831.37-1.717.74-2.709 1.12-.41.15-.819.35-1.294.57l-.094.05a29.774 29.774 0 0 1-5.793 2.18l-.2.06A5.863 5.863 0 0 0 2.4 65v7.58h30.136L20.054 62.21a1.21 1.21 0 0 1-.4-1.21l.672-2.79-3.661-2.83zm16.693 10.31l2.554 5.16 2.557-5.18-1.782-6.54h-1.543zM18.714 53.92l3.7 2.85a1.218 1.218 0 0 1 .435 1.25l-.68 2.81 8.624 7.16.563-.45-8.686-17.56zm21.965 12.39v.02a1.9 1.9 0 0 1-.1.21l-.009.01-.49.99.564.45 8.6-7.16-.679-2.81a1.218 1.218 0 0 1 .437-1.25l2.782-2.15v-1.61l-3.041-3.02zm-11.89-9.37l2.763 5.59.889-3.26-.341-.11a1.189 1.189 0 0 1-.818-.91 1.15 1.15 0 0 1-.023-.24v-2.43zm11.149 1.07a1.413 1.413 0 0 1-.026.25 1.212 1.212 0 0 1-.653.84l-.275.13.891 3.28 2.747-5.57-2.684-1.48v2.55zm-6.277-3.74v2.53h3.872v-2.66l-1.817-1zm-9.329-6.34l3.385 6.84 4.488-2.45-.7-.3a23.322 23.322 0 0 1-6.594-4.53zm22.341-.81a23.874 23.874 0 0 1-6.859 4.84l-.686.3 4.564 2.51 3.567-7.22zm18.485 6.6h3.76l-3.76-3.82v3.82zM18.251 25.55c-.077.81-.117 1.62-.116 2.41 0 5.28 2.384 11.05 6.542 15.81a25.16 25.16 0 0 0 5.924 5.07 8.119 8.119 0 0 0 9.994 0 25.188 25.188 0 0 0 5.921-5.07c4.159-4.77 6.545-10.53 6.545-15.81 0-.31-.01-.61-.019-.9v-.15l-.1-.1a5.733 5.733 0 0 1-1.23-2.12c-1.009-2.86-2.85-6.67-7.163-6.67a13.191 13.191 0 0 0-6.341 2.06 37.586 37.586 0 0 1-18.706 5.15c-.27 0-.555-.01-.871-.02h-.343zm16.7-23.13a20.427 20.427 0 0 0-11.753 3.71 12.626 12.626 0 0 0-3.981 4.76 23.841 23.841 0 0 0-2.047 6.2 35.369 35.369 0 0 0-.612 5.22l-.016.35.35.04c.837.07 1.713.11 2.6.11a35.231 35.231 0 0 0 17.516-4.82 15.24 15.24 0 0 1 7.531-2.39 9.728 9.728 0 0 1 1.529.13l.293.05.11-.28a9.618 9.618 0 0 1 3.471-4.58l.3-.2-.192-.31a22.171 22.171 0 0 0-3.8-4.51c-1.472-1.35-5.85-3.48-11.298-3.48zm16.054 10.7a7.591 7.591 0 0 0-2.261 3.19l-.122.29.276.17a9.1 9.1 0 0 1 2.209 1.84 12.491 12.491 0 0 1 1.633 2.4l.691-.21c-.028-.34-.066-.69-.112-1.05a23.35 23.35 0 0 0-1.752-6.48l-.189-.44z"/></symbol><symbol id="icon-users" viewBox="0 0 90 72"><path fill="#a5b1bc" fill-rule="evenodd" d="M45.13 72a1.208 1.208 0 0 1-.556-.13l-25.7-12.16L1.4 58.6a1.3 1.3 0 0 1-1.211-1.15 25.844 25.844 0 0 1-.192-3.14 25.333 25.333 0 0 1 8.225-18.67 1.3 1.3 0 0 1 .876-.35 1.265 1.265 0 0 1 .5.11l6.684 2.83a1.3 1.3 0 0 1 .695 1.71 1.3 1.3 0 0 1-1.2.81 1.273 1.273 0 0 1-.506-.11l-5.9-2.5-.155.16A22.817 22.817 0 0 0 2.6 54.31c0 .48.016.97.046 1.46l.018.29 15.092.96-.019-.37c-.026-.5-.04-1-.04-1.49a27.62 27.62 0 0 1 8.958-20.35 1.294 1.294 0 0 1 .876-.34 1.309 1.309 0 0 1 .438.07l6.77 2.43.125-.06a23.234 23.234 0 0 1 10.25-2.43 22.539 22.539 0 0 1 10.556 2.67l.136.07 6.261-2.65a1.266 1.266 0 0 1 .506-.11 1.342 1.342 0 0 1 .876.34 27.635 27.635 0 0 1 8.963 20.36c0 .49-.014.99-.041 1.49l-.019.37 14.97-.96.019-.29c.031-.48.046-.97.046-1.46a22.82 22.82 0 0 0-6.615-16.01l-.155-.16-5.9 2.5a1.307 1.307 0 0 1-1.013-2.41l6.683-2.83a1.274 1.274 0 0 1 .507-.11 1.3 1.3 0 0 1 .875.35 25.343 25.343 0 0 1 8.032 21.81 1.3 1.3 0 0 1-1.209 1.15l-17.35 1.11-25.558 12.16a1.207 1.207 0 0 1-.554.13zM27.7 37.42a25.12 25.12 0 0 0-7.394 17.74c0 .73.032 1.47.1 2.2l.017.19L45.13 69.24l24.573-11.69.016-.19c.063-.73.1-1.47.1-2.2a25.139 25.139 0 0 0-7.351-17.7l-.155-.15-5.628 2.38-10.687 13.5a1.3 1.3 0 0 1-1.02.49 1.282 1.282 0 0 1-1.025-.5L33.301 39.51a1.031 1.031 0 0 1-.148-.24l-.058-.12-5.24-1.87zm15.7-.25a20.55 20.55 0 0 0-6.736 1.77l-.377.17 7.466 9.58V37.14zm2.958 11.35l7.437-9.39-.379-.18a20.114 20.114 0 0 0-6.7-1.78l-.353-.03v11.38zm-1.239 18.21a1.31 1.31 0 0 1-1.3-1.31v-.76a1.303 1.303 0 1 1 2.606 0v.76a1.31 1.31 0 0 1-1.303 1.31zm0-4.31a1.31 1.31 0 0 1-1.3-1.31v-4.53a1.303 1.303 0 1 1 2.606 0v4.53a1.31 1.31 0 0 1-1.303 1.31zm22.95-28.81a13.844 13.844 0 0 1-11.588-5.52l-.217-.29-.265.25a16.019 16.019 0 0 1-21.991-.1l-.258-.25-.221.28a14.886 14.886 0 1 1-2.253-20.84l.275.23.2-.3a16.056 16.056 0 0 1 26.571-.06l.2.29.272-.22a14.614 14.614 0 0 1 9.275-3.27 14.9 14.9 0 0 1 .003 29.8zm0-27.18a12.149 12.149 0 0 0-8.1 3.08l-.175.15.091.22a16.223 16.223 0 0 1-1.721 15.69l-.131.19.124.19a11.426 11.426 0 0 0 9.907 5.04 12.28 12.28 0 0 0 .008-24.56zm-46.142 0a12.28 12.28 0 1 0 9.944 19.42l.135-.19-.133-.19a16.228 16.228 0 0 1-1.681-15.51l.089-.22-.171-.15a12.144 12.144 0 0 0-8.18-3.16zm23.131-3.81a13.568 13.568 0 0 0-10.7 21.83 1.547 1.547 0 0 1 .422.51A13.522 13.522 0 1 0 45.061 2.62z"/></symbol><symbol id="icon-visa" viewBox="0 0 52 18"><path fill="#fff" fill-rule="evenodd" d="M18.194 16.883l2.6-16.129h4.157l-2.6 16.129h-4.157zM37.419 1.148a10.223 10.223 0 0 0-3.728-.686c-4.105 0-7 2.2-7.013 5.337-.034 2.316 2.07 3.6 3.643 4.376 1.608.789 2.155 1.3 2.155 2.008-.017 1.081-1.3 1.578-2.5 1.578a8.259 8.259 0 0 1-3.9-.858l-.547-.258-.581 3.621a12.6 12.6 0 0 0 4.635.858c4.362 0 7.2-2.163 7.235-5.509.017-1.836-1.095-3.243-3.49-4.393-1.454-.738-2.343-1.236-2.343-1.99.018-.687.753-1.389 2.4-1.389a7.031 7.031 0 0 1 3.1.618l.376.171.564-3.483zm5.525 10.021c.342-.927 1.658-4.513 1.658-4.513-.016.035.342-.944.548-1.544l.291 1.388s.786 3.861.958 4.667h-3.455zM48.076.754H44.86a2.05 2.05 0 0 0-2.173 1.338l-6.174 14.791h4.362l.872-2.419h5.337c.12.567.5 2.419.5 2.419h3.849L48.076.754zm-33.354 0l-4.071 11-.444-2.233a12.333 12.333 0 0 0-5.747-6.76l3.729 14.105h4.4L19.119.754h-4.4z"/><path data-name="Shape" fill="#faa61a" fill-rule="evenodd" d="M6.871.754H.184l-.069.326c5.217 1.337 8.672 4.564 10.092 8.441L8.753 2.109A1.721 1.721 0 0 0 6.871.754z"/></symbol><symbol id="icon-vk--big" viewBox="0 0 22 22"><path fill-rule="evenodd" d="M17.68 22.012H4.34a4.332 4.332 0 0 1-4.33-4.333V4.319A4.333 4.333 0 0 1 4.34-.013h13.34a4.333 4.333 0 0 1 4.33 4.332v13.36a4.332 4.332 0 0 1-4.33 4.333zm-1.49-10.666a3.453 3.453 0 0 0-1.89-1.013v-.069a2.731 2.731 0 0 0 1.29-1.069 3.005 3.005 0 0 0 .46-1.659 2.962 2.962 0 0 0-.33-1.42 2.505 2.505 0 0 0-1.02-.982 5.206 5.206 0 0 0-1.65-.254 14.345 14.345 0 0 0-1.63 0H6.53v12.237h4.89c.88 0 1.98.012 2.58-.046a3.194 3.194 0 0 0 1.58-.8 3.454 3.454 0 0 0 .96-1.189 3.676 3.676 0 0 0 .36-1.667 2.933 2.933 0 0 0-.71-2.069zm-3.42 3.382a2.67 2.67 0 0 1-.97.231c-.32.012-.89.017-1.72.017H9.9v-3.189h.59c.57 0 1.03 0 1.37.012a2.49 2.49 0 0 1 .79.124 1.453 1.453 0 0 1 .72.5 1.555 1.555 0 0 1 .24.923 1.715 1.715 0 0 1-.2.825 1.263 1.263 0 0 1-.64.557zm-.64-5.319a1.823 1.823 0 0 1-.68.18c-.21.011-.6.017-1.14.017H9.9V6.912h.23c.57 0 .99 0 1.28.013a2.04 2.04 0 0 1 .75.15.979.979 0 0 1 .49.47 1.384 1.384 0 0 1 .16.633 1.7 1.7 0 0 1-.15.735.989.989 0 0 1-.53.496z"/></symbol><symbol id="icon-vk-gray" viewBox="0 0 20 20"><g clip-path="url(#clip0)"><path d="M19.822 14.473c-.054-.09-.386-.813-1.987-2.298-1.675-1.555-1.45-1.303.568-3.992 1.229-1.637 1.72-2.637 1.566-3.065-.146-.407-1.05-.3-1.05-.3l-3.005.018s-.223-.03-.389.068c-.161.098-.265.323-.265.323s-.476 1.267-1.111 2.345c-1.339 2.274-1.875 2.394-2.094 2.253-.509-.33-.381-1.323-.381-2.028 0-2.204.333-3.123-.652-3.36-.327-.079-.567-.131-1.404-.14-1.072-.011-1.98.004-2.495.255-.342.167-.606.541-.445.562.199.027.65.122.888.447.309.418.297 1.361.297 1.361s.178 2.594-.413 2.916c-.407.222-.963-.23-2.157-2.293C4.682 6.488 4.22 5.319 4.22 5.319s-.088-.217-.247-.333a1.246 1.246 0 0 0-.463-.187l-2.857.018s-.43.012-.587.199c-.14.166-.011.508-.011.508s2.238 5.234 4.77 7.874c2.324 2.418 4.962 2.26 4.962 2.26h1.195s.361-.04.545-.24c.17-.182.164-.524.164-.524s-.024-1.604.721-1.84c.734-.233 1.677 1.55 2.675 2.236.755.519 1.33.405 1.33.405l2.67-.037s1.398-.087.736-1.185z"/></g></symbol><symbol id="icon-vk-lp"><path d="M14.631 6.36a23.2 23.2 0 0 1 1.665 1.74 5.2 5.2 0 0 1 .6.89.649.649 0 0 1-.377 1h-2.476a1.877 1.877 0 0 1-1.577-.67c-.343-.36-.661-.75-.99-1.12a2.372 2.372 0 0 0-.446-.41.507.507 0 0 0-.825.21 2.772 2.772 0 0 0-.26 1.2.67.67 0 0 1-.789.79 6.2 6.2 0 0 1-3.544-.79 8.039 8.039 0 0 1-2.385-2.32A31.479 31.479 0 0 1 .089 1.06C-.111.6.036.36.522.35q1.212-.03 2.425 0a.711.711 0 0 1 .673.52 15.932 15.932 0 0 0 1.643 3.17 2.79 2.79 0 0 0 .621.71.376.376 0 0 0 .641-.2 2.26 2.26 0 0 0 .142-.66 10.31 10.31 0 0 0-.039-2.33.96.96 0 0 0-.8-.89c-.237-.05-.2-.14-.087-.28a.883.883 0 0 1 .76-.39h2.8a.689.689 0 0 1 .6.76v3.23a.937.937 0 0 0 .395.82.537.537 0 0 0 .559-.28 9.995 9.995 0 0 0 1.575-2.52c.19-.4.353-.81.511-1.22a.594.594 0 0 1 .633-.45h2.694a.946.946 0 0 1 .238.02.482.482 0 0 1 .438.74 7.185 7.185 0 0 1-1.071 1.93c-.449.65-.93 1.27-1.375 1.92a.9.9 0 0 0 .131 1.41z" fill-rule="evenodd"/></symbol><symbol id="icon-vk" viewBox="0 0 15 15"><path fill-rule="evenodd" d="M12.053 15.01H2.945A2.954 2.954 0 0 1-.01 12.05v-9.1A2.954 2.954 0 0 1 2.945-.01h9.108a2.953 2.953 0 0 1 2.954 2.96v9.1a2.953 2.953 0 0 1-2.954 2.96zm-1.019-7.27a2.335 2.335 0 0 0-1.289-.69V7a1.9 1.9 0 0 0 .878-.73 2.053 2.053 0 0 0 .318-1.13 1.971 1.971 0 0 0-.231-.97 1.688 1.688 0 0 0-.7-.67 3.767 3.767 0 0 0-1.125-.17 10 10 0 0 0-1.112 0H4.44v8.34h3.337c.6 0 1.353.01 1.761-.03a2.146 2.146 0 0 0 1.076-.55 2.255 2.255 0 0 0 .659-.81 2.483 2.483 0 0 0 .245-1.14 1.955 1.955 0 0 0-.484-1.4zm-2.332 2.3a1.835 1.835 0 0 1-.665.16c-.218.01-.61.01-1.178.01h-.116V8.04h.4c.389 0 .7 0 .93.01a1.572 1.572 0 0 1 .545.08 1.01 1.01 0 0 1 .49.34 1.1 1.1 0 0 1 .163.63 1.189 1.189 0 0 1-.137.57.855.855 0 0 1-.434.37zm-.438-3.62a1.381 1.381 0 0 1-.463.12c-.15.01-.411.01-.784.01h-.274V4.71h.151c.389 0 .681.01.878.01a1.53 1.53 0 0 1 .51.1.7.7 0 0 1 .335.32 1.024 1.024 0 0 1 .108.44 1.206 1.206 0 0 1-.1.5.758.758 0 0 1-.361.34z"/></symbol><symbol id="icon-wallet" viewBox="0 0 35 30"><path fill="#a5b1bc" fill-rule="evenodd" d="M1.823 30A1.829 1.829 0 0 1 0 28.17V6.219A1.829 1.829 0 0 1 1.823 4.39H30.26a1.828 1.828 0 0 1 1.823 1.829v6.22H29.9V6.585H2.187v21.22H29.9v-5.123h2.187v5.488A1.828 1.828 0 0 1 30.26 30H1.823zm21.51-24.878V2.195H2.187v2.927H0V1.83A1.829 1.829 0 0 1 1.823 0H23.7a1.829 1.829 0 0 1 1.823 1.83v3.292h-2.188zM23.7 21.95c-2.211 0-4.011-2.133-4.011-4.756s1.8-4.755 4.011-4.755h9.662a1.644 1.644 0 0 1 1.64 1.645v6.221a1.645 1.645 0 0 1-1.64 1.645H23.7zm0-7.317c-.989 0-1.823 1.173-1.823 2.561s.834 2.561 1.823 2.561h9.114v-5.122H23.7zm.364 3.659V16.1h1.459v2.195h-1.459z"/></symbol><symbol id="icon-xls"><g clip-path="url(#a)"><path d="M13.827 58.828V1.172h34.69l7.5 7.496v50.16h-42.19z" fill="#EFF3F3"/><path d="M30.234 14.06h18.752v20.619H30.234v-20.62z" fill="#fff"/><path d="M30.234 20.932h18.752v6.874H30.234v-6.874z" fill="#EFF3F3"/><path d="M20.859 14.06h9.376v20.626h-9.376V14.059z" fill="#307ABD"/><path d="M48.517 1.167v7.501h7.5l-7.5-7.5z" fill="#0075B8"/><path d="M39.61 40.077H8.67a4.688 4.688 0 0 0-4.688 4.688v9.375a4.688 4.688 0 0 0 4.688 4.688h30.94a4.688 4.688 0 0 0 4.688-4.688v-9.376a4.688 4.688 0 0 0-4.688-4.687z" fill="#307ABD"/><path d="M56.846 7.84l-7.5-7.497A1.172 1.172 0 0 0 48.517 0h-34.69c-.647 0-1.172.525-1.172 1.172v37.733H8.67a5.866 5.866 0 0 0-5.86 5.86v9.375A5.866 5.866 0 0 0 8.67 60h47.348c.647 0 1.172-.525 1.172-1.172V35.286a1.172 1.172 0 0 0-2.344 0v22.37H44.295a5.83 5.83 0 0 0 1.175-3.516v-9.376a5.866 5.866 0 0 0-5.86-5.86H15V2.345h32.346v6.324c0 .647.525 1.172 1.172 1.172h6.329V24.74a1.172 1.172 0 0 0 2.344 0V8.669c0-.312-.124-.61-.344-.83zm-13.72 36.924v9.376a3.52 3.52 0 0 1-3.516 3.516H8.67a3.52 3.52 0 0 1-3.516-3.516v-9.376A3.52 3.52 0 0 1 8.67 41.25h30.94a3.52 3.52 0 0 1 3.516 3.515zM49.689 4l3.498 3.496H49.69V4z" fill="#152438"/><path d="M56.018 28.841a1.176 1.176 0 0 0-1.172 1.172c0 .308.125.61.343.829.218.218.52.343.829.343.308 0 .61-.125.828-.343a1.18 1.18 0 0 0 .344-.829 1.175 1.175 0 0 0-1.172-1.172z" fill="#000"/><path d="M34.688 50.624h.468a1.173 1.173 0 0 1 0 2.344h-1.699a1.172 1.172 0 0 0 0 2.344h1.7a3.52 3.52 0 0 0 3.515-3.516 3.52 3.52 0 0 0-3.515-3.516h-.47a1.173 1.173 0 0 1-1.171-1.172c0-.646.526-1.171 1.172-1.171h1.347a1.172 1.172 0 0 0 0-2.344h-1.347a3.52 3.52 0 0 0-3.516 3.515 3.52 3.52 0 0 0 3.516 3.516zm-22.993-6.592a1.172 1.172 0 0 0-1.83 1.465l3.164 3.955-3.164 3.956a1.172 1.172 0 0 0 1.83 1.465l2.835-3.544 2.835 3.544a1.17 1.17 0 0 0 1.647.182 1.172 1.172 0 0 0 .183-1.647l-3.164-3.956 3.165-3.955a1.172 1.172 0 0 0-1.83-1.465l-2.836 3.544-2.835-3.544zm11.273 11.28h4.688a1.172 1.172 0 0 0 0-2.344H24.14v-8.204a1.172 1.172 0 0 0-2.344 0v9.376c0 .648.525 1.172 1.172 1.172z" fill="#fff"/><path d="M20.858 12.887c-.647 0-1.172.525-1.172 1.172v20.62c0 .647.525 1.171 1.172 1.171h9.25a1.157 1.157 0 0 0 .252 0h18.626c.647 0 1.172-.524 1.172-1.172v-20.62c0-.646-.525-1.171-1.172-1.171H20.859zm1.172 9.217h7.032v4.53H22.03v-4.53zm9.376 0h16.408v4.53H31.406v-4.53zm16.408-2.344H31.406v-4.53h16.408v4.53zm-18.752-4.53v4.53H22.03v-4.53h7.032zM22.03 28.978h7.032v4.53H22.03v-4.53zm9.376 4.53v-4.53h16.408v4.53H31.406z" fill="#152438"/></g></symbol><symbol id="icon-youtube--big" viewBox="0 0 24 16"><path fill-rule="evenodd" d="M3.69.011H20.3a3.623 3.623 0 0 1 3.69 3.555v8.89a3.624 3.624 0 0 1-3.69 3.556H3.69A3.624 3.624 0 0 1 0 12.456v-8.89A3.623 3.623 0 0 1 3.69.011zm5.2 4.968v6.064a.734.734 0 0 0 .73.758c.74 0 5.16-3.032 5.16-3.032a1.067 1.067 0 0 0 0-1.516 15.3 15.3 0 0 0-5.16-3.031.709.709 0 0 0-.73.757z"/></symbol><symbol id="icon-youtube" viewBox="0 0 16 11"><path fill-rule="evenodd" d="M2.461.01h11.072a2.449 2.449 0 0 1 2.461 2.44v6.1a2.449 2.449 0 0 1-2.461 2.44H2.461a2.448 2.448 0 0 1-2.46-2.44v-6.1A2.448 2.448 0 0 1 2.461.01zm3.463 3.41v4.16a.5.5 0 0 0 .492.52c.491 0 3.439-2.08 3.439-2.08a.748.748 0 0 0 0-1.04A10.134 10.134 0 0 0 6.416 2.9a.484.484 0 0 0-.492.52z"/></symbol></svg>